M48
; DRILL file {KiCad 9.0.1-9.0.1-0~ubuntu24.04.1} date 2025-04-10T02:26:30-0400
; FORMAT={-:-/ absolute / metric / decimal}
; #@! TF.CreationDate,2025-04-10T02:26:30-04:00
; #@! TF.GenerationSoftware,Kicad,Pcbnew,9.0.1-9.0.1-0~ubuntu24.04.1
; #@! TF.FileFunction,Plated,1,4,PTH
FMAT,2
METRIC
; #@! TA.AperFunction,Plated,PTH,ViaDrill
T1C0.300
; #@! TA.AperFunction,Plated,PTH,ComponentDrill
T2C1.000
; #@! TA.AperFunction,Plated,PTH,ComponentDrill
T3C2.700
%
G90
G05
T1
X120.32Y-90.23
X120.32Y-93.28
X120.32Y-96.33
X120.32Y-99.39
X120.32Y-102.45
X120.32Y-105.52
X120.32Y-108.59
X120.32Y-111.65
X126.4Y-118.0
X127.38Y-90.24
X127.38Y-111.13
X130.76Y-92.27
X131.11Y-94.35
X131.57Y-95.71
X131.92Y-109.53
X133.29Y-105.24
X133.69Y-110.63
X133.8Y-102.79
X134.04Y-90.84
X134.26Y-93.33
X134.33Y-86.99
X134.71Y-99.2
X134.81Y-102.85
X135.23Y-98.3
X135.24Y-93.37
X135.48Y-110.04
X135.87Y-86.68
X135.91Y-112.42
X136.4Y-117.1
X136.79Y-93.36
X137.66Y-93.495
X138.59Y-97.85
X138.799Y-105.201
X140.11Y-97.83
X140.27Y-92.02
X140.4Y-117.1
X141.32Y-102.58
X141.9Y-87.8
X143.47Y-87.93
X144.72Y-99.95
X144.75Y-97.75
X144.78Y-96.54
X144.79Y-93.8
X144.79Y-95.33
X146.06Y-114.28
X146.135Y-106.705
X146.18Y-90.74
X148.18Y-91.54
X148.18Y-103.35
X149.62Y-80.54
X152.939Y-106.44
X155.47Y-118.39
X156.19Y-98.95
X157.23Y-120.36
X157.239Y-106.44
X158.78Y-118.44
X159.12Y-104.63
X162.15Y-118.4
X165.45Y-118.4
X166.34Y-107.62
X167.42Y-101.28
X167.42Y-104.79
X168.04Y-100.49
X168.74Y-118.09
X168.95Y-104.65
X169.16Y-99.68
X169.304Y-101.274
X169.8Y-81.78
X170.0Y-95.08
X170.01Y-107.62
X170.281Y-100.489
X171.12Y-102.66
X171.86Y-118.11
X172.12Y-99.679
X172.5Y-83.47
X174.46Y-105.17
X175.04Y-84.98
X175.1Y-100.91
X175.31Y-117.59
X176.62Y-98.12
X177.97Y-117.73
X178.29Y-105.97
X178.56Y-97.82
X179.93Y-105.68
X181.39Y-127.52
X182.32Y-117.99
X182.33Y-116.43
X182.47Y-105.68
X182.77Y-93.17
X183.03Y-97.25
X183.03Y-98.08
X183.04Y-92.38
X183.08Y-126.17
X183.08Y-127.42
X183.35Y-91.49
X183.53Y-100.99
X183.96Y-116.41
X185.23Y-120.55
X185.28Y-94.13
X186.85Y-95.7
X187.36Y-105.23
X187.81Y-79.46
X189.39Y-79.45
X189.76Y-120.81
X189.77Y-94.99
X190.02Y-103.63
X191.17Y-93.49
X191.17Y-117.902
X192.5Y-98.04
X192.97Y-96.26
X194.23Y-118.08
X194.28Y-123.96
X197.01Y-122.63
T2
X115.199Y-90.69
X115.199Y-93.23
X115.199Y-95.77
X115.199Y-98.31
X115.199Y-100.85
X115.199Y-103.39
X115.199Y-105.93
X115.199Y-108.47
X117.739Y-90.69
X117.739Y-93.23
X117.739Y-95.77
X117.739Y-98.31
X117.739Y-100.85
X117.739Y-103.39
X117.739Y-105.93
X117.739Y-108.47
X120.364Y-85.8
X132.66Y-117.78
X141.28Y-129.21
X141.28Y-131.75
X142.36Y-111.14
X142.36Y-114.44
X142.36Y-117.78
X142.36Y-121.11
X142.36Y-124.48
X143.82Y-129.21
X143.82Y-131.75
X146.36Y-129.21
X146.36Y-131.75
X148.9Y-129.21
X148.9Y-131.75
X149.63Y-86.35
X149.63Y-111.75
X151.44Y-129.21
X151.44Y-131.75
X151.5Y-121.97
X151.5Y-124.51
X152.17Y-86.35
X152.17Y-111.75
X153.98Y-129.21
X153.98Y-131.75
X154.04Y-121.97
X154.04Y-124.51
X154.71Y-86.35
X154.71Y-111.75
X156.37Y-79.7
X156.52Y-129.21
X156.52Y-131.75
X156.58Y-121.97
X156.58Y-124.51
X157.25Y-86.35
X157.25Y-111.75
X159.06Y-129.21
X159.06Y-131.75
X159.12Y-121.97
X159.12Y-124.51
X159.71Y-79.7
X159.79Y-86.35
X159.79Y-111.75
X161.6Y-129.21
X161.6Y-131.75
X161.66Y-121.97
X161.66Y-124.51
X162.33Y-86.35
X162.33Y-111.75
X163.09Y-79.7
X164.14Y-129.21
X164.14Y-131.75
X164.2Y-121.97
X164.2Y-124.51
X164.87Y-86.35
X164.87Y-111.75
X166.44Y-79.7
X166.68Y-129.21
X166.68Y-131.75
X166.74Y-121.97
X166.74Y-124.51
X167.41Y-86.35
X167.41Y-111.75
X169.22Y-129.21
X169.22Y-131.75
X169.28Y-121.97
X169.28Y-124.51
X169.8Y-79.7
X169.95Y-86.35
X169.95Y-111.75
X171.76Y-129.21
X171.76Y-131.75
X171.82Y-121.97
X171.82Y-124.51
X172.49Y-86.35
X172.49Y-111.75
X173.15Y-79.7
X174.3Y-129.21
X174.3Y-131.75
X174.36Y-121.97
X174.36Y-124.51
X175.03Y-86.35
X175.03Y-111.75
X176.5Y-79.7
X176.84Y-129.21
X176.84Y-131.75
X176.9Y-121.97
X176.9Y-124.51
X177.57Y-86.35
X177.57Y-111.75
X179.38Y-129.21
X179.38Y-131.75
X179.44Y-121.97
X179.44Y-124.51
X179.85Y-79.7
X180.11Y-86.35
X180.11Y-111.75
X181.92Y-129.21
X181.92Y-131.75
X182.65Y-86.35
X182.65Y-111.75
X183.21Y-79.7
X184.46Y-129.21
X184.46Y-131.75
X185.19Y-86.35
X185.19Y-111.75
X187.0Y-129.21
X187.0Y-131.75
X187.73Y-86.35
X187.73Y-111.75
X189.54Y-129.21
X189.54Y-131.75
X190.27Y-86.35
X190.27Y-111.75
X192.81Y-86.35
X192.81Y-111.75
X195.18Y-90.08
X195.18Y-93.49
X195.18Y-100.68
X195.18Y-104.22
X195.18Y-107.59
X195.35Y-86.35
X195.35Y-111.75
T3
X136.44Y-81.5
X136.44Y-130.5
X194.44Y-81.5
X194.44Y-130.5
M30
