G04 #@! TF.GenerationSoftware,KiCad,Pcbnew,9.0.1-9.0.1-0~ubuntu24.04.1*
G04 #@! TF.CreationDate,2025-04-10T02:26:27-04:00*
G04 #@! TF.ProjectId,EEG SHIELD,45454720-5348-4494-954c-442e6b696361,B*
G04 #@! TF.SameCoordinates,Original*
G04 #@! TF.FileFunction,Soldermask,Top*
G04 #@! TF.FilePolarity,Negative*
%FSLAX46Y46*%
G04 Gerber Fmt 4.6, Leading zero omitted, Abs format (unit mm)*
G04 Created by KiCad (PCBNEW 9.0.1-9.0.1-0~ubuntu24.04.1) date 2025-04-10 02:26:27*
%MOMM*%
%LPD*%
G01*
G04 APERTURE LIST*
G04 Aperture macros list*
%AMRoundRect*
0 Rectangle with rounded corners*
0 $1 Rounding radius*
0 $2 $3 $4 $5 $6 $7 $8 $9 X,Y pos of 4 corners*
0 Add a 4 corners polygon primitive as box body*
4,1,4,$2,$3,$4,$5,$6,$7,$8,$9,$2,$3,0*
0 Add four circle primitives for the rounded corners*
1,1,$1+$1,$2,$3*
1,1,$1+$1,$4,$5*
1,1,$1+$1,$6,$7*
1,1,$1+$1,$8,$9*
0 Add four rect primitives between the rounded corners*
20,1,$1+$1,$2,$3,$4,$5,0*
20,1,$1+$1,$4,$5,$6,$7,0*
20,1,$1+$1,$6,$7,$8,$9,0*
20,1,$1+$1,$8,$9,$2,$3,0*%
G04 Aperture macros list end*
%ADD10C,0.300000*%
%ADD11C,0.100000*%
%ADD12C,0.200000*%
%ADD13C,0.000000*%
%ADD14RoundRect,0.237500X-0.250000X-0.237500X0.250000X-0.237500X0.250000X0.237500X-0.250000X0.237500X0*%
%ADD15RoundRect,0.237500X0.250000X0.237500X-0.250000X0.237500X-0.250000X-0.237500X0.250000X-0.237500X0*%
%ADD16R,1.700000X1.700000*%
%ADD17C,1.700000*%
%ADD18RoundRect,0.237500X-0.237500X0.300000X-0.237500X-0.300000X0.237500X-0.300000X0.237500X0.300000X0*%
%ADD19RoundRect,0.237500X0.237500X-0.287500X0.237500X0.287500X-0.237500X0.287500X-0.237500X-0.287500X0*%
%ADD20RoundRect,0.237500X0.300000X0.237500X-0.300000X0.237500X-0.300000X-0.237500X0.300000X-0.237500X0*%
%ADD21C,2.000000*%
%ADD22RoundRect,0.237500X-0.300000X-0.237500X0.300000X-0.237500X0.300000X0.237500X-0.300000X0.237500X0*%
%ADD23RoundRect,0.237500X0.237500X-0.300000X0.237500X0.300000X-0.237500X0.300000X-0.237500X-0.300000X0*%
%ADD24RoundRect,0.237500X-0.237500X0.250000X-0.237500X-0.250000X0.237500X-0.250000X0.237500X0.250000X0*%
%ADD25RoundRect,0.237500X-0.287500X-0.237500X0.287500X-0.237500X0.287500X0.237500X-0.287500X0.237500X0*%
%ADD26C,3.100000*%
%ADD27C,4.700000*%
%ADD28R,1.000000X1.550000*%
%ADD29RoundRect,0.250000X1.100000X-0.412500X1.100000X0.412500X-1.100000X0.412500X-1.100000X-0.412500X0*%
%ADD30RoundRect,0.237500X0.237500X-0.250000X0.237500X0.250000X-0.237500X0.250000X-0.237500X-0.250000X0*%
%ADD31RoundRect,0.250000X-0.475000X0.337500X-0.475000X-0.337500X0.475000X-0.337500X0.475000X0.337500X0*%
%ADD32R,1.346200X0.279400*%
%ADD33R,0.279400X1.346200*%
G04 APERTURE END LIST*
D10*
X132040000Y-122310042D02*
X132039878Y-123876745D01*
X116016188Y-123059670D02*
G75*
G02*
X115266230Y-122329669I-9988J739970D01*
G01*
D11*
X131634731Y-131124731D02*
G75*
G02*
X131174731Y-131584731I-460031J31D01*
G01*
X116016188Y-123059669D02*
X115260000Y-123060000D01*
X127775000Y-124290000D02*
X122505000Y-124290000D01*
X115665269Y-123925269D02*
G75*
G02*
X116125269Y-123465269I460031J-31D01*
G01*
D10*
X115260330Y-123806188D02*
G75*
G02*
X115990331Y-123056230I739970J9988D01*
G01*
X115260330Y-123786243D02*
X115268094Y-121896809D01*
X132049670Y-131213812D02*
G75*
G02*
X131319669Y-131963770I-739970J-9988D01*
G01*
X116016188Y-131959670D02*
G75*
G02*
X115266230Y-131229669I-9988J739970D01*
G01*
D11*
X131174731Y-123465269D02*
G75*
G02*
X131634731Y-123925269I-31J-460031D01*
G01*
D10*
X115266188Y-131213618D02*
X115260330Y-123806188D01*
X132043769Y-123790330D02*
X132049670Y-131213812D01*
D11*
X116125269Y-131584731D02*
G75*
G02*
X115665269Y-131124731I31J460031D01*
G01*
X130775000Y-127290000D02*
X130775000Y-129340000D01*
X131634731Y-131124700D02*
X131634731Y-123925300D01*
D10*
X130775000Y-124290000D02*
X130775000Y-127290000D01*
X131293812Y-123060330D02*
G75*
G02*
X132043770Y-123790331I9988J-739970D01*
G01*
X124735000Y-124290000D02*
X130775000Y-124290000D01*
D11*
X115168755Y-79482963D02*
X131391852Y-79482963D01*
X131391852Y-83042232D01*
X115168755Y-83042232D01*
X115168755Y-79482963D01*
X115665269Y-123925269D02*
X115665269Y-131124700D01*
D10*
X130023812Y-124290330D02*
G75*
G02*
X130773770Y-125020331I9988J-739970D01*
G01*
X115270000Y-121480000D02*
G75*
G02*
X116000000Y-120730000I740000J10000D01*
G01*
X131303618Y-131963812D02*
X116016188Y-131959670D01*
X131522749Y-123093394D02*
X132000000Y-123100000D01*
X116016188Y-123059670D02*
X131293812Y-123060041D01*
X132043812Y-121476382D02*
X132040000Y-122310000D01*
X115266188Y-122313618D02*
X115270000Y-121480000D01*
X131293812Y-120730330D02*
G75*
G02*
X132043770Y-121460331I9988J-739970D01*
G01*
X132040000Y-122310000D02*
G75*
G02*
X131310000Y-123060000I-740000J-10000D01*
G01*
D11*
X116125300Y-131584731D02*
X131174731Y-131584731D01*
D10*
X115260000Y-123060000D02*
X116016188Y-123059670D01*
X116000042Y-120730000D02*
X131293843Y-120730330D01*
D11*
X131174700Y-123465269D02*
X116125269Y-123465269D01*
D12*
X116769673Y-125637275D02*
X116769673Y-124637275D01*
X116769673Y-124637275D02*
X117150625Y-124637275D01*
X117150625Y-124637275D02*
X117245863Y-124684894D01*
X117245863Y-124684894D02*
X117293482Y-124732513D01*
X117293482Y-124732513D02*
X117341101Y-124827751D01*
X117341101Y-124827751D02*
X117341101Y-124970608D01*
X117341101Y-124970608D02*
X117293482Y-125065846D01*
X117293482Y-125065846D02*
X117245863Y-125113465D01*
X117245863Y-125113465D02*
X117150625Y-125161084D01*
X117150625Y-125161084D02*
X116769673Y-125161084D01*
X117722054Y-125351560D02*
X118198244Y-125351560D01*
X117626816Y-125637275D02*
X117960149Y-124637275D01*
X117960149Y-124637275D02*
X118293482Y-125637275D01*
X119198244Y-125637275D02*
X118864911Y-125161084D01*
X118626816Y-125637275D02*
X118626816Y-124637275D01*
X118626816Y-124637275D02*
X119007768Y-124637275D01*
X119007768Y-124637275D02*
X119103006Y-124684894D01*
X119103006Y-124684894D02*
X119150625Y-124732513D01*
X119150625Y-124732513D02*
X119198244Y-124827751D01*
X119198244Y-124827751D02*
X119198244Y-124970608D01*
X119198244Y-124970608D02*
X119150625Y-125065846D01*
X119150625Y-125065846D02*
X119103006Y-125113465D01*
X119103006Y-125113465D02*
X119007768Y-125161084D01*
X119007768Y-125161084D02*
X118626816Y-125161084D01*
X117055387Y-126247219D02*
X117055387Y-126961504D01*
X117055387Y-126961504D02*
X117007768Y-127104361D01*
X117007768Y-127104361D02*
X116912530Y-127199600D01*
X116912530Y-127199600D02*
X116769673Y-127247219D01*
X116769673Y-127247219D02*
X116674435Y-127247219D01*
X117531578Y-127247219D02*
X117531578Y-126247219D01*
X117960149Y-126961504D02*
X118436339Y-126961504D01*
X117864911Y-127247219D02*
X118198244Y-126247219D01*
X118198244Y-126247219D02*
X118531577Y-127247219D01*
X119626816Y-127247219D02*
X119626816Y-126247219D01*
X119626816Y-126247219D02*
X120007768Y-126247219D01*
X120007768Y-126247219D02*
X120103006Y-126294838D01*
X120103006Y-126294838D02*
X120150625Y-126342457D01*
X120150625Y-126342457D02*
X120198244Y-126437695D01*
X120198244Y-126437695D02*
X120198244Y-126580552D01*
X120198244Y-126580552D02*
X120150625Y-126675790D01*
X120150625Y-126675790D02*
X120103006Y-126723409D01*
X120103006Y-126723409D02*
X120007768Y-126771028D01*
X120007768Y-126771028D02*
X119626816Y-126771028D01*
X120626816Y-126723409D02*
X120960149Y-126723409D01*
X121103006Y-127247219D02*
X120626816Y-127247219D01*
X120626816Y-127247219D02*
X120626816Y-126247219D01*
X120626816Y-126247219D02*
X121103006Y-126247219D01*
X121531578Y-127247219D02*
X121531578Y-126247219D01*
X121531578Y-126247219D02*
X122103006Y-127247219D01*
X122103006Y-127247219D02*
X122103006Y-126247219D01*
X123103006Y-126294838D02*
X123007768Y-126247219D01*
X123007768Y-126247219D02*
X122864911Y-126247219D01*
X122864911Y-126247219D02*
X122722054Y-126294838D01*
X122722054Y-126294838D02*
X122626816Y-126390076D01*
X122626816Y-126390076D02*
X122579197Y-126485314D01*
X122579197Y-126485314D02*
X122531578Y-126675790D01*
X122531578Y-126675790D02*
X122531578Y-126818647D01*
X122531578Y-126818647D02*
X122579197Y-127009123D01*
X122579197Y-127009123D02*
X122626816Y-127104361D01*
X122626816Y-127104361D02*
X122722054Y-127199600D01*
X122722054Y-127199600D02*
X122864911Y-127247219D01*
X122864911Y-127247219D02*
X122960149Y-127247219D01*
X122960149Y-127247219D02*
X123103006Y-127199600D01*
X123103006Y-127199600D02*
X123150625Y-127151980D01*
X123150625Y-127151980D02*
X123150625Y-126818647D01*
X123150625Y-126818647D02*
X122960149Y-126818647D01*
X124245864Y-126247219D02*
X124912530Y-127247219D01*
X124912530Y-126247219D02*
X124245864Y-127247219D01*
X125293483Y-126247219D02*
X125293483Y-127056742D01*
X125293483Y-127056742D02*
X125341102Y-127151980D01*
X125341102Y-127151980D02*
X125388721Y-127199600D01*
X125388721Y-127199600D02*
X125483959Y-127247219D01*
X125483959Y-127247219D02*
X125674435Y-127247219D01*
X125674435Y-127247219D02*
X125769673Y-127199600D01*
X125769673Y-127199600D02*
X125817292Y-127151980D01*
X125817292Y-127151980D02*
X125864911Y-127056742D01*
X125864911Y-127056742D02*
X125864911Y-126247219D01*
X126388721Y-127199600D02*
X126388721Y-127247219D01*
X126388721Y-127247219D02*
X126341102Y-127342457D01*
X126341102Y-127342457D02*
X126293483Y-127390076D01*
X116445863Y-121888028D02*
X116745863Y-121888028D01*
X116874435Y-122359457D02*
X116445863Y-122359457D01*
X116445863Y-122359457D02*
X116445863Y-121459457D01*
X116445863Y-121459457D02*
X116874435Y-121459457D01*
X117260149Y-121888028D02*
X117560149Y-121888028D01*
X117688721Y-122359457D02*
X117260149Y-122359457D01*
X117260149Y-122359457D02*
X117260149Y-121459457D01*
X117260149Y-121459457D02*
X117688721Y-121459457D01*
X118545864Y-121502314D02*
X118460150Y-121459457D01*
X118460150Y-121459457D02*
X118331578Y-121459457D01*
X118331578Y-121459457D02*
X118203007Y-121502314D01*
X118203007Y-121502314D02*
X118117292Y-121588028D01*
X118117292Y-121588028D02*
X118074435Y-121673742D01*
X118074435Y-121673742D02*
X118031578Y-121845171D01*
X118031578Y-121845171D02*
X118031578Y-121973742D01*
X118031578Y-121973742D02*
X118074435Y-122145171D01*
X118074435Y-122145171D02*
X118117292Y-122230885D01*
X118117292Y-122230885D02*
X118203007Y-122316600D01*
X118203007Y-122316600D02*
X118331578Y-122359457D01*
X118331578Y-122359457D02*
X118417292Y-122359457D01*
X118417292Y-122359457D02*
X118545864Y-122316600D01*
X118545864Y-122316600D02*
X118588721Y-122273742D01*
X118588721Y-122273742D02*
X118588721Y-121973742D01*
X118588721Y-121973742D02*
X118417292Y-121973742D01*
X119617292Y-122316600D02*
X119745864Y-122359457D01*
X119745864Y-122359457D02*
X119960149Y-122359457D01*
X119960149Y-122359457D02*
X120045864Y-122316600D01*
X120045864Y-122316600D02*
X120088721Y-122273742D01*
X120088721Y-122273742D02*
X120131578Y-122188028D01*
X120131578Y-122188028D02*
X120131578Y-122102314D01*
X120131578Y-122102314D02*
X120088721Y-122016600D01*
X120088721Y-122016600D02*
X120045864Y-121973742D01*
X120045864Y-121973742D02*
X119960149Y-121930885D01*
X119960149Y-121930885D02*
X119788721Y-121888028D01*
X119788721Y-121888028D02*
X119703006Y-121845171D01*
X119703006Y-121845171D02*
X119660149Y-121802314D01*
X119660149Y-121802314D02*
X119617292Y-121716600D01*
X119617292Y-121716600D02*
X119617292Y-121630885D01*
X119617292Y-121630885D02*
X119660149Y-121545171D01*
X119660149Y-121545171D02*
X119703006Y-121502314D01*
X119703006Y-121502314D02*
X119788721Y-121459457D01*
X119788721Y-121459457D02*
X120003006Y-121459457D01*
X120003006Y-121459457D02*
X120131578Y-121502314D01*
X120517292Y-122359457D02*
X120517292Y-121459457D01*
X120517292Y-121888028D02*
X121031578Y-121888028D01*
X121031578Y-122359457D02*
X121031578Y-121459457D01*
X121460149Y-122359457D02*
X121460149Y-121459457D01*
X121888720Y-121888028D02*
X122188720Y-121888028D01*
X122317292Y-122359457D02*
X121888720Y-122359457D01*
X121888720Y-122359457D02*
X121888720Y-121459457D01*
X121888720Y-121459457D02*
X122317292Y-121459457D01*
X123131578Y-122359457D02*
X122703006Y-122359457D01*
X122703006Y-122359457D02*
X122703006Y-121459457D01*
X123431577Y-122359457D02*
X123431577Y-121459457D01*
X123431577Y-121459457D02*
X123645863Y-121459457D01*
X123645863Y-121459457D02*
X123774434Y-121502314D01*
X123774434Y-121502314D02*
X123860149Y-121588028D01*
X123860149Y-121588028D02*
X123903006Y-121673742D01*
X123903006Y-121673742D02*
X123945863Y-121845171D01*
X123945863Y-121845171D02*
X123945863Y-121973742D01*
X123945863Y-121973742D02*
X123903006Y-122145171D01*
X123903006Y-122145171D02*
X123860149Y-122230885D01*
X123860149Y-122230885D02*
X123774434Y-122316600D01*
X123774434Y-122316600D02*
X123645863Y-122359457D01*
X123645863Y-122359457D02*
X123431577Y-122359457D01*
X125017291Y-122016600D02*
X125703006Y-122016600D01*
X126817291Y-122359457D02*
X126817291Y-121459457D01*
X126817291Y-121888028D02*
X127331577Y-121888028D01*
X127331577Y-122359457D02*
X127331577Y-121459457D01*
X127717291Y-121545171D02*
X127760148Y-121502314D01*
X127760148Y-121502314D02*
X127845863Y-121459457D01*
X127845863Y-121459457D02*
X128060148Y-121459457D01*
X128060148Y-121459457D02*
X128145863Y-121502314D01*
X128145863Y-121502314D02*
X128188720Y-121545171D01*
X128188720Y-121545171D02*
X128231577Y-121630885D01*
X128231577Y-121630885D02*
X128231577Y-121716600D01*
X128231577Y-121716600D02*
X128188720Y-121845171D01*
X128188720Y-121845171D02*
X127674434Y-122359457D01*
X127674434Y-122359457D02*
X128231577Y-122359457D01*
X128788720Y-121459457D02*
X128874434Y-121459457D01*
X128874434Y-121459457D02*
X128960148Y-121502314D01*
X128960148Y-121502314D02*
X129003006Y-121545171D01*
X129003006Y-121545171D02*
X129045863Y-121630885D01*
X129045863Y-121630885D02*
X129088720Y-121802314D01*
X129088720Y-121802314D02*
X129088720Y-122016600D01*
X129088720Y-122016600D02*
X129045863Y-122188028D01*
X129045863Y-122188028D02*
X129003006Y-122273742D01*
X129003006Y-122273742D02*
X128960148Y-122316600D01*
X128960148Y-122316600D02*
X128874434Y-122359457D01*
X128874434Y-122359457D02*
X128788720Y-122359457D01*
X128788720Y-122359457D02*
X128703006Y-122316600D01*
X128703006Y-122316600D02*
X128660148Y-122273742D01*
X128660148Y-122273742D02*
X128617291Y-122188028D01*
X128617291Y-122188028D02*
X128574434Y-122016600D01*
X128574434Y-122016600D02*
X128574434Y-121802314D01*
X128574434Y-121802314D02*
X128617291Y-121630885D01*
X128617291Y-121630885D02*
X128660148Y-121545171D01*
X128660148Y-121545171D02*
X128703006Y-121502314D01*
X128703006Y-121502314D02*
X128788720Y-121459457D01*
X129431577Y-121545171D02*
X129474434Y-121502314D01*
X129474434Y-121502314D02*
X129560149Y-121459457D01*
X129560149Y-121459457D02*
X129774434Y-121459457D01*
X129774434Y-121459457D02*
X129860149Y-121502314D01*
X129860149Y-121502314D02*
X129903006Y-121545171D01*
X129903006Y-121545171D02*
X129945863Y-121630885D01*
X129945863Y-121630885D02*
X129945863Y-121716600D01*
X129945863Y-121716600D02*
X129903006Y-121845171D01*
X129903006Y-121845171D02*
X129388720Y-122359457D01*
X129388720Y-122359457D02*
X129945863Y-122359457D01*
X130760149Y-121459457D02*
X130331577Y-121459457D01*
X130331577Y-121459457D02*
X130288720Y-121888028D01*
X130288720Y-121888028D02*
X130331577Y-121845171D01*
X130331577Y-121845171D02*
X130417292Y-121802314D01*
X130417292Y-121802314D02*
X130631577Y-121802314D01*
X130631577Y-121802314D02*
X130717292Y-121845171D01*
X130717292Y-121845171D02*
X130760149Y-121888028D01*
X130760149Y-121888028D02*
X130803006Y-121973742D01*
X130803006Y-121973742D02*
X130803006Y-122188028D01*
X130803006Y-122188028D02*
X130760149Y-122273742D01*
X130760149Y-122273742D02*
X130717292Y-122316600D01*
X130717292Y-122316600D02*
X130631577Y-122359457D01*
X130631577Y-122359457D02*
X130417292Y-122359457D01*
X130417292Y-122359457D02*
X130331577Y-122316600D01*
X130331577Y-122316600D02*
X130288720Y-122273742D01*
X116722054Y-129004656D02*
X116864911Y-129052275D01*
X116864911Y-129052275D02*
X117103006Y-129052275D01*
X117103006Y-129052275D02*
X117198244Y-129004656D01*
X117198244Y-129004656D02*
X117245863Y-128957036D01*
X117245863Y-128957036D02*
X117293482Y-128861798D01*
X117293482Y-128861798D02*
X117293482Y-128766560D01*
X117293482Y-128766560D02*
X117245863Y-128671322D01*
X117245863Y-128671322D02*
X117198244Y-128623703D01*
X117198244Y-128623703D02*
X117103006Y-128576084D01*
X117103006Y-128576084D02*
X116912530Y-128528465D01*
X116912530Y-128528465D02*
X116817292Y-128480846D01*
X116817292Y-128480846D02*
X116769673Y-128433227D01*
X116769673Y-128433227D02*
X116722054Y-128337989D01*
X116722054Y-128337989D02*
X116722054Y-128242751D01*
X116722054Y-128242751D02*
X116769673Y-128147513D01*
X116769673Y-128147513D02*
X116817292Y-128099894D01*
X116817292Y-128099894D02*
X116912530Y-128052275D01*
X116912530Y-128052275D02*
X117150625Y-128052275D01*
X117150625Y-128052275D02*
X117293482Y-128099894D01*
X117722054Y-128052275D02*
X117722054Y-128861798D01*
X117722054Y-128861798D02*
X117769673Y-128957036D01*
X117769673Y-128957036D02*
X117817292Y-129004656D01*
X117817292Y-129004656D02*
X117912530Y-129052275D01*
X117912530Y-129052275D02*
X118103006Y-129052275D01*
X118103006Y-129052275D02*
X118198244Y-129004656D01*
X118198244Y-129004656D02*
X118245863Y-128957036D01*
X118245863Y-128957036D02*
X118293482Y-128861798D01*
X118293482Y-128861798D02*
X118293482Y-128052275D01*
X118769673Y-129052275D02*
X118769673Y-128052275D01*
X118769673Y-128052275D02*
X119150625Y-128052275D01*
X119150625Y-128052275D02*
X119245863Y-128099894D01*
X119245863Y-128099894D02*
X119293482Y-128147513D01*
X119293482Y-128147513D02*
X119341101Y-128242751D01*
X119341101Y-128242751D02*
X119341101Y-128385608D01*
X119341101Y-128385608D02*
X119293482Y-128480846D01*
X119293482Y-128480846D02*
X119245863Y-128528465D01*
X119245863Y-128528465D02*
X119150625Y-128576084D01*
X119150625Y-128576084D02*
X118769673Y-128576084D01*
X119769673Y-128528465D02*
X120103006Y-128528465D01*
X120245863Y-129052275D02*
X119769673Y-129052275D01*
X119769673Y-129052275D02*
X119769673Y-128052275D01*
X119769673Y-128052275D02*
X120245863Y-128052275D01*
X121245863Y-129052275D02*
X120912530Y-128576084D01*
X120674435Y-129052275D02*
X120674435Y-128052275D01*
X120674435Y-128052275D02*
X121055387Y-128052275D01*
X121055387Y-128052275D02*
X121150625Y-128099894D01*
X121150625Y-128099894D02*
X121198244Y-128147513D01*
X121198244Y-128147513D02*
X121245863Y-128242751D01*
X121245863Y-128242751D02*
X121245863Y-128385608D01*
X121245863Y-128385608D02*
X121198244Y-128480846D01*
X121198244Y-128480846D02*
X121150625Y-128528465D01*
X121150625Y-128528465D02*
X121055387Y-128576084D01*
X121055387Y-128576084D02*
X120674435Y-128576084D01*
X121531578Y-128052275D02*
X121864911Y-129052275D01*
X121864911Y-129052275D02*
X122198244Y-128052275D01*
X122531578Y-129052275D02*
X122531578Y-128052275D01*
X122960149Y-129004656D02*
X123103006Y-129052275D01*
X123103006Y-129052275D02*
X123341101Y-129052275D01*
X123341101Y-129052275D02*
X123436339Y-129004656D01*
X123436339Y-129004656D02*
X123483958Y-128957036D01*
X123483958Y-128957036D02*
X123531577Y-128861798D01*
X123531577Y-128861798D02*
X123531577Y-128766560D01*
X123531577Y-128766560D02*
X123483958Y-128671322D01*
X123483958Y-128671322D02*
X123436339Y-128623703D01*
X123436339Y-128623703D02*
X123341101Y-128576084D01*
X123341101Y-128576084D02*
X123150625Y-128528465D01*
X123150625Y-128528465D02*
X123055387Y-128480846D01*
X123055387Y-128480846D02*
X123007768Y-128433227D01*
X123007768Y-128433227D02*
X122960149Y-128337989D01*
X122960149Y-128337989D02*
X122960149Y-128242751D01*
X122960149Y-128242751D02*
X123007768Y-128147513D01*
X123007768Y-128147513D02*
X123055387Y-128099894D01*
X123055387Y-128099894D02*
X123150625Y-128052275D01*
X123150625Y-128052275D02*
X123388720Y-128052275D01*
X123388720Y-128052275D02*
X123531577Y-128099894D01*
X123960149Y-128528465D02*
X124293482Y-128528465D01*
X124436339Y-129052275D02*
X123960149Y-129052275D01*
X123960149Y-129052275D02*
X123960149Y-128052275D01*
X123960149Y-128052275D02*
X124436339Y-128052275D01*
X124293482Y-127671322D02*
X124150625Y-127814179D01*
X125626816Y-129052275D02*
X125626816Y-128052275D01*
X125626816Y-128052275D02*
X126007768Y-128052275D01*
X126007768Y-128052275D02*
X126103006Y-128099894D01*
X126103006Y-128099894D02*
X126150625Y-128147513D01*
X126150625Y-128147513D02*
X126198244Y-128242751D01*
X126198244Y-128242751D02*
X126198244Y-128385608D01*
X126198244Y-128385608D02*
X126150625Y-128480846D01*
X126150625Y-128480846D02*
X126103006Y-128528465D01*
X126103006Y-128528465D02*
X126007768Y-128576084D01*
X126007768Y-128576084D02*
X125626816Y-128576084D01*
X126579197Y-128766560D02*
X127055387Y-128766560D01*
X126483959Y-129052275D02*
X126817292Y-128052275D01*
X126817292Y-128052275D02*
X127150625Y-129052275D01*
X128055387Y-129052275D02*
X127722054Y-128576084D01*
X127483959Y-129052275D02*
X127483959Y-128052275D01*
X127483959Y-128052275D02*
X127864911Y-128052275D01*
X127864911Y-128052275D02*
X127960149Y-128099894D01*
X127960149Y-128099894D02*
X128007768Y-128147513D01*
X128007768Y-128147513D02*
X128055387Y-128242751D01*
X128055387Y-128242751D02*
X128055387Y-128385608D01*
X128055387Y-128385608D02*
X128007768Y-128480846D01*
X128007768Y-128480846D02*
X127960149Y-128528465D01*
X127960149Y-128528465D02*
X127864911Y-128576084D01*
X127864911Y-128576084D02*
X127483959Y-128576084D01*
X116769673Y-130662219D02*
X116769673Y-129662219D01*
X117341101Y-130662219D02*
X116912530Y-130090790D01*
X117341101Y-129662219D02*
X116769673Y-130233647D01*
X118341101Y-130662219D02*
X118007768Y-130186028D01*
X117769673Y-130662219D02*
X117769673Y-129662219D01*
X117769673Y-129662219D02*
X118150625Y-129662219D01*
X118150625Y-129662219D02*
X118245863Y-129709838D01*
X118245863Y-129709838D02*
X118293482Y-129757457D01*
X118293482Y-129757457D02*
X118341101Y-129852695D01*
X118341101Y-129852695D02*
X118341101Y-129995552D01*
X118341101Y-129995552D02*
X118293482Y-130090790D01*
X118293482Y-130090790D02*
X118245863Y-130138409D01*
X118245863Y-130138409D02*
X118150625Y-130186028D01*
X118150625Y-130186028D02*
X117769673Y-130186028D01*
X118769673Y-130662219D02*
X118769673Y-129662219D01*
X119198244Y-130614600D02*
X119341101Y-130662219D01*
X119341101Y-130662219D02*
X119579196Y-130662219D01*
X119579196Y-130662219D02*
X119674434Y-130614600D01*
X119674434Y-130614600D02*
X119722053Y-130566980D01*
X119722053Y-130566980D02*
X119769672Y-130471742D01*
X119769672Y-130471742D02*
X119769672Y-130376504D01*
X119769672Y-130376504D02*
X119722053Y-130281266D01*
X119722053Y-130281266D02*
X119674434Y-130233647D01*
X119674434Y-130233647D02*
X119579196Y-130186028D01*
X119579196Y-130186028D02*
X119388720Y-130138409D01*
X119388720Y-130138409D02*
X119293482Y-130090790D01*
X119293482Y-130090790D02*
X119245863Y-130043171D01*
X119245863Y-130043171D02*
X119198244Y-129947933D01*
X119198244Y-129947933D02*
X119198244Y-129852695D01*
X119198244Y-129852695D02*
X119245863Y-129757457D01*
X119245863Y-129757457D02*
X119293482Y-129709838D01*
X119293482Y-129709838D02*
X119388720Y-129662219D01*
X119388720Y-129662219D02*
X119626815Y-129662219D01*
X119626815Y-129662219D02*
X119769672Y-129709838D01*
X120055387Y-129662219D02*
X120626815Y-129662219D01*
X120341101Y-130662219D02*
X120341101Y-129662219D01*
X120960149Y-130662219D02*
X120960149Y-129662219D01*
X121388720Y-130376504D02*
X121864910Y-130376504D01*
X121293482Y-130662219D02*
X121626815Y-129662219D01*
X121626815Y-129662219D02*
X121960148Y-130662219D01*
X122293482Y-130662219D02*
X122293482Y-129662219D01*
X122293482Y-129662219D02*
X122864910Y-130662219D01*
X122864910Y-130662219D02*
X122864910Y-129662219D01*
X124055387Y-130376504D02*
X124531577Y-130376504D01*
X123960149Y-130662219D02*
X124293482Y-129662219D01*
X124293482Y-129662219D02*
X124626815Y-130662219D01*
X125483958Y-129709838D02*
X125388720Y-129662219D01*
X125388720Y-129662219D02*
X125245863Y-129662219D01*
X125245863Y-129662219D02*
X125103006Y-129709838D01*
X125103006Y-129709838D02*
X125007768Y-129805076D01*
X125007768Y-129805076D02*
X124960149Y-129900314D01*
X124960149Y-129900314D02*
X124912530Y-130090790D01*
X124912530Y-130090790D02*
X124912530Y-130233647D01*
X124912530Y-130233647D02*
X124960149Y-130424123D01*
X124960149Y-130424123D02*
X125007768Y-130519361D01*
X125007768Y-130519361D02*
X125103006Y-130614600D01*
X125103006Y-130614600D02*
X125245863Y-130662219D01*
X125245863Y-130662219D02*
X125341101Y-130662219D01*
X125341101Y-130662219D02*
X125483958Y-130614600D01*
X125483958Y-130614600D02*
X125531577Y-130566980D01*
X125531577Y-130566980D02*
X125531577Y-130233647D01*
X125531577Y-130233647D02*
X125341101Y-130233647D01*
X126293482Y-130138409D02*
X126436339Y-130186028D01*
X126436339Y-130186028D02*
X126483958Y-130233647D01*
X126483958Y-130233647D02*
X126531577Y-130328885D01*
X126531577Y-130328885D02*
X126531577Y-130471742D01*
X126531577Y-130471742D02*
X126483958Y-130566980D01*
X126483958Y-130566980D02*
X126436339Y-130614600D01*
X126436339Y-130614600D02*
X126341101Y-130662219D01*
X126341101Y-130662219D02*
X125960149Y-130662219D01*
X125960149Y-130662219D02*
X125960149Y-129662219D01*
X125960149Y-129662219D02*
X126293482Y-129662219D01*
X126293482Y-129662219D02*
X126388720Y-129709838D01*
X126388720Y-129709838D02*
X126436339Y-129757457D01*
X126436339Y-129757457D02*
X126483958Y-129852695D01*
X126483958Y-129852695D02*
X126483958Y-129947933D01*
X126483958Y-129947933D02*
X126436339Y-130043171D01*
X126436339Y-130043171D02*
X126388720Y-130090790D01*
X126388720Y-130090790D02*
X126293482Y-130138409D01*
X126293482Y-130138409D02*
X125960149Y-130138409D01*
X127150625Y-129662219D02*
X127341101Y-129662219D01*
X127341101Y-129662219D02*
X127436339Y-129709838D01*
X127436339Y-129709838D02*
X127531577Y-129805076D01*
X127531577Y-129805076D02*
X127579196Y-129995552D01*
X127579196Y-129995552D02*
X127579196Y-130328885D01*
X127579196Y-130328885D02*
X127531577Y-130519361D01*
X127531577Y-130519361D02*
X127436339Y-130614600D01*
X127436339Y-130614600D02*
X127341101Y-130662219D01*
X127341101Y-130662219D02*
X127150625Y-130662219D01*
X127150625Y-130662219D02*
X127055387Y-130614600D01*
X127055387Y-130614600D02*
X126960149Y-130519361D01*
X126960149Y-130519361D02*
X126912530Y-130328885D01*
X126912530Y-130328885D02*
X126912530Y-129995552D01*
X126912530Y-129995552D02*
X126960149Y-129805076D01*
X126960149Y-129805076D02*
X127055387Y-129709838D01*
X127055387Y-129709838D02*
X127150625Y-129662219D01*
X128531577Y-129709838D02*
X128436339Y-129662219D01*
X128436339Y-129662219D02*
X128293482Y-129662219D01*
X128293482Y-129662219D02*
X128150625Y-129709838D01*
X128150625Y-129709838D02*
X128055387Y-129805076D01*
X128055387Y-129805076D02*
X128007768Y-129900314D01*
X128007768Y-129900314D02*
X127960149Y-130090790D01*
X127960149Y-130090790D02*
X127960149Y-130233647D01*
X127960149Y-130233647D02*
X128007768Y-130424123D01*
X128007768Y-130424123D02*
X128055387Y-130519361D01*
X128055387Y-130519361D02*
X128150625Y-130614600D01*
X128150625Y-130614600D02*
X128293482Y-130662219D01*
X128293482Y-130662219D02*
X128388720Y-130662219D01*
X128388720Y-130662219D02*
X128531577Y-130614600D01*
X128531577Y-130614600D02*
X128579196Y-130566980D01*
X128579196Y-130566980D02*
X128579196Y-130233647D01*
X128579196Y-130233647D02*
X128388720Y-130233647D01*
X129341101Y-130138409D02*
X129483958Y-130186028D01*
X129483958Y-130186028D02*
X129531577Y-130233647D01*
X129531577Y-130233647D02*
X129579196Y-130328885D01*
X129579196Y-130328885D02*
X129579196Y-130471742D01*
X129579196Y-130471742D02*
X129531577Y-130566980D01*
X129531577Y-130566980D02*
X129483958Y-130614600D01*
X129483958Y-130614600D02*
X129388720Y-130662219D01*
X129388720Y-130662219D02*
X129007768Y-130662219D01*
X129007768Y-130662219D02*
X129007768Y-129662219D01*
X129007768Y-129662219D02*
X129341101Y-129662219D01*
X129341101Y-129662219D02*
X129436339Y-129709838D01*
X129436339Y-129709838D02*
X129483958Y-129757457D01*
X129483958Y-129757457D02*
X129531577Y-129852695D01*
X129531577Y-129852695D02*
X129531577Y-129947933D01*
X129531577Y-129947933D02*
X129483958Y-130043171D01*
X129483958Y-130043171D02*
X129436339Y-130090790D01*
X129436339Y-130090790D02*
X129341101Y-130138409D01*
X129341101Y-130138409D02*
X129007768Y-130138409D01*
X129960149Y-130376504D02*
X130436339Y-130376504D01*
X129864911Y-130662219D02*
X130198244Y-129662219D01*
X130198244Y-129662219D02*
X130531577Y-130662219D01*
D13*
G36*
X122427382Y-81455839D02*
G01*
X122427443Y-81583088D01*
X122427628Y-81697585D01*
X122427938Y-81799555D01*
X122428377Y-81889220D01*
X122428947Y-81966803D01*
X122429648Y-82032529D01*
X122430485Y-82086621D01*
X122431458Y-82129302D01*
X122432571Y-82160796D01*
X122433825Y-82181326D01*
X122434596Y-82188157D01*
X122447899Y-82248545D01*
X122467507Y-82299792D01*
X122492955Y-82340970D01*
X122523778Y-82371149D01*
X122527526Y-82373791D01*
X122542040Y-82383372D01*
X122555457Y-82391060D01*
X122569400Y-82397085D01*
X122585494Y-82401677D01*
X122605363Y-82405067D01*
X122630631Y-82407484D01*
X122662923Y-82409158D01*
X122703862Y-82410319D01*
X122755073Y-82411197D01*
X122795568Y-82411737D01*
X122991826Y-82414233D01*
X122991826Y-82598636D01*
X122991826Y-82783039D01*
X122750153Y-82782186D01*
X122693410Y-82781857D01*
X122639080Y-82781298D01*
X122588938Y-82780545D01*
X122544758Y-82779635D01*
X122508314Y-82778605D01*
X122481382Y-82777489D01*
X122466202Y-82776381D01*
X122381478Y-82760950D01*
X122303952Y-82735482D01*
X122234215Y-82700244D01*
X122172856Y-82655504D01*
X122147793Y-82631996D01*
X122099000Y-82573530D01*
X122058478Y-82505458D01*
X122026100Y-82427537D01*
X122007171Y-82362836D01*
X121989939Y-82293205D01*
X121987860Y-81573030D01*
X121985781Y-80852855D01*
X122188740Y-80814864D01*
X122239179Y-80805422D01*
X122286176Y-80796624D01*
X122328034Y-80788788D01*
X122363057Y-80782231D01*
X122389549Y-80777270D01*
X122405815Y-80774224D01*
X122409540Y-80773526D01*
X122427382Y-80770178D01*
X122427382Y-81455839D01*
G37*
G36*
X127075791Y-81309249D02*
G01*
X127086886Y-81312903D01*
X127094837Y-81320425D01*
X127100156Y-81333094D01*
X127103352Y-81352189D01*
X127104938Y-81378991D01*
X127105423Y-81414779D01*
X127105319Y-81460832D01*
X127105137Y-81518430D01*
X127105134Y-81525587D01*
X127105134Y-81733518D01*
X127090536Y-81729510D01*
X127065163Y-81724899D01*
X127031428Y-81721948D01*
X126993852Y-81720775D01*
X126956958Y-81721495D01*
X126925266Y-81724222D01*
X126919225Y-81725139D01*
X126857534Y-81741223D01*
X126804189Y-81767208D01*
X126759303Y-81803005D01*
X126722984Y-81848526D01*
X126695343Y-81903682D01*
X126694268Y-81906488D01*
X126691455Y-81914255D01*
X126689047Y-81922252D01*
X126687006Y-81931516D01*
X126685293Y-81943085D01*
X126683873Y-81957997D01*
X126682707Y-81977290D01*
X126681758Y-82002002D01*
X126680989Y-82033170D01*
X126680362Y-82071832D01*
X126679840Y-82119025D01*
X126679385Y-82175788D01*
X126678961Y-82243159D01*
X126678529Y-82322174D01*
X126678400Y-82346730D01*
X126676298Y-82750600D01*
X126456711Y-82750600D01*
X126237124Y-82750600D01*
X126233270Y-82077484D01*
X126232701Y-81984384D01*
X126232082Y-81894449D01*
X126231424Y-81808588D01*
X126230735Y-81727713D01*
X126230026Y-81652734D01*
X126229307Y-81584565D01*
X126228588Y-81524115D01*
X126227879Y-81472295D01*
X126227191Y-81430018D01*
X126226533Y-81398193D01*
X126225915Y-81377734D01*
X126225474Y-81370306D01*
X126221532Y-81336245D01*
X126410182Y-81336245D01*
X126598833Y-81336245D01*
X126601789Y-81350842D01*
X126603137Y-81361875D01*
X126605051Y-81383463D01*
X126607345Y-81413205D01*
X126609831Y-81448704D01*
X126611982Y-81482019D01*
X126614428Y-81519472D01*
X126616795Y-81552203D01*
X126618912Y-81578110D01*
X126620608Y-81595093D01*
X126621650Y-81601028D01*
X126625286Y-81596755D01*
X126632828Y-81583255D01*
X126642856Y-81563131D01*
X126646313Y-81555816D01*
X126684137Y-81488682D01*
X126730545Y-81431212D01*
X126785852Y-81383069D01*
X126839750Y-81349414D01*
X126896315Y-81325596D01*
X126957834Y-81312208D01*
X127018536Y-81308695D01*
X127042127Y-81308424D01*
X127061042Y-81308182D01*
X127075791Y-81309249D01*
G37*
G36*
X130784666Y-81001662D02*
G01*
X130786685Y-81010812D01*
X130788190Y-81027507D01*
X130789239Y-81052932D01*
X130789889Y-81088269D01*
X130790197Y-81134703D01*
X130790242Y-81167560D01*
X130790242Y-81336245D01*
X130945951Y-81336245D01*
X131101660Y-81336245D01*
X131101660Y-81498441D01*
X131101660Y-81660638D01*
X130945951Y-81660638D01*
X130790242Y-81660638D01*
X130790242Y-81901068D01*
X130790400Y-81974010D01*
X130790945Y-82035400D01*
X130791982Y-82086660D01*
X130793619Y-82129210D01*
X130795961Y-82164471D01*
X130799115Y-82193865D01*
X130803187Y-82218812D01*
X130808284Y-82240734D01*
X130814511Y-82261052D01*
X130817876Y-82270498D01*
X130839720Y-82317417D01*
X130867320Y-82354187D01*
X130901749Y-82381472D01*
X130944079Y-82399936D01*
X130995385Y-82410245D01*
X131048135Y-82413096D01*
X131095172Y-82413231D01*
X131095172Y-82598135D01*
X131095172Y-82783039D01*
X130983256Y-82782186D01*
X130942722Y-82781601D01*
X130903270Y-82780537D01*
X130868188Y-82779117D01*
X130840761Y-82777465D01*
X130829062Y-82776381D01*
X130743060Y-82760725D01*
X130664993Y-82734927D01*
X130595070Y-82699154D01*
X130533499Y-82653572D01*
X130480489Y-82598346D01*
X130436248Y-82533643D01*
X130400984Y-82459628D01*
X130389031Y-82426206D01*
X130381266Y-82402140D01*
X130374726Y-82380636D01*
X130369294Y-82360329D01*
X130364856Y-82339851D01*
X130361294Y-82317835D01*
X130358493Y-82292912D01*
X130356337Y-82263715D01*
X130354709Y-82228877D01*
X130353494Y-82187031D01*
X130352576Y-82136809D01*
X130351839Y-82076843D01*
X130351167Y-82005766D01*
X130350916Y-81976922D01*
X130348186Y-81660638D01*
X130254553Y-81660638D01*
X130160919Y-81660638D01*
X130160919Y-81498441D01*
X130160919Y-81336245D01*
X130254993Y-81336245D01*
X130349067Y-81336245D01*
X130349067Y-81206487D01*
X130349388Y-81158282D01*
X130350329Y-81120614D01*
X130351855Y-81094148D01*
X130353934Y-81079546D01*
X130355600Y-81076730D01*
X130363350Y-81075564D01*
X130382282Y-81072258D01*
X130410830Y-81067099D01*
X130447428Y-81060373D01*
X130490511Y-81052368D01*
X130538514Y-81043369D01*
X130568022Y-81037803D01*
X130618253Y-81028352D01*
X130664555Y-81019729D01*
X130705346Y-81012222D01*
X130739046Y-81006117D01*
X130764071Y-81001704D01*
X130778842Y-80999268D01*
X130782077Y-80998876D01*
X130784666Y-81001662D01*
G37*
G36*
X129568882Y-81311513D02*
G01*
X129624121Y-81319254D01*
X129675581Y-81333196D01*
X129727483Y-81354258D01*
X129739208Y-81359854D01*
X129771119Y-81376432D01*
X129796858Y-81392687D01*
X129820910Y-81411887D01*
X129847764Y-81437298D01*
X129853572Y-81443118D01*
X129880318Y-81471245D01*
X129900540Y-81496024D01*
X129917650Y-81522246D01*
X129935063Y-81554700D01*
X129939622Y-81563857D01*
X129967364Y-81627301D01*
X129987575Y-81691184D01*
X130001841Y-81760783D01*
X130004770Y-81780449D01*
X130006239Y-81797965D01*
X130007549Y-81827940D01*
X130008692Y-81869853D01*
X130009663Y-81923189D01*
X130010453Y-81987430D01*
X130011056Y-82062058D01*
X130011465Y-82146555D01*
X130011672Y-82240405D01*
X130011698Y-82290431D01*
X130011698Y-82750600D01*
X129791111Y-82750600D01*
X129570523Y-82750600D01*
X129570474Y-82333754D01*
X129570358Y-82247825D01*
X129570037Y-82168656D01*
X129569523Y-82097076D01*
X129568830Y-82033915D01*
X129567968Y-81980001D01*
X129566950Y-81936163D01*
X129565788Y-81903231D01*
X129564495Y-81882033D01*
X129563807Y-81876122D01*
X129550267Y-81817142D01*
X129530221Y-81768762D01*
X129503086Y-81730038D01*
X129468275Y-81700022D01*
X129447241Y-81687694D01*
X129426817Y-81677603D01*
X129410736Y-81671420D01*
X129394757Y-81668364D01*
X129374636Y-81667656D01*
X129346131Y-81668518D01*
X129343448Y-81668628D01*
X129310668Y-81670643D01*
X129286605Y-81674094D01*
X129267015Y-81679853D01*
X129249261Y-81687954D01*
X129205445Y-81717514D01*
X129167940Y-81756653D01*
X129138700Y-81802730D01*
X129119680Y-81853101D01*
X129116471Y-81867513D01*
X129115112Y-81881423D01*
X129113886Y-81907577D01*
X129112804Y-81945248D01*
X129111876Y-81993704D01*
X129111112Y-82052217D01*
X129110523Y-82120056D01*
X129110120Y-82196492D01*
X129109912Y-82280795D01*
X129109885Y-82326530D01*
X129109885Y-82750600D01*
X128889956Y-82750600D01*
X128670027Y-82750600D01*
X128666369Y-82070996D01*
X128665829Y-81977608D01*
X128665233Y-81887491D01*
X128664593Y-81801543D01*
X128663917Y-81720656D01*
X128663216Y-81645728D01*
X128662500Y-81577654D01*
X128661779Y-81517328D01*
X128661062Y-81465646D01*
X128660359Y-81423503D01*
X128659681Y-81391796D01*
X128659038Y-81371418D01*
X128658532Y-81363721D01*
X128654353Y-81336050D01*
X128848057Y-81337769D01*
X129041762Y-81339489D01*
X129052565Y-81436807D01*
X129056358Y-81470803D01*
X129059643Y-81499928D01*
X129062158Y-81521890D01*
X129063644Y-81534396D01*
X129063919Y-81536390D01*
X129067740Y-81532731D01*
X129077358Y-81520993D01*
X129090859Y-81503533D01*
X129093924Y-81499472D01*
X129131232Y-81456382D01*
X129175712Y-81417726D01*
X129229119Y-81381666D01*
X129292534Y-81348698D01*
X129358216Y-81326058D01*
X129428744Y-81313071D01*
X129505645Y-81309057D01*
X129568882Y-81311513D01*
G37*
G36*
X127984206Y-81312890D02*
G01*
X128064947Y-81326399D01*
X128139433Y-81348233D01*
X128172218Y-81361648D01*
X128241965Y-81400224D01*
X128306226Y-81449705D01*
X128363533Y-81508657D01*
X128412418Y-81575645D01*
X128438307Y-81621481D01*
X128473327Y-81703798D01*
X128499516Y-81793840D01*
X128516580Y-81889560D01*
X128524224Y-81988911D01*
X128522154Y-82089846D01*
X128515255Y-82156843D01*
X128511237Y-82186155D01*
X128054209Y-82186155D01*
X127597181Y-82186155D01*
X127601729Y-82207241D01*
X127620175Y-82263637D01*
X127649562Y-82313301D01*
X127689574Y-82355951D01*
X127739895Y-82391307D01*
X127800208Y-82419090D01*
X127860970Y-82436976D01*
X127885085Y-82441775D01*
X127910577Y-82445086D01*
X127940309Y-82447097D01*
X127977141Y-82447999D01*
X128023934Y-82447982D01*
X128026411Y-82447962D01*
X128111719Y-82445074D01*
X128188707Y-82437531D01*
X128261387Y-82424725D01*
X128333765Y-82406053D01*
X128362306Y-82397201D01*
X128391123Y-82388087D01*
X128415685Y-82380693D01*
X128433205Y-82375835D01*
X128440629Y-82374304D01*
X128443161Y-82378301D01*
X128445121Y-82390901D01*
X128446553Y-82413016D01*
X128447501Y-82445560D01*
X128448006Y-82489445D01*
X128448122Y-82532465D01*
X128448122Y-82690627D01*
X128410817Y-82703948D01*
X128314581Y-82733299D01*
X128210567Y-82755952D01*
X128102375Y-82771445D01*
X127993605Y-82779318D01*
X127887859Y-82779110D01*
X127844751Y-82776464D01*
X127740625Y-82762795D01*
X127644344Y-82739385D01*
X127556205Y-82706461D01*
X127476507Y-82664250D01*
X127405548Y-82612980D01*
X127343628Y-82552877D01*
X127291044Y-82484168D01*
X127248095Y-82407081D01*
X127215079Y-82321843D01*
X127205989Y-82290368D01*
X127185996Y-82193342D01*
X127177077Y-82096704D01*
X127178782Y-82001419D01*
X127190658Y-81908448D01*
X127197212Y-81881226D01*
X127597071Y-81881226D01*
X127853912Y-81881226D01*
X128110753Y-81881226D01*
X128110676Y-81853652D01*
X128104919Y-81801691D01*
X128088893Y-81751285D01*
X128064034Y-81704872D01*
X128031775Y-81664893D01*
X127993551Y-81633787D01*
X127975435Y-81623648D01*
X127957141Y-81615408D01*
X127940596Y-81610155D01*
X127921924Y-81607221D01*
X127897248Y-81605943D01*
X127870702Y-81605664D01*
X127838254Y-81605955D01*
X127814875Y-81607444D01*
X127796669Y-81610761D01*
X127779742Y-81616535D01*
X127766118Y-81622588D01*
X127719015Y-81651600D01*
X127677701Y-81690905D01*
X127643527Y-81738603D01*
X127617847Y-81792794D01*
X127602013Y-81851577D01*
X127601660Y-81853652D01*
X127597071Y-81881226D01*
X127197212Y-81881226D01*
X127212253Y-81818756D01*
X127243116Y-81733305D01*
X127282795Y-81653059D01*
X127330837Y-81578980D01*
X127386791Y-81512032D01*
X127450205Y-81453178D01*
X127520626Y-81403381D01*
X127597604Y-81363604D01*
X127650115Y-81343846D01*
X127730164Y-81323183D01*
X127814243Y-81311194D01*
X127899781Y-81307792D01*
X127984206Y-81312890D01*
G37*
G36*
X125780388Y-81337781D02*
G01*
X125998953Y-81339489D01*
X126002196Y-82036934D01*
X126002682Y-82131073D01*
X126003241Y-82221620D01*
X126003865Y-82307727D01*
X126004542Y-82388541D01*
X126005263Y-82463213D01*
X126006017Y-82530891D01*
X126006794Y-82590724D01*
X126007584Y-82641863D01*
X126008377Y-82683455D01*
X126009161Y-82714651D01*
X126009928Y-82734599D01*
X126010667Y-82742449D01*
X126010689Y-82742490D01*
X126009757Y-82744873D01*
X126002804Y-82746769D01*
X125988724Y-82748224D01*
X125966415Y-82749287D01*
X125934770Y-82750005D01*
X125892685Y-82750424D01*
X125839055Y-82750591D01*
X125820919Y-82750600D01*
X125765394Y-82750556D01*
X125721491Y-82750372D01*
X125687854Y-82749968D01*
X125663129Y-82749267D01*
X125645962Y-82748189D01*
X125634998Y-82746655D01*
X125628883Y-82744587D01*
X125626262Y-82741906D01*
X125625771Y-82739246D01*
X125625001Y-82726241D01*
X125623081Y-82704741D01*
X125620329Y-82677557D01*
X125617067Y-82647499D01*
X125613611Y-82617379D01*
X125610282Y-82590007D01*
X125607399Y-82568195D01*
X125605281Y-82554754D01*
X125604495Y-82551860D01*
X125599706Y-82555086D01*
X125590599Y-82566290D01*
X125585429Y-82573674D01*
X125544614Y-82624048D01*
X125493572Y-82670136D01*
X125434789Y-82710250D01*
X125370752Y-82742702D01*
X125303947Y-82765804D01*
X125301507Y-82766444D01*
X125265722Y-82773207D01*
X125221371Y-82777821D01*
X125172705Y-82780172D01*
X125123973Y-82780144D01*
X125079426Y-82777620D01*
X125047584Y-82773344D01*
X124990734Y-82759719D01*
X124941048Y-82741002D01*
X124893034Y-82714971D01*
X124875658Y-82703754D01*
X124822326Y-82660482D01*
X124775478Y-82606827D01*
X124736016Y-82544123D01*
X124704847Y-82473701D01*
X124691714Y-82432694D01*
X124685821Y-82410898D01*
X124680689Y-82389737D01*
X124676263Y-82368179D01*
X124672493Y-82345190D01*
X124669326Y-82319736D01*
X124666710Y-82290783D01*
X124664593Y-82257299D01*
X124662921Y-82218249D01*
X124661644Y-82172600D01*
X124660709Y-82119318D01*
X124660063Y-82057370D01*
X124659654Y-81985722D01*
X124659431Y-81903341D01*
X124659341Y-81809193D01*
X124659335Y-81792017D01*
X124659208Y-81336245D01*
X124879457Y-81336245D01*
X125099706Y-81336245D01*
X125102083Y-81769310D01*
X125102588Y-81858847D01*
X125103099Y-81936426D01*
X125103692Y-82003063D01*
X125104440Y-82059775D01*
X125105419Y-82107579D01*
X125106703Y-82147491D01*
X125108366Y-82180529D01*
X125110485Y-82207709D01*
X125113132Y-82230049D01*
X125116383Y-82248564D01*
X125120312Y-82264273D01*
X125124995Y-82278191D01*
X125130505Y-82291336D01*
X125136917Y-82304724D01*
X125142148Y-82315112D01*
X125163910Y-82351797D01*
X125187966Y-82378663D01*
X125217291Y-82398851D01*
X125225572Y-82403114D01*
X125273650Y-82419595D01*
X125325147Y-82424505D01*
X125377089Y-82417565D01*
X125377698Y-82417410D01*
X125428228Y-82398603D01*
X125471122Y-82369779D01*
X125506995Y-82330406D01*
X125536332Y-82280229D01*
X125557778Y-82234814D01*
X125559800Y-81785444D01*
X125561823Y-81336073D01*
X125780388Y-81337781D01*
G37*
G36*
X123885701Y-81308421D02*
G01*
X123895779Y-81309261D01*
X123990687Y-81322148D01*
X124075673Y-81343262D01*
X124151057Y-81372863D01*
X124217160Y-81411209D01*
X124274301Y-81458562D01*
X124322800Y-81515179D01*
X124362977Y-81581321D01*
X124395152Y-81657247D01*
X124417015Y-81732005D01*
X124419147Y-81742666D01*
X124421030Y-81756508D01*
X124422695Y-81774498D01*
X124424174Y-81797604D01*
X124425497Y-81826791D01*
X124426697Y-81863027D01*
X124427805Y-81907278D01*
X124428853Y-81960512D01*
X124429871Y-82023696D01*
X124430891Y-82097795D01*
X124431945Y-82183777D01*
X124432086Y-82195887D01*
X124433309Y-82293007D01*
X124434603Y-82378008D01*
X124436003Y-82451749D01*
X124437548Y-82515086D01*
X124439274Y-82568877D01*
X124441218Y-82613980D01*
X124443417Y-82651252D01*
X124445908Y-82681550D01*
X124448728Y-82705731D01*
X124451915Y-82724654D01*
X124455504Y-82739176D01*
X124455526Y-82739246D01*
X124455802Y-82742432D01*
X124453619Y-82744960D01*
X124447665Y-82746908D01*
X124436628Y-82748349D01*
X124419198Y-82749359D01*
X124394065Y-82750014D01*
X124359916Y-82750389D01*
X124315442Y-82750559D01*
X124259330Y-82750600D01*
X124257997Y-82750600D01*
X124057036Y-82750600D01*
X124046181Y-82687343D01*
X124041243Y-82659339D01*
X124036813Y-82635619D01*
X124033520Y-82619465D01*
X124032359Y-82614802D01*
X124027209Y-82613159D01*
X124015267Y-82620762D01*
X123995921Y-82638021D01*
X123992333Y-82641478D01*
X123939326Y-82686729D01*
X123883071Y-82721908D01*
X123820641Y-82748570D01*
X123757145Y-82766480D01*
X123709214Y-82774677D01*
X123655610Y-82779322D01*
X123601259Y-82780272D01*
X123551082Y-82777381D01*
X123522887Y-82773346D01*
X123448846Y-82753206D01*
X123381941Y-82722884D01*
X123322748Y-82683390D01*
X123271844Y-82635738D01*
X123229805Y-82580940D01*
X123197210Y-82520010D01*
X123174634Y-82453959D01*
X123162655Y-82383801D01*
X123161849Y-82310548D01*
X123163490Y-82299249D01*
X123599740Y-82299249D01*
X123604509Y-82348843D01*
X123619406Y-82390652D01*
X123644115Y-82424256D01*
X123678321Y-82449234D01*
X123721707Y-82465164D01*
X123724955Y-82465902D01*
X123755286Y-82468934D01*
X123791531Y-82467233D01*
X123827733Y-82461301D01*
X123848287Y-82455464D01*
X123893307Y-82433791D01*
X123933659Y-82402975D01*
X123966724Y-82365525D01*
X123989881Y-82323948D01*
X123992310Y-82317588D01*
X123996933Y-82301481D01*
X124000177Y-82281533D01*
X124002246Y-82255349D01*
X124003345Y-82220532D01*
X124003664Y-82184533D01*
X124003933Y-82082349D01*
X123985157Y-82082349D01*
X123970803Y-82082992D01*
X123947317Y-82084721D01*
X123918469Y-82087240D01*
X123899193Y-82089105D01*
X123822030Y-82100391D01*
X123756276Y-82117569D01*
X123701969Y-82140614D01*
X123659147Y-82169499D01*
X123627847Y-82204198D01*
X123608108Y-82244683D01*
X123599967Y-82290929D01*
X123599740Y-82299249D01*
X123163490Y-82299249D01*
X123172793Y-82235213D01*
X123187069Y-82183830D01*
X123215824Y-82117562D01*
X123255853Y-82057099D01*
X123306712Y-82002677D01*
X123367954Y-81954532D01*
X123439134Y-81912900D01*
X123519807Y-81878018D01*
X123609527Y-81850122D01*
X123707848Y-81829448D01*
X123814325Y-81816232D01*
X123888774Y-81811714D01*
X123990958Y-81807921D01*
X123990958Y-81789056D01*
X123984978Y-81744717D01*
X123967459Y-81705557D01*
X123939035Y-81672257D01*
X123900339Y-81645499D01*
X123852003Y-81625962D01*
X123835249Y-81621500D01*
X123805583Y-81616834D01*
X123767012Y-81614195D01*
X123723446Y-81613581D01*
X123678796Y-81614994D01*
X123636973Y-81618433D01*
X123614661Y-81621502D01*
X123554205Y-81634819D01*
X123487745Y-81655279D01*
X123419103Y-81681544D01*
X123352098Y-81712279D01*
X123345382Y-81715676D01*
X123264317Y-81757067D01*
X123264317Y-81592679D01*
X123264317Y-81428291D01*
X123334061Y-81398966D01*
X123439290Y-81360868D01*
X123549899Y-81332313D01*
X123663058Y-81313752D01*
X123775935Y-81305637D01*
X123885701Y-81308421D01*
G37*
D14*
X137487500Y-117100000D03*
X139312500Y-117100000D03*
D15*
X155925000Y-106400000D03*
X154100000Y-106400000D03*
D16*
X195350000Y-86350000D03*
D17*
X192810000Y-86350000D03*
X190270000Y-86350000D03*
X187730000Y-86350000D03*
X185190000Y-86350000D03*
X182650000Y-86350000D03*
X180110000Y-86350000D03*
X177570000Y-86350000D03*
X175030000Y-86350000D03*
X172490000Y-86350000D03*
X169950000Y-86350000D03*
X167410000Y-86350000D03*
X164870000Y-86350000D03*
X162330000Y-86350000D03*
X159790000Y-86350000D03*
X157250000Y-86350000D03*
X154710000Y-86350000D03*
X152170000Y-86350000D03*
X149630000Y-86350000D03*
D16*
X195350000Y-111750000D03*
D17*
X192810000Y-111750000D03*
X190270000Y-111750000D03*
X187730000Y-111750000D03*
X185190000Y-111750000D03*
X182650000Y-111750000D03*
X180110000Y-111750000D03*
X177570000Y-111750000D03*
X175030000Y-111750000D03*
X172490000Y-111750000D03*
X169950000Y-111750000D03*
X167410000Y-111750000D03*
X164870000Y-111750000D03*
X162330000Y-111750000D03*
X159790000Y-111750000D03*
X157250000Y-111750000D03*
X154710000Y-111750000D03*
X152170000Y-111750000D03*
X149630000Y-111750000D03*
D18*
X132287500Y-87377500D03*
X132287500Y-89102500D03*
D19*
X153250000Y-117875000D03*
X153250000Y-116125000D03*
X176540000Y-117895000D03*
X176540000Y-116145000D03*
D20*
X123337500Y-90230000D03*
X121612500Y-90230000D03*
D19*
X189390000Y-82252500D03*
X189390000Y-80502500D03*
D14*
X159927500Y-119460000D03*
X161752500Y-119460000D03*
X121550000Y-103990000D03*
X123375000Y-103990000D03*
D21*
X159710000Y-79700000D03*
D22*
X121600000Y-111650000D03*
X123325000Y-111650000D03*
D23*
X131920000Y-108310000D03*
X131920000Y-106585000D03*
D21*
X195180000Y-107590000D03*
X195180000Y-104220000D03*
D16*
X179440000Y-121970000D03*
D17*
X179440000Y-124510000D03*
X176900000Y-121970000D03*
X176900000Y-124510000D03*
X174360000Y-121970000D03*
X174360000Y-124510000D03*
X171820000Y-121970000D03*
X171820000Y-124510000D03*
X169280000Y-121970000D03*
X169280000Y-124510000D03*
X166740000Y-121970000D03*
X166740000Y-124510000D03*
X164200000Y-121970000D03*
X164200000Y-124510000D03*
X161660000Y-121970000D03*
X161660000Y-124510000D03*
X159120000Y-121970000D03*
X159120000Y-124510000D03*
X156580000Y-121970000D03*
X156580000Y-124510000D03*
X154040000Y-121970000D03*
X154040000Y-124510000D03*
X151500000Y-121970000D03*
X151500000Y-124510000D03*
D24*
X167410000Y-105790000D03*
X167410000Y-107615000D03*
D21*
X166440000Y-79700000D03*
D14*
X121567500Y-88710000D03*
X123392500Y-88710000D03*
D25*
X179470000Y-116430000D03*
X181220000Y-116430000D03*
D21*
X142360000Y-114440000D03*
D26*
X136440000Y-130500000D03*
D27*
X136440000Y-130500000D03*
D28*
X196070000Y-117850000D03*
X196070000Y-123100000D03*
X192870000Y-117850000D03*
X192870000Y-123100000D03*
D14*
X121547500Y-100910000D03*
X123372500Y-100910000D03*
D19*
X169870000Y-117870000D03*
X169870000Y-116120000D03*
D14*
X153257500Y-119460000D03*
X155082500Y-119460000D03*
X127375000Y-89150000D03*
X129200000Y-89150000D03*
D22*
X137877500Y-106190000D03*
X139602500Y-106190000D03*
D21*
X142360000Y-117780000D03*
D14*
X121557500Y-94810000D03*
X123382500Y-94810000D03*
D29*
X137910000Y-111005000D03*
X137910000Y-107880000D03*
D21*
X195180000Y-93490000D03*
D19*
X156600000Y-117900000D03*
X156600000Y-116150000D03*
D28*
X189930000Y-117850000D03*
X189930000Y-123100000D03*
X186730000Y-117850000D03*
X186730000Y-123100000D03*
D26*
X136440000Y-81500000D03*
D27*
X136440000Y-81500000D03*
D21*
X163090000Y-79700000D03*
D30*
X187810000Y-82292500D03*
X187810000Y-80467500D03*
D31*
X133690000Y-106630000D03*
X133690000Y-108705000D03*
D20*
X123325000Y-108590000D03*
X121600000Y-108590000D03*
D18*
X135480000Y-106570000D03*
X135480000Y-108295000D03*
D14*
X124207500Y-116220000D03*
X126032500Y-116220000D03*
D24*
X168950000Y-105787500D03*
X168950000Y-107612500D03*
D23*
X149620000Y-83462500D03*
X149620000Y-81737500D03*
D14*
X121547500Y-110120000D03*
X123372500Y-110120000D03*
D32*
X129770000Y-94350000D03*
X129770000Y-94849999D03*
X129770000Y-95350000D03*
X129770000Y-95849999D03*
X129770000Y-96350001D03*
X129770000Y-96850000D03*
X129770000Y-97349999D03*
X129770000Y-97850000D03*
X129770000Y-98350000D03*
X129770000Y-98850001D03*
X129770000Y-99350000D03*
X129770000Y-99849999D03*
X129770000Y-100350001D03*
X129770000Y-100850000D03*
X129770000Y-101350001D03*
X129770000Y-101850000D03*
D33*
X131798500Y-103878500D03*
X132298499Y-103878500D03*
X132798500Y-103878500D03*
X133298499Y-103878500D03*
X133798501Y-103878500D03*
X134298500Y-103878500D03*
X134798499Y-103878500D03*
X135298500Y-103878500D03*
X135798500Y-103878500D03*
X136298501Y-103878500D03*
X136798500Y-103878500D03*
X137298499Y-103878500D03*
X137798501Y-103878500D03*
X138298500Y-103878500D03*
X138798501Y-103878500D03*
X139298500Y-103878500D03*
D32*
X141327000Y-101850000D03*
X141327000Y-101350001D03*
X141327000Y-100850000D03*
X141327000Y-100350001D03*
X141327000Y-99849999D03*
X141327000Y-99350000D03*
X141327000Y-98850001D03*
X141327000Y-98350000D03*
X141327000Y-97850000D03*
X141327000Y-97349999D03*
X141327000Y-96850000D03*
X141327000Y-96350001D03*
X141327000Y-95849999D03*
X141327000Y-95350000D03*
X141327000Y-94849999D03*
X141327000Y-94350000D03*
D33*
X139298500Y-92321500D03*
X138798501Y-92321500D03*
X138298500Y-92321500D03*
X137798501Y-92321500D03*
X137298499Y-92321500D03*
X136798500Y-92321500D03*
X136298501Y-92321500D03*
X135798500Y-92321500D03*
X135298500Y-92321500D03*
X134798499Y-92321500D03*
X134298500Y-92321500D03*
X133798501Y-92321500D03*
X133298499Y-92321500D03*
X132798500Y-92321500D03*
X132298499Y-92321500D03*
X131798500Y-92321500D03*
D14*
X121552500Y-97850000D03*
X123377500Y-97850000D03*
D23*
X138930000Y-89102500D03*
X138930000Y-87377500D03*
D21*
X195180000Y-100680000D03*
D19*
X163260000Y-117932500D03*
X163260000Y-116182500D03*
D21*
X142360000Y-124480000D03*
D19*
X159920000Y-117895000D03*
X159920000Y-116145000D03*
D21*
X173150000Y-79700000D03*
X142360000Y-111140000D03*
X179850000Y-79700000D03*
D18*
X134340000Y-88135000D03*
X134340000Y-89860000D03*
D23*
X141920000Y-90732500D03*
X141920000Y-89007500D03*
D14*
X169867500Y-119460000D03*
X171692500Y-119460000D03*
X166547500Y-119470000D03*
X168372500Y-119470000D03*
X121550000Y-107050000D03*
X123375000Y-107050000D03*
X120785000Y-114670000D03*
X122610000Y-114670000D03*
D18*
X135870000Y-88135000D03*
X135870000Y-89860000D03*
D19*
X173160000Y-117870000D03*
X173160000Y-116120000D03*
D26*
X194440000Y-130500000D03*
D27*
X194440000Y-130500000D03*
D21*
X132660000Y-117780000D03*
D14*
X173187500Y-119460000D03*
X175012500Y-119460000D03*
D24*
X130757500Y-87327500D03*
X130757500Y-89152500D03*
D14*
X117407500Y-116220000D03*
X119232500Y-116220000D03*
D21*
X169800000Y-79700000D03*
D14*
X179427500Y-118000000D03*
X181252500Y-118000000D03*
D21*
X176500000Y-79700000D03*
X195180000Y-90080000D03*
D19*
X166560000Y-117872500D03*
X166560000Y-116122500D03*
D21*
X183210000Y-79700000D03*
X120363678Y-85800000D03*
D14*
X120785000Y-116220000D03*
X122610000Y-116220000D03*
D20*
X123332500Y-96330000D03*
X121607500Y-96330000D03*
D22*
X121607500Y-93280000D03*
X123332500Y-93280000D03*
D21*
X142360000Y-121110000D03*
X156370000Y-79700000D03*
D14*
X121562500Y-91760000D03*
X123387500Y-91760000D03*
D26*
X194440000Y-81500000D03*
D27*
X194440000Y-81500000D03*
D22*
X121597500Y-99390000D03*
X123322500Y-99390000D03*
D23*
X143470000Y-90742500D03*
X143470000Y-89017500D03*
D14*
X163247500Y-119470000D03*
X165072500Y-119470000D03*
D20*
X123322500Y-102450000D03*
X121597500Y-102450000D03*
D14*
X176527500Y-119460000D03*
X178352500Y-119460000D03*
X117407500Y-114670000D03*
X119232500Y-114670000D03*
D18*
X127610000Y-116277500D03*
X127610000Y-118002500D03*
D23*
X137400000Y-89105000D03*
X137400000Y-87380000D03*
D16*
X115199000Y-90689999D03*
D17*
X117739000Y-90689999D03*
X115199000Y-93229999D03*
X117739000Y-93229999D03*
X115199000Y-95769999D03*
X117739000Y-95769999D03*
X115199000Y-98309999D03*
X117739000Y-98309999D03*
X115199000Y-100849999D03*
X117739000Y-100849999D03*
X115199000Y-103389999D03*
X117739000Y-103389999D03*
X115199000Y-105929999D03*
X117739000Y-105929999D03*
X115199000Y-108469999D03*
X117739000Y-108469999D03*
D14*
X156587500Y-119470000D03*
X158412500Y-119470000D03*
D22*
X121600000Y-105520000D03*
X123325000Y-105520000D03*
D16*
X189540000Y-129210000D03*
D17*
X189540000Y-131750000D03*
X187000000Y-129210000D03*
X187000000Y-131750000D03*
X184460000Y-129210000D03*
X184460000Y-131750000D03*
X181920000Y-129210000D03*
X181920000Y-131750000D03*
X179380000Y-129210000D03*
X179380000Y-131750000D03*
X176840000Y-129210000D03*
X176840000Y-131750000D03*
X174300000Y-129210000D03*
X174300000Y-131750000D03*
X171760000Y-129210000D03*
X171760000Y-131750000D03*
X169220000Y-129210000D03*
X169220000Y-131750000D03*
X166680000Y-129210000D03*
X166680000Y-131750000D03*
X164140000Y-129210000D03*
X164140000Y-131750000D03*
X161600000Y-129210000D03*
X161600000Y-131750000D03*
X159060000Y-129210000D03*
X159060000Y-131750000D03*
X156520000Y-129210000D03*
X156520000Y-131750000D03*
X153980000Y-129210000D03*
X153980000Y-131750000D03*
X151440000Y-129210000D03*
X151440000Y-131750000D03*
X148900000Y-129210000D03*
X148900000Y-131750000D03*
X146360000Y-129210000D03*
X146360000Y-131750000D03*
X143820000Y-129210000D03*
X143820000Y-131750000D03*
X141280000Y-129210000D03*
X141280000Y-131750000D03*
M02*
