G04 #@! TF.GenerationSoftware,KiCad,Pcbnew,9.0.1-9.0.1-0~ubuntu24.04.1*
G04 #@! TF.CreationDate,2025-04-10T02:26:27-04:00*
G04 #@! TF.ProjectId,EEG SHIELD,45454720-5348-4494-954c-442e6b696361,B*
G04 #@! TF.SameCoordinates,Original*
G04 #@! TF.FileFunction,Paste,Top*
G04 #@! TF.FilePolarity,Positive*
%FSLAX46Y46*%
G04 Gerber Fmt 4.6, Leading zero omitted, Abs format (unit mm)*
G04 Created by KiCad (PCBNEW 9.0.1-9.0.1-0~ubuntu24.04.1) date 2025-04-10 02:26:27*
%MOMM*%
%LPD*%
G01*
G04 APERTURE LIST*
G04 Aperture macros list*
%AMRoundRect*
0 Rectangle with rounded corners*
0 $1 Rounding radius*
0 $2 $3 $4 $5 $6 $7 $8 $9 X,Y pos of 4 corners*
0 Add a 4 corners polygon primitive as box body*
4,1,4,$2,$3,$4,$5,$6,$7,$8,$9,$2,$3,0*
0 Add four circle primitives for the rounded corners*
1,1,$1+$1,$2,$3*
1,1,$1+$1,$4,$5*
1,1,$1+$1,$6,$7*
1,1,$1+$1,$8,$9*
0 Add four rect primitives between the rounded corners*
20,1,$1+$1,$2,$3,$4,$5,0*
20,1,$1+$1,$4,$5,$6,$7,0*
20,1,$1+$1,$6,$7,$8,$9,0*
20,1,$1+$1,$8,$9,$2,$3,0*%
G04 Aperture macros list end*
%ADD10RoundRect,0.237500X-0.250000X-0.237500X0.250000X-0.237500X0.250000X0.237500X-0.250000X0.237500X0*%
%ADD11RoundRect,0.237500X0.250000X0.237500X-0.250000X0.237500X-0.250000X-0.237500X0.250000X-0.237500X0*%
%ADD12RoundRect,0.237500X-0.237500X0.300000X-0.237500X-0.300000X0.237500X-0.300000X0.237500X0.300000X0*%
%ADD13RoundRect,0.237500X0.237500X-0.287500X0.237500X0.287500X-0.237500X0.287500X-0.237500X-0.287500X0*%
%ADD14RoundRect,0.237500X0.300000X0.237500X-0.300000X0.237500X-0.300000X-0.237500X0.300000X-0.237500X0*%
%ADD15RoundRect,0.237500X-0.300000X-0.237500X0.300000X-0.237500X0.300000X0.237500X-0.300000X0.237500X0*%
%ADD16RoundRect,0.237500X0.237500X-0.300000X0.237500X0.300000X-0.237500X0.300000X-0.237500X-0.300000X0*%
%ADD17RoundRect,0.237500X-0.237500X0.250000X-0.237500X-0.250000X0.237500X-0.250000X0.237500X0.250000X0*%
%ADD18RoundRect,0.237500X-0.287500X-0.237500X0.287500X-0.237500X0.287500X0.237500X-0.287500X0.237500X0*%
%ADD19R,1.000000X1.550000*%
%ADD20RoundRect,0.250000X1.100000X-0.412500X1.100000X0.412500X-1.100000X0.412500X-1.100000X-0.412500X0*%
%ADD21RoundRect,0.237500X0.237500X-0.250000X0.237500X0.250000X-0.237500X0.250000X-0.237500X-0.250000X0*%
%ADD22RoundRect,0.250000X-0.475000X0.337500X-0.475000X-0.337500X0.475000X-0.337500X0.475000X0.337500X0*%
%ADD23R,1.346200X0.279400*%
%ADD24R,0.279400X1.346200*%
G04 APERTURE END LIST*
D10*
X137487500Y-117100000D03*
X139312500Y-117100000D03*
D11*
X155925000Y-106400000D03*
X154100000Y-106400000D03*
D12*
X132287500Y-87377500D03*
X132287500Y-89102500D03*
D13*
X153250000Y-117875000D03*
X153250000Y-116125000D03*
X176540000Y-117895000D03*
X176540000Y-116145000D03*
D14*
X123337500Y-90230000D03*
X121612500Y-90230000D03*
D13*
X189390000Y-82252500D03*
X189390000Y-80502500D03*
D10*
X159927500Y-119460000D03*
X161752500Y-119460000D03*
X121550000Y-103990000D03*
X123375000Y-103990000D03*
D15*
X121600000Y-111650000D03*
X123325000Y-111650000D03*
D16*
X131920000Y-108310000D03*
X131920000Y-106585000D03*
D17*
X167410000Y-105790000D03*
X167410000Y-107615000D03*
D10*
X121567500Y-88710000D03*
X123392500Y-88710000D03*
D18*
X179470000Y-116430000D03*
X181220000Y-116430000D03*
D19*
X196070000Y-117850000D03*
X196070000Y-123100000D03*
X192870000Y-117850000D03*
X192870000Y-123100000D03*
D10*
X121547500Y-100910000D03*
X123372500Y-100910000D03*
D13*
X169870000Y-117870000D03*
X169870000Y-116120000D03*
D10*
X153257500Y-119460000D03*
X155082500Y-119460000D03*
X127375000Y-89150000D03*
X129200000Y-89150000D03*
D15*
X137877500Y-106190000D03*
X139602500Y-106190000D03*
D10*
X121557500Y-94810000D03*
X123382500Y-94810000D03*
D20*
X137910000Y-111005000D03*
X137910000Y-107880000D03*
D13*
X156600000Y-117900000D03*
X156600000Y-116150000D03*
D19*
X189930000Y-117850000D03*
X189930000Y-123100000D03*
X186730000Y-117850000D03*
X186730000Y-123100000D03*
D21*
X187810000Y-82292500D03*
X187810000Y-80467500D03*
D22*
X133690000Y-106630000D03*
X133690000Y-108705000D03*
D14*
X123325000Y-108590000D03*
X121600000Y-108590000D03*
D12*
X135480000Y-106570000D03*
X135480000Y-108295000D03*
D10*
X124207500Y-116220000D03*
X126032500Y-116220000D03*
D17*
X168950000Y-105787500D03*
X168950000Y-107612500D03*
D16*
X149620000Y-83462500D03*
X149620000Y-81737500D03*
D10*
X121547500Y-110120000D03*
X123372500Y-110120000D03*
D23*
X129770000Y-94350000D03*
X129770000Y-94849999D03*
X129770000Y-95350000D03*
X129770000Y-95849999D03*
X129770000Y-96350001D03*
X129770000Y-96850000D03*
X129770000Y-97349999D03*
X129770000Y-97850000D03*
X129770000Y-98350000D03*
X129770000Y-98850001D03*
X129770000Y-99350000D03*
X129770000Y-99849999D03*
X129770000Y-100350001D03*
X129770000Y-100850000D03*
X129770000Y-101350001D03*
X129770000Y-101850000D03*
D24*
X131798500Y-103878500D03*
X132298499Y-103878500D03*
X132798500Y-103878500D03*
X133298499Y-103878500D03*
X133798501Y-103878500D03*
X134298500Y-103878500D03*
X134798499Y-103878500D03*
X135298500Y-103878500D03*
X135798500Y-103878500D03*
X136298501Y-103878500D03*
X136798500Y-103878500D03*
X137298499Y-103878500D03*
X137798501Y-103878500D03*
X138298500Y-103878500D03*
X138798501Y-103878500D03*
X139298500Y-103878500D03*
D23*
X141327000Y-101850000D03*
X141327000Y-101350001D03*
X141327000Y-100850000D03*
X141327000Y-100350001D03*
X141327000Y-99849999D03*
X141327000Y-99350000D03*
X141327000Y-98850001D03*
X141327000Y-98350000D03*
X141327000Y-97850000D03*
X141327000Y-97349999D03*
X141327000Y-96850000D03*
X141327000Y-96350001D03*
X141327000Y-95849999D03*
X141327000Y-95350000D03*
X141327000Y-94849999D03*
X141327000Y-94350000D03*
D24*
X139298500Y-92321500D03*
X138798501Y-92321500D03*
X138298500Y-92321500D03*
X137798501Y-92321500D03*
X137298499Y-92321500D03*
X136798500Y-92321500D03*
X136298501Y-92321500D03*
X135798500Y-92321500D03*
X135298500Y-92321500D03*
X134798499Y-92321500D03*
X134298500Y-92321500D03*
X133798501Y-92321500D03*
X133298499Y-92321500D03*
X132798500Y-92321500D03*
X132298499Y-92321500D03*
X131798500Y-92321500D03*
D10*
X121552500Y-97850000D03*
X123377500Y-97850000D03*
D16*
X138930000Y-89102500D03*
X138930000Y-87377500D03*
D13*
X163260000Y-117932500D03*
X163260000Y-116182500D03*
X159920000Y-117895000D03*
X159920000Y-116145000D03*
D12*
X134340000Y-88135000D03*
X134340000Y-89860000D03*
D16*
X141920000Y-90732500D03*
X141920000Y-89007500D03*
D10*
X169867500Y-119460000D03*
X171692500Y-119460000D03*
X166547500Y-119470000D03*
X168372500Y-119470000D03*
X121550000Y-107050000D03*
X123375000Y-107050000D03*
X120785000Y-114670000D03*
X122610000Y-114670000D03*
D12*
X135870000Y-88135000D03*
X135870000Y-89860000D03*
D13*
X173160000Y-117870000D03*
X173160000Y-116120000D03*
D10*
X173187500Y-119460000D03*
X175012500Y-119460000D03*
D17*
X130757500Y-87327500D03*
X130757500Y-89152500D03*
D10*
X117407500Y-116220000D03*
X119232500Y-116220000D03*
X179427500Y-118000000D03*
X181252500Y-118000000D03*
D13*
X166560000Y-117872500D03*
X166560000Y-116122500D03*
D10*
X120785000Y-116220000D03*
X122610000Y-116220000D03*
D14*
X123332500Y-96330000D03*
X121607500Y-96330000D03*
D15*
X121607500Y-93280000D03*
X123332500Y-93280000D03*
D10*
X121562500Y-91760000D03*
X123387500Y-91760000D03*
D15*
X121597500Y-99390000D03*
X123322500Y-99390000D03*
D16*
X143470000Y-90742500D03*
X143470000Y-89017500D03*
D10*
X163247500Y-119470000D03*
X165072500Y-119470000D03*
D14*
X123322500Y-102450000D03*
X121597500Y-102450000D03*
D10*
X176527500Y-119460000D03*
X178352500Y-119460000D03*
X117407500Y-114670000D03*
X119232500Y-114670000D03*
D12*
X127610000Y-116277500D03*
X127610000Y-118002500D03*
D16*
X137400000Y-89105000D03*
X137400000Y-87380000D03*
D10*
X156587500Y-119470000D03*
X158412500Y-119470000D03*
D15*
X121600000Y-105520000D03*
X123325000Y-105520000D03*
M02*
