%TF.GenerationSoftware,KiCad,Pcbnew,9.0.1-9.0.1-0~ubuntu24.04.1*%
%TF.CreationDate,2025-04-10T02:26:30-04:00*%
%TF.ProjectId,EEG SHIELD,45454720-5348-4494-954c-442e6b696361,B*%
%TF.SameCoordinates,Original*%
%TF.FileFunction,Drillmap*%
%TF.FilePolarity,Positive*%
%FSLAX45Y45*%
G04 Gerber Fmt 4.5, Leading zero omitted, Abs format (unit mm)*
G04 Created by KiCad (PCBNEW 9.0.1-9.0.1-0~ubuntu24.04.1) date 2025-04-10 02:26:30*
%MOMM*%
%LPD*%
G01*
G04 APERTURE LIST*
%ADD10C,0.050000*%
%ADD11C,0.200000*%
%ADD12C,0.100000*%
%ADD13C,0.270000*%
G04 APERTURE END LIST*
D10*
X19494000Y-7800000D02*
X11594000Y-7800000D01*
X11294000Y-8100000D02*
G75*
G02*
X11594000Y-7800000I300000J0D01*
G01*
X11594000Y-13400000D02*
G75*
G02*
X11294000Y-13100000I0J300000D01*
G01*
X19794000Y-13100000D02*
G75*
G02*
X19494000Y-13400000I-300000J0D01*
G01*
X19794000Y-13100000D02*
X19794000Y-8100000D01*
X11594000Y-13400000D02*
X19494000Y-13400000D01*
X11294000Y-8100000D02*
X11294000Y-13100000D01*
X19494000Y-7800000D02*
G75*
G02*
X19794000Y-8100000I0J-300000D01*
G01*
D11*
D12*
X12017000Y-9008000D02*
X12047000Y-9038000D01*
X12047000Y-9008000D02*
X12017000Y-9038000D01*
X12017000Y-9313000D02*
X12047000Y-9343000D01*
X12047000Y-9313000D02*
X12017000Y-9343000D01*
X12017000Y-9618000D02*
X12047000Y-9648000D01*
X12047000Y-9618000D02*
X12017000Y-9648000D01*
X12017000Y-9924000D02*
X12047000Y-9954000D01*
X12047000Y-9924000D02*
X12017000Y-9954000D01*
X12017000Y-10230000D02*
X12047000Y-10260000D01*
X12047000Y-10230000D02*
X12017000Y-10260000D01*
X12017000Y-10537000D02*
X12047000Y-10567000D01*
X12047000Y-10537000D02*
X12017000Y-10567000D01*
X12017000Y-10844000D02*
X12047000Y-10874000D01*
X12047000Y-10844000D02*
X12017000Y-10874000D01*
X12017000Y-11150000D02*
X12047000Y-11180000D01*
X12047000Y-11150000D02*
X12017000Y-11180000D01*
X12625000Y-11785000D02*
X12655000Y-11815000D01*
X12655000Y-11785000D02*
X12625000Y-11815000D01*
X12723000Y-9009000D02*
X12753000Y-9039000D01*
X12753000Y-9009000D02*
X12723000Y-9039000D01*
X12723000Y-11098000D02*
X12753000Y-11128000D01*
X12753000Y-11098000D02*
X12723000Y-11128000D01*
X13061000Y-9212000D02*
X13091000Y-9242000D01*
X13091000Y-9212000D02*
X13061000Y-9242000D01*
X13096000Y-9420000D02*
X13126000Y-9450000D01*
X13126000Y-9420000D02*
X13096000Y-9450000D01*
X13142000Y-9556000D02*
X13172000Y-9586000D01*
X13172000Y-9556000D02*
X13142000Y-9586000D01*
X13177000Y-10938000D02*
X13207000Y-10968000D01*
X13207000Y-10938000D02*
X13177000Y-10968000D01*
X13314000Y-10509000D02*
X13344000Y-10539000D01*
X13344000Y-10509000D02*
X13314000Y-10539000D01*
X13354000Y-11048000D02*
X13384000Y-11078000D01*
X13384000Y-11048000D02*
X13354000Y-11078000D01*
X13365000Y-10264000D02*
X13395000Y-10294000D01*
X13395000Y-10264000D02*
X13365000Y-10294000D01*
X13389000Y-9069000D02*
X13419000Y-9099000D01*
X13419000Y-9069000D02*
X13389000Y-9099000D01*
X13411000Y-9318000D02*
X13441000Y-9348000D01*
X13441000Y-9318000D02*
X13411000Y-9348000D01*
X13418000Y-8684000D02*
X13448000Y-8714000D01*
X13448000Y-8684000D02*
X13418000Y-8714000D01*
X13456000Y-9905000D02*
X13486000Y-9935000D01*
X13486000Y-9905000D02*
X13456000Y-9935000D01*
X13466000Y-10270000D02*
X13496000Y-10300000D01*
X13496000Y-10270000D02*
X13466000Y-10300000D01*
X13508000Y-9815000D02*
X13538000Y-9845000D01*
X13538000Y-9815000D02*
X13508000Y-9845000D01*
X13509000Y-9322000D02*
X13539000Y-9352000D01*
X13539000Y-9322000D02*
X13509000Y-9352000D01*
X13533000Y-10989000D02*
X13563000Y-11019000D01*
X13563000Y-10989000D02*
X13533000Y-11019000D01*
X13572000Y-8653000D02*
X13602000Y-8683000D01*
X13602000Y-8653000D02*
X13572000Y-8683000D01*
X13576000Y-11227000D02*
X13606000Y-11257000D01*
X13606000Y-11227000D02*
X13576000Y-11257000D01*
X13625000Y-11695000D02*
X13655000Y-11725000D01*
X13655000Y-11695000D02*
X13625000Y-11725000D01*
X13664000Y-9321000D02*
X13694000Y-9351000D01*
X13694000Y-9321000D02*
X13664000Y-9351000D01*
X13751020Y-9334460D02*
X13781020Y-9364460D01*
X13781020Y-9334460D02*
X13751020Y-9364460D01*
X13844000Y-9770000D02*
X13874000Y-9800000D01*
X13874000Y-9770000D02*
X13844000Y-9800000D01*
X13864900Y-10505071D02*
X13894900Y-10535071D01*
X13894900Y-10505071D02*
X13864900Y-10535071D01*
X13996000Y-9768000D02*
X14026000Y-9798000D01*
X14026000Y-9768000D02*
X13996000Y-9798000D01*
X14012000Y-9187000D02*
X14042000Y-9217000D01*
X14042000Y-9187000D02*
X14012000Y-9217000D01*
X14025000Y-11695000D02*
X14055000Y-11725000D01*
X14055000Y-11695000D02*
X14025000Y-11725000D01*
X14117000Y-10243000D02*
X14147000Y-10273000D01*
X14147000Y-10243000D02*
X14117000Y-10273000D01*
X14175000Y-8765000D02*
X14205000Y-8795000D01*
X14205000Y-8765000D02*
X14175000Y-8795000D01*
X14332000Y-8778000D02*
X14362000Y-8808000D01*
X14362000Y-8778000D02*
X14332000Y-8808000D01*
X14457000Y-9980000D02*
X14487000Y-10010000D01*
X14487000Y-9980000D02*
X14457000Y-10010000D01*
X14460000Y-9760000D02*
X14490000Y-9790000D01*
X14490000Y-9760000D02*
X14460000Y-9790000D01*
X14463000Y-9639000D02*
X14493000Y-9669000D01*
X14493000Y-9639000D02*
X14463000Y-9669000D01*
X14464000Y-9365000D02*
X14494000Y-9395000D01*
X14494000Y-9365000D02*
X14464000Y-9395000D01*
X14464000Y-9518000D02*
X14494000Y-9548000D01*
X14494000Y-9518000D02*
X14464000Y-9548000D01*
X14591000Y-11413000D02*
X14621000Y-11443000D01*
X14621000Y-11413000D02*
X14591000Y-11443000D01*
X14598500Y-10655500D02*
X14628500Y-10685500D01*
X14628500Y-10655500D02*
X14598500Y-10685500D01*
X14603000Y-9059000D02*
X14633000Y-9089000D01*
X14633000Y-9059000D02*
X14603000Y-9089000D01*
X14803000Y-9139000D02*
X14833000Y-9169000D01*
X14833000Y-9139000D02*
X14803000Y-9169000D01*
X14803000Y-10320000D02*
X14833000Y-10350000D01*
X14833000Y-10320000D02*
X14803000Y-10350000D01*
X14947000Y-8039000D02*
X14977000Y-8069000D01*
X14977000Y-8039000D02*
X14947000Y-8069000D01*
X15278875Y-10629000D02*
X15308875Y-10659000D01*
X15308875Y-10629000D02*
X15278875Y-10659000D01*
X15532000Y-11824000D02*
X15562000Y-11854000D01*
X15562000Y-11824000D02*
X15532000Y-11854000D01*
X15604000Y-9880000D02*
X15634000Y-9910000D01*
X15634000Y-9880000D02*
X15604000Y-9910000D01*
X15708000Y-12021000D02*
X15738000Y-12051000D01*
X15738000Y-12021000D02*
X15708000Y-12051000D01*
X15708875Y-10629000D02*
X15738875Y-10659000D01*
X15738875Y-10629000D02*
X15708875Y-10659000D01*
X15863000Y-11829000D02*
X15893000Y-11859000D01*
X15893000Y-11829000D02*
X15863000Y-11859000D01*
X15897000Y-10448000D02*
X15927000Y-10478000D01*
X15927000Y-10448000D02*
X15897000Y-10478000D01*
X16200000Y-11825000D02*
X16230000Y-11855000D01*
X16230000Y-11825000D02*
X16200000Y-11855000D01*
X16530000Y-11825000D02*
X16560000Y-11855000D01*
X16560000Y-11825000D02*
X16530000Y-11855000D01*
X16619000Y-10747000D02*
X16649000Y-10777000D01*
X16649000Y-10747000D02*
X16619000Y-10777000D01*
X16727000Y-10113000D02*
X16757000Y-10143000D01*
X16757000Y-10113000D02*
X16727000Y-10143000D01*
X16727000Y-10464000D02*
X16757000Y-10494000D01*
X16757000Y-10464000D02*
X16727000Y-10494000D01*
X16789000Y-10034000D02*
X16819000Y-10064000D01*
X16819000Y-10034000D02*
X16789000Y-10064000D01*
X16859000Y-11794000D02*
X16889000Y-11824000D01*
X16889000Y-11794000D02*
X16859000Y-11824000D01*
X16880000Y-10450000D02*
X16910000Y-10480000D01*
X16910000Y-10450000D02*
X16880000Y-10480000D01*
X16901000Y-9953000D02*
X16931000Y-9983000D01*
X16931000Y-9953000D02*
X16901000Y-9983000D01*
X16915427Y-10112427D02*
X16945427Y-10142427D01*
X16945427Y-10112427D02*
X16915427Y-10142427D01*
X16965000Y-8163000D02*
X16995000Y-8193000D01*
X16995000Y-8163000D02*
X16965000Y-8193000D01*
X16985000Y-9493000D02*
X17015000Y-9523000D01*
X17015000Y-9493000D02*
X16985000Y-9523000D01*
X16986000Y-10747000D02*
X17016000Y-10777000D01*
X17016000Y-10747000D02*
X16986000Y-10777000D01*
X17013074Y-10033927D02*
X17043074Y-10063927D01*
X17043074Y-10033927D02*
X17013074Y-10063927D01*
X17097000Y-10251000D02*
X17127000Y-10281000D01*
X17127000Y-10251000D02*
X17097000Y-10281000D01*
X17171000Y-11796000D02*
X17201000Y-11826000D01*
X17201000Y-11796000D02*
X17171000Y-11826000D01*
X17197000Y-9952927D02*
X17227000Y-9982927D01*
X17227000Y-9952927D02*
X17197000Y-9982927D01*
X17235000Y-8332000D02*
X17265000Y-8362000D01*
X17265000Y-8332000D02*
X17235000Y-8362000D01*
X17431000Y-10502000D02*
X17461000Y-10532000D01*
X17461000Y-10502000D02*
X17431000Y-10532000D01*
X17489000Y-8483000D02*
X17519000Y-8513000D01*
X17519000Y-8483000D02*
X17489000Y-8513000D01*
X17495000Y-10076000D02*
X17525000Y-10106000D01*
X17525000Y-10076000D02*
X17495000Y-10106000D01*
X17516000Y-11744000D02*
X17546000Y-11774000D01*
X17546000Y-11744000D02*
X17516000Y-11774000D01*
X17647000Y-9797000D02*
X17677000Y-9827000D01*
X17677000Y-9797000D02*
X17647000Y-9827000D01*
X17782000Y-11758000D02*
X17812000Y-11788000D01*
X17812000Y-11758000D02*
X17782000Y-11788000D01*
X17814000Y-10582000D02*
X17844000Y-10612000D01*
X17844000Y-10582000D02*
X17814000Y-10612000D01*
X17841000Y-9767000D02*
X17871000Y-9797000D01*
X17871000Y-9767000D02*
X17841000Y-9797000D01*
X17978000Y-10553000D02*
X18008000Y-10583000D01*
X18008000Y-10553000D02*
X17978000Y-10583000D01*
X18124000Y-12737000D02*
X18154000Y-12767000D01*
X18154000Y-12737000D02*
X18124000Y-12767000D01*
X18217000Y-11784000D02*
X18247000Y-11814000D01*
X18247000Y-11784000D02*
X18217000Y-11814000D01*
X18218000Y-11628000D02*
X18248000Y-11658000D01*
X18248000Y-11628000D02*
X18218000Y-11658000D01*
X18232000Y-10553000D02*
X18262000Y-10583000D01*
X18262000Y-10553000D02*
X18232000Y-10583000D01*
X18262000Y-9302000D02*
X18292000Y-9332000D01*
X18292000Y-9302000D02*
X18262000Y-9332000D01*
X18288000Y-9710000D02*
X18318000Y-9740000D01*
X18318000Y-9710000D02*
X18288000Y-9740000D01*
X18288000Y-9793000D02*
X18318000Y-9823000D01*
X18318000Y-9793000D02*
X18288000Y-9823000D01*
X18289000Y-9223000D02*
X18319000Y-9253000D01*
X18319000Y-9223000D02*
X18289000Y-9253000D01*
X18293000Y-12602000D02*
X18323000Y-12632000D01*
X18323000Y-12602000D02*
X18293000Y-12632000D01*
X18293000Y-12727000D02*
X18323000Y-12757000D01*
X18323000Y-12727000D02*
X18293000Y-12757000D01*
X18320000Y-9134000D02*
X18350000Y-9164000D01*
X18350000Y-9134000D02*
X18320000Y-9164000D01*
X18338000Y-10084000D02*
X18368000Y-10114000D01*
X18368000Y-10084000D02*
X18338000Y-10114000D01*
X18381000Y-11626000D02*
X18411000Y-11656000D01*
X18411000Y-11626000D02*
X18381000Y-11656000D01*
X18508000Y-12040000D02*
X18538000Y-12070000D01*
X18538000Y-12040000D02*
X18508000Y-12070000D01*
X18513000Y-9398000D02*
X18543000Y-9428000D01*
X18543000Y-9398000D02*
X18513000Y-9428000D01*
X18670000Y-9555000D02*
X18700000Y-9585000D01*
X18700000Y-9555000D02*
X18670000Y-9585000D01*
X18721000Y-10508000D02*
X18751000Y-10538000D01*
X18751000Y-10508000D02*
X18721000Y-10538000D01*
X18766000Y-7931000D02*
X18796000Y-7961000D01*
X18796000Y-7931000D02*
X18766000Y-7961000D01*
X18924000Y-7930000D02*
X18954000Y-7960000D01*
X18954000Y-7930000D02*
X18924000Y-7960000D01*
X18961000Y-12066000D02*
X18991000Y-12096000D01*
X18991000Y-12066000D02*
X18961000Y-12096000D01*
X18962000Y-9484000D02*
X18992000Y-9514000D01*
X18992000Y-9484000D02*
X18962000Y-9514000D01*
X18987000Y-10348000D02*
X19017000Y-10378000D01*
X19017000Y-10348000D02*
X18987000Y-10378000D01*
X19102000Y-9334000D02*
X19132000Y-9364000D01*
X19132000Y-9334000D02*
X19102000Y-9364000D01*
X19102000Y-11775250D02*
X19132000Y-11805250D01*
X19132000Y-11775250D02*
X19102000Y-11805250D01*
X19235000Y-9789000D02*
X19265000Y-9819000D01*
X19265000Y-9789000D02*
X19235000Y-9819000D01*
X19282000Y-9611000D02*
X19312000Y-9641000D01*
X19312000Y-9611000D02*
X19282000Y-9641000D01*
X19408000Y-11793000D02*
X19438000Y-11823000D01*
X19438000Y-11793000D02*
X19408000Y-11823000D01*
X19413000Y-12381000D02*
X19443000Y-12411000D01*
X19443000Y-12381000D02*
X19413000Y-12411000D01*
X19686000Y-12248000D02*
X19716000Y-12278000D01*
X19716000Y-12248000D02*
X19686000Y-12278000D01*
X11569900Y-9069000D02*
G75*
G02*
X11469900Y-9069000I-50000J0D01*
G01*
X11469900Y-9069000D02*
G75*
G02*
X11569900Y-9069000I50000J0D01*
G01*
X11569900Y-9323000D02*
G75*
G02*
X11469900Y-9323000I-50000J0D01*
G01*
X11469900Y-9323000D02*
G75*
G02*
X11569900Y-9323000I50000J0D01*
G01*
X11569900Y-9577000D02*
G75*
G02*
X11469900Y-9577000I-50000J0D01*
G01*
X11469900Y-9577000D02*
G75*
G02*
X11569900Y-9577000I50000J0D01*
G01*
X11569900Y-9831000D02*
G75*
G02*
X11469900Y-9831000I-50000J0D01*
G01*
X11469900Y-9831000D02*
G75*
G02*
X11569900Y-9831000I50000J0D01*
G01*
X11569900Y-10085000D02*
G75*
G02*
X11469900Y-10085000I-50000J0D01*
G01*
X11469900Y-10085000D02*
G75*
G02*
X11569900Y-10085000I50000J0D01*
G01*
X11569900Y-10339000D02*
G75*
G02*
X11469900Y-10339000I-50000J0D01*
G01*
X11469900Y-10339000D02*
G75*
G02*
X11569900Y-10339000I50000J0D01*
G01*
X11569900Y-10593000D02*
G75*
G02*
X11469900Y-10593000I-50000J0D01*
G01*
X11469900Y-10593000D02*
G75*
G02*
X11569900Y-10593000I50000J0D01*
G01*
X11569900Y-10847000D02*
G75*
G02*
X11469900Y-10847000I-50000J0D01*
G01*
X11469900Y-10847000D02*
G75*
G02*
X11569900Y-10847000I50000J0D01*
G01*
X11823900Y-9069000D02*
G75*
G02*
X11723900Y-9069000I-50000J0D01*
G01*
X11723900Y-9069000D02*
G75*
G02*
X11823900Y-9069000I50000J0D01*
G01*
X11823900Y-9323000D02*
G75*
G02*
X11723900Y-9323000I-50000J0D01*
G01*
X11723900Y-9323000D02*
G75*
G02*
X11823900Y-9323000I50000J0D01*
G01*
X11823900Y-9577000D02*
G75*
G02*
X11723900Y-9577000I-50000J0D01*
G01*
X11723900Y-9577000D02*
G75*
G02*
X11823900Y-9577000I50000J0D01*
G01*
X11823900Y-9831000D02*
G75*
G02*
X11723900Y-9831000I-50000J0D01*
G01*
X11723900Y-9831000D02*
G75*
G02*
X11823900Y-9831000I50000J0D01*
G01*
X11823900Y-10085000D02*
G75*
G02*
X11723900Y-10085000I-50000J0D01*
G01*
X11723900Y-10085000D02*
G75*
G02*
X11823900Y-10085000I50000J0D01*
G01*
X11823900Y-10339000D02*
G75*
G02*
X11723900Y-10339000I-50000J0D01*
G01*
X11723900Y-10339000D02*
G75*
G02*
X11823900Y-10339000I50000J0D01*
G01*
X11823900Y-10593000D02*
G75*
G02*
X11723900Y-10593000I-50000J0D01*
G01*
X11723900Y-10593000D02*
G75*
G02*
X11823900Y-10593000I50000J0D01*
G01*
X11823900Y-10847000D02*
G75*
G02*
X11723900Y-10847000I-50000J0D01*
G01*
X11723900Y-10847000D02*
G75*
G02*
X11823900Y-10847000I50000J0D01*
G01*
X12086368Y-8580000D02*
G75*
G02*
X11986368Y-8580000I-50000J0D01*
G01*
X11986368Y-8580000D02*
G75*
G02*
X12086368Y-8580000I50000J0D01*
G01*
X13316000Y-11778000D02*
G75*
G02*
X13216000Y-11778000I-50000J0D01*
G01*
X13216000Y-11778000D02*
G75*
G02*
X13316000Y-11778000I50000J0D01*
G01*
X14178000Y-12921000D02*
G75*
G02*
X14078000Y-12921000I-50000J0D01*
G01*
X14078000Y-12921000D02*
G75*
G02*
X14178000Y-12921000I50000J0D01*
G01*
X14178000Y-13175000D02*
G75*
G02*
X14078000Y-13175000I-50000J0D01*
G01*
X14078000Y-13175000D02*
G75*
G02*
X14178000Y-13175000I50000J0D01*
G01*
X14286000Y-11114000D02*
G75*
G02*
X14186000Y-11114000I-50000J0D01*
G01*
X14186000Y-11114000D02*
G75*
G02*
X14286000Y-11114000I50000J0D01*
G01*
X14286000Y-11444000D02*
G75*
G02*
X14186000Y-11444000I-50000J0D01*
G01*
X14186000Y-11444000D02*
G75*
G02*
X14286000Y-11444000I50000J0D01*
G01*
X14286000Y-11778000D02*
G75*
G02*
X14186000Y-11778000I-50000J0D01*
G01*
X14186000Y-11778000D02*
G75*
G02*
X14286000Y-11778000I50000J0D01*
G01*
X14286000Y-12111000D02*
G75*
G02*
X14186000Y-12111000I-50000J0D01*
G01*
X14186000Y-12111000D02*
G75*
G02*
X14286000Y-12111000I50000J0D01*
G01*
X14286000Y-12448000D02*
G75*
G02*
X14186000Y-12448000I-50000J0D01*
G01*
X14186000Y-12448000D02*
G75*
G02*
X14286000Y-12448000I50000J0D01*
G01*
X14432000Y-12921000D02*
G75*
G02*
X14332000Y-12921000I-50000J0D01*
G01*
X14332000Y-12921000D02*
G75*
G02*
X14432000Y-12921000I50000J0D01*
G01*
X14432000Y-13175000D02*
G75*
G02*
X14332000Y-13175000I-50000J0D01*
G01*
X14332000Y-13175000D02*
G75*
G02*
X14432000Y-13175000I50000J0D01*
G01*
X14686000Y-12921000D02*
G75*
G02*
X14586000Y-12921000I-50000J0D01*
G01*
X14586000Y-12921000D02*
G75*
G02*
X14686000Y-12921000I50000J0D01*
G01*
X14686000Y-13175000D02*
G75*
G02*
X14586000Y-13175000I-50000J0D01*
G01*
X14586000Y-13175000D02*
G75*
G02*
X14686000Y-13175000I50000J0D01*
G01*
X14940000Y-12921000D02*
G75*
G02*
X14840000Y-12921000I-50000J0D01*
G01*
X14840000Y-12921000D02*
G75*
G02*
X14940000Y-12921000I50000J0D01*
G01*
X14940000Y-13175000D02*
G75*
G02*
X14840000Y-13175000I-50000J0D01*
G01*
X14840000Y-13175000D02*
G75*
G02*
X14940000Y-13175000I50000J0D01*
G01*
X15013000Y-8635000D02*
G75*
G02*
X14913000Y-8635000I-50000J0D01*
G01*
X14913000Y-8635000D02*
G75*
G02*
X15013000Y-8635000I50000J0D01*
G01*
X15013000Y-11175000D02*
G75*
G02*
X14913000Y-11175000I-50000J0D01*
G01*
X14913000Y-11175000D02*
G75*
G02*
X15013000Y-11175000I50000J0D01*
G01*
X15194000Y-12921000D02*
G75*
G02*
X15094000Y-12921000I-50000J0D01*
G01*
X15094000Y-12921000D02*
G75*
G02*
X15194000Y-12921000I50000J0D01*
G01*
X15194000Y-13175000D02*
G75*
G02*
X15094000Y-13175000I-50000J0D01*
G01*
X15094000Y-13175000D02*
G75*
G02*
X15194000Y-13175000I50000J0D01*
G01*
X15200000Y-12197000D02*
G75*
G02*
X15100000Y-12197000I-50000J0D01*
G01*
X15100000Y-12197000D02*
G75*
G02*
X15200000Y-12197000I50000J0D01*
G01*
X15200000Y-12451000D02*
G75*
G02*
X15100000Y-12451000I-50000J0D01*
G01*
X15100000Y-12451000D02*
G75*
G02*
X15200000Y-12451000I50000J0D01*
G01*
X15267000Y-8635000D02*
G75*
G02*
X15167000Y-8635000I-50000J0D01*
G01*
X15167000Y-8635000D02*
G75*
G02*
X15267000Y-8635000I50000J0D01*
G01*
X15267000Y-11175000D02*
G75*
G02*
X15167000Y-11175000I-50000J0D01*
G01*
X15167000Y-11175000D02*
G75*
G02*
X15267000Y-11175000I50000J0D01*
G01*
X15448000Y-12921000D02*
G75*
G02*
X15348000Y-12921000I-50000J0D01*
G01*
X15348000Y-12921000D02*
G75*
G02*
X15448000Y-12921000I50000J0D01*
G01*
X15448000Y-13175000D02*
G75*
G02*
X15348000Y-13175000I-50000J0D01*
G01*
X15348000Y-13175000D02*
G75*
G02*
X15448000Y-13175000I50000J0D01*
G01*
X15454000Y-12197000D02*
G75*
G02*
X15354000Y-12197000I-50000J0D01*
G01*
X15354000Y-12197000D02*
G75*
G02*
X15454000Y-12197000I50000J0D01*
G01*
X15454000Y-12451000D02*
G75*
G02*
X15354000Y-12451000I-50000J0D01*
G01*
X15354000Y-12451000D02*
G75*
G02*
X15454000Y-12451000I50000J0D01*
G01*
X15521000Y-8635000D02*
G75*
G02*
X15421000Y-8635000I-50000J0D01*
G01*
X15421000Y-8635000D02*
G75*
G02*
X15521000Y-8635000I50000J0D01*
G01*
X15521000Y-11175000D02*
G75*
G02*
X15421000Y-11175000I-50000J0D01*
G01*
X15421000Y-11175000D02*
G75*
G02*
X15521000Y-11175000I50000J0D01*
G01*
X15687000Y-7970000D02*
G75*
G02*
X15587000Y-7970000I-50000J0D01*
G01*
X15587000Y-7970000D02*
G75*
G02*
X15687000Y-7970000I50000J0D01*
G01*
X15702000Y-12921000D02*
G75*
G02*
X15602000Y-12921000I-50000J0D01*
G01*
X15602000Y-12921000D02*
G75*
G02*
X15702000Y-12921000I50000J0D01*
G01*
X15702000Y-13175000D02*
G75*
G02*
X15602000Y-13175000I-50000J0D01*
G01*
X15602000Y-13175000D02*
G75*
G02*
X15702000Y-13175000I50000J0D01*
G01*
X15708000Y-12197000D02*
G75*
G02*
X15608000Y-12197000I-50000J0D01*
G01*
X15608000Y-12197000D02*
G75*
G02*
X15708000Y-12197000I50000J0D01*
G01*
X15708000Y-12451000D02*
G75*
G02*
X15608000Y-12451000I-50000J0D01*
G01*
X15608000Y-12451000D02*
G75*
G02*
X15708000Y-12451000I50000J0D01*
G01*
X15775000Y-8635000D02*
G75*
G02*
X15675000Y-8635000I-50000J0D01*
G01*
X15675000Y-8635000D02*
G75*
G02*
X15775000Y-8635000I50000J0D01*
G01*
X15775000Y-11175000D02*
G75*
G02*
X15675000Y-11175000I-50000J0D01*
G01*
X15675000Y-11175000D02*
G75*
G02*
X15775000Y-11175000I50000J0D01*
G01*
X15956000Y-12921000D02*
G75*
G02*
X15856000Y-12921000I-50000J0D01*
G01*
X15856000Y-12921000D02*
G75*
G02*
X15956000Y-12921000I50000J0D01*
G01*
X15956000Y-13175000D02*
G75*
G02*
X15856000Y-13175000I-50000J0D01*
G01*
X15856000Y-13175000D02*
G75*
G02*
X15956000Y-13175000I50000J0D01*
G01*
X15962000Y-12197000D02*
G75*
G02*
X15862000Y-12197000I-50000J0D01*
G01*
X15862000Y-12197000D02*
G75*
G02*
X15962000Y-12197000I50000J0D01*
G01*
X15962000Y-12451000D02*
G75*
G02*
X15862000Y-12451000I-50000J0D01*
G01*
X15862000Y-12451000D02*
G75*
G02*
X15962000Y-12451000I50000J0D01*
G01*
X16021000Y-7970000D02*
G75*
G02*
X15921000Y-7970000I-50000J0D01*
G01*
X15921000Y-7970000D02*
G75*
G02*
X16021000Y-7970000I50000J0D01*
G01*
X16029000Y-8635000D02*
G75*
G02*
X15929000Y-8635000I-50000J0D01*
G01*
X15929000Y-8635000D02*
G75*
G02*
X16029000Y-8635000I50000J0D01*
G01*
X16029000Y-11175000D02*
G75*
G02*
X15929000Y-11175000I-50000J0D01*
G01*
X15929000Y-11175000D02*
G75*
G02*
X16029000Y-11175000I50000J0D01*
G01*
X16210000Y-12921000D02*
G75*
G02*
X16110000Y-12921000I-50000J0D01*
G01*
X16110000Y-12921000D02*
G75*
G02*
X16210000Y-12921000I50000J0D01*
G01*
X16210000Y-13175000D02*
G75*
G02*
X16110000Y-13175000I-50000J0D01*
G01*
X16110000Y-13175000D02*
G75*
G02*
X16210000Y-13175000I50000J0D01*
G01*
X16216000Y-12197000D02*
G75*
G02*
X16116000Y-12197000I-50000J0D01*
G01*
X16116000Y-12197000D02*
G75*
G02*
X16216000Y-12197000I50000J0D01*
G01*
X16216000Y-12451000D02*
G75*
G02*
X16116000Y-12451000I-50000J0D01*
G01*
X16116000Y-12451000D02*
G75*
G02*
X16216000Y-12451000I50000J0D01*
G01*
X16283000Y-8635000D02*
G75*
G02*
X16183000Y-8635000I-50000J0D01*
G01*
X16183000Y-8635000D02*
G75*
G02*
X16283000Y-8635000I50000J0D01*
G01*
X16283000Y-11175000D02*
G75*
G02*
X16183000Y-11175000I-50000J0D01*
G01*
X16183000Y-11175000D02*
G75*
G02*
X16283000Y-11175000I50000J0D01*
G01*
X16359000Y-7970000D02*
G75*
G02*
X16259000Y-7970000I-50000J0D01*
G01*
X16259000Y-7970000D02*
G75*
G02*
X16359000Y-7970000I50000J0D01*
G01*
X16464000Y-12921000D02*
G75*
G02*
X16364000Y-12921000I-50000J0D01*
G01*
X16364000Y-12921000D02*
G75*
G02*
X16464000Y-12921000I50000J0D01*
G01*
X16464000Y-13175000D02*
G75*
G02*
X16364000Y-13175000I-50000J0D01*
G01*
X16364000Y-13175000D02*
G75*
G02*
X16464000Y-13175000I50000J0D01*
G01*
X16470000Y-12197000D02*
G75*
G02*
X16370000Y-12197000I-50000J0D01*
G01*
X16370000Y-12197000D02*
G75*
G02*
X16470000Y-12197000I50000J0D01*
G01*
X16470000Y-12451000D02*
G75*
G02*
X16370000Y-12451000I-50000J0D01*
G01*
X16370000Y-12451000D02*
G75*
G02*
X16470000Y-12451000I50000J0D01*
G01*
X16537000Y-8635000D02*
G75*
G02*
X16437000Y-8635000I-50000J0D01*
G01*
X16437000Y-8635000D02*
G75*
G02*
X16537000Y-8635000I50000J0D01*
G01*
X16537000Y-11175000D02*
G75*
G02*
X16437000Y-11175000I-50000J0D01*
G01*
X16437000Y-11175000D02*
G75*
G02*
X16537000Y-11175000I50000J0D01*
G01*
X16694000Y-7970000D02*
G75*
G02*
X16594000Y-7970000I-50000J0D01*
G01*
X16594000Y-7970000D02*
G75*
G02*
X16694000Y-7970000I50000J0D01*
G01*
X16718000Y-12921000D02*
G75*
G02*
X16618000Y-12921000I-50000J0D01*
G01*
X16618000Y-12921000D02*
G75*
G02*
X16718000Y-12921000I50000J0D01*
G01*
X16718000Y-13175000D02*
G75*
G02*
X16618000Y-13175000I-50000J0D01*
G01*
X16618000Y-13175000D02*
G75*
G02*
X16718000Y-13175000I50000J0D01*
G01*
X16724000Y-12197000D02*
G75*
G02*
X16624000Y-12197000I-50000J0D01*
G01*
X16624000Y-12197000D02*
G75*
G02*
X16724000Y-12197000I50000J0D01*
G01*
X16724000Y-12451000D02*
G75*
G02*
X16624000Y-12451000I-50000J0D01*
G01*
X16624000Y-12451000D02*
G75*
G02*
X16724000Y-12451000I50000J0D01*
G01*
X16791000Y-8635000D02*
G75*
G02*
X16691000Y-8635000I-50000J0D01*
G01*
X16691000Y-8635000D02*
G75*
G02*
X16791000Y-8635000I50000J0D01*
G01*
X16791000Y-11175000D02*
G75*
G02*
X16691000Y-11175000I-50000J0D01*
G01*
X16691000Y-11175000D02*
G75*
G02*
X16791000Y-11175000I50000J0D01*
G01*
X16972000Y-12921000D02*
G75*
G02*
X16872000Y-12921000I-50000J0D01*
G01*
X16872000Y-12921000D02*
G75*
G02*
X16972000Y-12921000I50000J0D01*
G01*
X16972000Y-13175000D02*
G75*
G02*
X16872000Y-13175000I-50000J0D01*
G01*
X16872000Y-13175000D02*
G75*
G02*
X16972000Y-13175000I50000J0D01*
G01*
X16978000Y-12197000D02*
G75*
G02*
X16878000Y-12197000I-50000J0D01*
G01*
X16878000Y-12197000D02*
G75*
G02*
X16978000Y-12197000I50000J0D01*
G01*
X16978000Y-12451000D02*
G75*
G02*
X16878000Y-12451000I-50000J0D01*
G01*
X16878000Y-12451000D02*
G75*
G02*
X16978000Y-12451000I50000J0D01*
G01*
X17030000Y-7970000D02*
G75*
G02*
X16930000Y-7970000I-50000J0D01*
G01*
X16930000Y-7970000D02*
G75*
G02*
X17030000Y-7970000I50000J0D01*
G01*
X17045000Y-8635000D02*
G75*
G02*
X16945000Y-8635000I-50000J0D01*
G01*
X16945000Y-8635000D02*
G75*
G02*
X17045000Y-8635000I50000J0D01*
G01*
X17045000Y-11175000D02*
G75*
G02*
X16945000Y-11175000I-50000J0D01*
G01*
X16945000Y-11175000D02*
G75*
G02*
X17045000Y-11175000I50000J0D01*
G01*
X17226000Y-12921000D02*
G75*
G02*
X17126000Y-12921000I-50000J0D01*
G01*
X17126000Y-12921000D02*
G75*
G02*
X17226000Y-12921000I50000J0D01*
G01*
X17226000Y-13175000D02*
G75*
G02*
X17126000Y-13175000I-50000J0D01*
G01*
X17126000Y-13175000D02*
G75*
G02*
X17226000Y-13175000I50000J0D01*
G01*
X17232000Y-12197000D02*
G75*
G02*
X17132000Y-12197000I-50000J0D01*
G01*
X17132000Y-12197000D02*
G75*
G02*
X17232000Y-12197000I50000J0D01*
G01*
X17232000Y-12451000D02*
G75*
G02*
X17132000Y-12451000I-50000J0D01*
G01*
X17132000Y-12451000D02*
G75*
G02*
X17232000Y-12451000I50000J0D01*
G01*
X17299000Y-8635000D02*
G75*
G02*
X17199000Y-8635000I-50000J0D01*
G01*
X17199000Y-8635000D02*
G75*
G02*
X17299000Y-8635000I50000J0D01*
G01*
X17299000Y-11175000D02*
G75*
G02*
X17199000Y-11175000I-50000J0D01*
G01*
X17199000Y-11175000D02*
G75*
G02*
X17299000Y-11175000I50000J0D01*
G01*
X17365000Y-7970000D02*
G75*
G02*
X17265000Y-7970000I-50000J0D01*
G01*
X17265000Y-7970000D02*
G75*
G02*
X17365000Y-7970000I50000J0D01*
G01*
X17480000Y-12921000D02*
G75*
G02*
X17380000Y-12921000I-50000J0D01*
G01*
X17380000Y-12921000D02*
G75*
G02*
X17480000Y-12921000I50000J0D01*
G01*
X17480000Y-13175000D02*
G75*
G02*
X17380000Y-13175000I-50000J0D01*
G01*
X17380000Y-13175000D02*
G75*
G02*
X17480000Y-13175000I50000J0D01*
G01*
X17486000Y-12197000D02*
G75*
G02*
X17386000Y-12197000I-50000J0D01*
G01*
X17386000Y-12197000D02*
G75*
G02*
X17486000Y-12197000I50000J0D01*
G01*
X17486000Y-12451000D02*
G75*
G02*
X17386000Y-12451000I-50000J0D01*
G01*
X17386000Y-12451000D02*
G75*
G02*
X17486000Y-12451000I50000J0D01*
G01*
X17553000Y-8635000D02*
G75*
G02*
X17453000Y-8635000I-50000J0D01*
G01*
X17453000Y-8635000D02*
G75*
G02*
X17553000Y-8635000I50000J0D01*
G01*
X17553000Y-11175000D02*
G75*
G02*
X17453000Y-11175000I-50000J0D01*
G01*
X17453000Y-11175000D02*
G75*
G02*
X17553000Y-11175000I50000J0D01*
G01*
X17700000Y-7970000D02*
G75*
G02*
X17600000Y-7970000I-50000J0D01*
G01*
X17600000Y-7970000D02*
G75*
G02*
X17700000Y-7970000I50000J0D01*
G01*
X17734000Y-12921000D02*
G75*
G02*
X17634000Y-12921000I-50000J0D01*
G01*
X17634000Y-12921000D02*
G75*
G02*
X17734000Y-12921000I50000J0D01*
G01*
X17734000Y-13175000D02*
G75*
G02*
X17634000Y-13175000I-50000J0D01*
G01*
X17634000Y-13175000D02*
G75*
G02*
X17734000Y-13175000I50000J0D01*
G01*
X17740000Y-12197000D02*
G75*
G02*
X17640000Y-12197000I-50000J0D01*
G01*
X17640000Y-12197000D02*
G75*
G02*
X17740000Y-12197000I50000J0D01*
G01*
X17740000Y-12451000D02*
G75*
G02*
X17640000Y-12451000I-50000J0D01*
G01*
X17640000Y-12451000D02*
G75*
G02*
X17740000Y-12451000I50000J0D01*
G01*
X17807000Y-8635000D02*
G75*
G02*
X17707000Y-8635000I-50000J0D01*
G01*
X17707000Y-8635000D02*
G75*
G02*
X17807000Y-8635000I50000J0D01*
G01*
X17807000Y-11175000D02*
G75*
G02*
X17707000Y-11175000I-50000J0D01*
G01*
X17707000Y-11175000D02*
G75*
G02*
X17807000Y-11175000I50000J0D01*
G01*
X17988000Y-12921000D02*
G75*
G02*
X17888000Y-12921000I-50000J0D01*
G01*
X17888000Y-12921000D02*
G75*
G02*
X17988000Y-12921000I50000J0D01*
G01*
X17988000Y-13175000D02*
G75*
G02*
X17888000Y-13175000I-50000J0D01*
G01*
X17888000Y-13175000D02*
G75*
G02*
X17988000Y-13175000I50000J0D01*
G01*
X17994000Y-12197000D02*
G75*
G02*
X17894000Y-12197000I-50000J0D01*
G01*
X17894000Y-12197000D02*
G75*
G02*
X17994000Y-12197000I50000J0D01*
G01*
X17994000Y-12451000D02*
G75*
G02*
X17894000Y-12451000I-50000J0D01*
G01*
X17894000Y-12451000D02*
G75*
G02*
X17994000Y-12451000I50000J0D01*
G01*
X18035000Y-7970000D02*
G75*
G02*
X17935000Y-7970000I-50000J0D01*
G01*
X17935000Y-7970000D02*
G75*
G02*
X18035000Y-7970000I50000J0D01*
G01*
X18061000Y-8635000D02*
G75*
G02*
X17961000Y-8635000I-50000J0D01*
G01*
X17961000Y-8635000D02*
G75*
G02*
X18061000Y-8635000I50000J0D01*
G01*
X18061000Y-11175000D02*
G75*
G02*
X17961000Y-11175000I-50000J0D01*
G01*
X17961000Y-11175000D02*
G75*
G02*
X18061000Y-11175000I50000J0D01*
G01*
X18242000Y-12921000D02*
G75*
G02*
X18142000Y-12921000I-50000J0D01*
G01*
X18142000Y-12921000D02*
G75*
G02*
X18242000Y-12921000I50000J0D01*
G01*
X18242000Y-13175000D02*
G75*
G02*
X18142000Y-13175000I-50000J0D01*
G01*
X18142000Y-13175000D02*
G75*
G02*
X18242000Y-13175000I50000J0D01*
G01*
X18315000Y-8635000D02*
G75*
G02*
X18215000Y-8635000I-50000J0D01*
G01*
X18215000Y-8635000D02*
G75*
G02*
X18315000Y-8635000I50000J0D01*
G01*
X18315000Y-11175000D02*
G75*
G02*
X18215000Y-11175000I-50000J0D01*
G01*
X18215000Y-11175000D02*
G75*
G02*
X18315000Y-11175000I50000J0D01*
G01*
X18371000Y-7970000D02*
G75*
G02*
X18271000Y-7970000I-50000J0D01*
G01*
X18271000Y-7970000D02*
G75*
G02*
X18371000Y-7970000I50000J0D01*
G01*
X18496000Y-12921000D02*
G75*
G02*
X18396000Y-12921000I-50000J0D01*
G01*
X18396000Y-12921000D02*
G75*
G02*
X18496000Y-12921000I50000J0D01*
G01*
X18496000Y-13175000D02*
G75*
G02*
X18396000Y-13175000I-50000J0D01*
G01*
X18396000Y-13175000D02*
G75*
G02*
X18496000Y-13175000I50000J0D01*
G01*
X18569000Y-8635000D02*
G75*
G02*
X18469000Y-8635000I-50000J0D01*
G01*
X18469000Y-8635000D02*
G75*
G02*
X18569000Y-8635000I50000J0D01*
G01*
X18569000Y-11175000D02*
G75*
G02*
X18469000Y-11175000I-50000J0D01*
G01*
X18469000Y-11175000D02*
G75*
G02*
X18569000Y-11175000I50000J0D01*
G01*
X18750000Y-12921000D02*
G75*
G02*
X18650000Y-12921000I-50000J0D01*
G01*
X18650000Y-12921000D02*
G75*
G02*
X18750000Y-12921000I50000J0D01*
G01*
X18750000Y-13175000D02*
G75*
G02*
X18650000Y-13175000I-50000J0D01*
G01*
X18650000Y-13175000D02*
G75*
G02*
X18750000Y-13175000I50000J0D01*
G01*
X18823000Y-8635000D02*
G75*
G02*
X18723000Y-8635000I-50000J0D01*
G01*
X18723000Y-8635000D02*
G75*
G02*
X18823000Y-8635000I50000J0D01*
G01*
X18823000Y-11175000D02*
G75*
G02*
X18723000Y-11175000I-50000J0D01*
G01*
X18723000Y-11175000D02*
G75*
G02*
X18823000Y-11175000I50000J0D01*
G01*
X19004000Y-12921000D02*
G75*
G02*
X18904000Y-12921000I-50000J0D01*
G01*
X18904000Y-12921000D02*
G75*
G02*
X19004000Y-12921000I50000J0D01*
G01*
X19004000Y-13175000D02*
G75*
G02*
X18904000Y-13175000I-50000J0D01*
G01*
X18904000Y-13175000D02*
G75*
G02*
X19004000Y-13175000I50000J0D01*
G01*
X19077000Y-8635000D02*
G75*
G02*
X18977000Y-8635000I-50000J0D01*
G01*
X18977000Y-8635000D02*
G75*
G02*
X19077000Y-8635000I50000J0D01*
G01*
X19077000Y-11175000D02*
G75*
G02*
X18977000Y-11175000I-50000J0D01*
G01*
X18977000Y-11175000D02*
G75*
G02*
X19077000Y-11175000I50000J0D01*
G01*
X19331000Y-8635000D02*
G75*
G02*
X19231000Y-8635000I-50000J0D01*
G01*
X19231000Y-8635000D02*
G75*
G02*
X19331000Y-8635000I50000J0D01*
G01*
X19331000Y-11175000D02*
G75*
G02*
X19231000Y-11175000I-50000J0D01*
G01*
X19231000Y-11175000D02*
G75*
G02*
X19331000Y-11175000I50000J0D01*
G01*
X19568000Y-9008000D02*
G75*
G02*
X19468000Y-9008000I-50000J0D01*
G01*
X19468000Y-9008000D02*
G75*
G02*
X19568000Y-9008000I50000J0D01*
G01*
X19568000Y-9349000D02*
G75*
G02*
X19468000Y-9349000I-50000J0D01*
G01*
X19468000Y-9349000D02*
G75*
G02*
X19568000Y-9349000I50000J0D01*
G01*
X19568000Y-10068000D02*
G75*
G02*
X19468000Y-10068000I-50000J0D01*
G01*
X19468000Y-10068000D02*
G75*
G02*
X19568000Y-10068000I50000J0D01*
G01*
X19568000Y-10422000D02*
G75*
G02*
X19468000Y-10422000I-50000J0D01*
G01*
X19468000Y-10422000D02*
G75*
G02*
X19568000Y-10422000I50000J0D01*
G01*
X19568000Y-10759000D02*
G75*
G02*
X19468000Y-10759000I-50000J0D01*
G01*
X19468000Y-10759000D02*
G75*
G02*
X19568000Y-10759000I50000J0D01*
G01*
X19585000Y-8635000D02*
G75*
G02*
X19485000Y-8635000I-50000J0D01*
G01*
X19485000Y-8635000D02*
G75*
G02*
X19585000Y-8635000I50000J0D01*
G01*
X19585000Y-11175000D02*
G75*
G02*
X19485000Y-11175000I-50000J0D01*
G01*
X19485000Y-11175000D02*
G75*
G02*
X19585000Y-11175000I50000J0D01*
G01*
D13*
X13644000Y-8015000D02*
X13644000Y-8285000D01*
X13509000Y-8150000D02*
X13779000Y-8150000D01*
X13644000Y-12915000D02*
X13644000Y-13185000D01*
X13509000Y-13050000D02*
X13779000Y-13050000D01*
X19444000Y-8015000D02*
X19444000Y-8285000D01*
X19309000Y-8150000D02*
X19579000Y-8150000D01*
X19444000Y-12915000D02*
X19444000Y-13185000D01*
X19309000Y-13050000D02*
X19579000Y-13050000D01*
D11*
X11552277Y-13713984D02*
X11552277Y-13513984D01*
X11552277Y-13513984D02*
X11599896Y-13513984D01*
X11599896Y-13513984D02*
X11628467Y-13523508D01*
X11628467Y-13523508D02*
X11647515Y-13542555D01*
X11647515Y-13542555D02*
X11657039Y-13561603D01*
X11657039Y-13561603D02*
X11666562Y-13599698D01*
X11666562Y-13599698D02*
X11666562Y-13628269D01*
X11666562Y-13628269D02*
X11657039Y-13666365D01*
X11657039Y-13666365D02*
X11647515Y-13685412D01*
X11647515Y-13685412D02*
X11628467Y-13704460D01*
X11628467Y-13704460D02*
X11599896Y-13713984D01*
X11599896Y-13713984D02*
X11552277Y-13713984D01*
X11752277Y-13713984D02*
X11752277Y-13580650D01*
X11752277Y-13618746D02*
X11761801Y-13599698D01*
X11761801Y-13599698D02*
X11771324Y-13590174D01*
X11771324Y-13590174D02*
X11790372Y-13580650D01*
X11790372Y-13580650D02*
X11809420Y-13580650D01*
X11876086Y-13713984D02*
X11876086Y-13580650D01*
X11876086Y-13513984D02*
X11866562Y-13523508D01*
X11866562Y-13523508D02*
X11876086Y-13533031D01*
X11876086Y-13533031D02*
X11885610Y-13523508D01*
X11885610Y-13523508D02*
X11876086Y-13513984D01*
X11876086Y-13513984D02*
X11876086Y-13533031D01*
X11999896Y-13713984D02*
X11980848Y-13704460D01*
X11980848Y-13704460D02*
X11971324Y-13685412D01*
X11971324Y-13685412D02*
X11971324Y-13513984D01*
X12104658Y-13713984D02*
X12085610Y-13704460D01*
X12085610Y-13704460D02*
X12076086Y-13685412D01*
X12076086Y-13685412D02*
X12076086Y-13513984D01*
X12333229Y-13713984D02*
X12333229Y-13513984D01*
X12333229Y-13513984D02*
X12399896Y-13656841D01*
X12399896Y-13656841D02*
X12466562Y-13513984D01*
X12466562Y-13513984D02*
X12466562Y-13713984D01*
X12647515Y-13713984D02*
X12647515Y-13609222D01*
X12647515Y-13609222D02*
X12637991Y-13590174D01*
X12637991Y-13590174D02*
X12618943Y-13580650D01*
X12618943Y-13580650D02*
X12580848Y-13580650D01*
X12580848Y-13580650D02*
X12561801Y-13590174D01*
X12647515Y-13704460D02*
X12628467Y-13713984D01*
X12628467Y-13713984D02*
X12580848Y-13713984D01*
X12580848Y-13713984D02*
X12561801Y-13704460D01*
X12561801Y-13704460D02*
X12552277Y-13685412D01*
X12552277Y-13685412D02*
X12552277Y-13666365D01*
X12552277Y-13666365D02*
X12561801Y-13647317D01*
X12561801Y-13647317D02*
X12580848Y-13637793D01*
X12580848Y-13637793D02*
X12628467Y-13637793D01*
X12628467Y-13637793D02*
X12647515Y-13628269D01*
X12742753Y-13580650D02*
X12742753Y-13780650D01*
X12742753Y-13590174D02*
X12761801Y-13580650D01*
X12761801Y-13580650D02*
X12799896Y-13580650D01*
X12799896Y-13580650D02*
X12818943Y-13590174D01*
X12818943Y-13590174D02*
X12828467Y-13599698D01*
X12828467Y-13599698D02*
X12837991Y-13618746D01*
X12837991Y-13618746D02*
X12837991Y-13675888D01*
X12837991Y-13675888D02*
X12828467Y-13694936D01*
X12828467Y-13694936D02*
X12818943Y-13704460D01*
X12818943Y-13704460D02*
X12799896Y-13713984D01*
X12799896Y-13713984D02*
X12761801Y-13713984D01*
X12761801Y-13713984D02*
X12742753Y-13704460D01*
X12923705Y-13694936D02*
X12933229Y-13704460D01*
X12933229Y-13704460D02*
X12923705Y-13713984D01*
X12923705Y-13713984D02*
X12914182Y-13704460D01*
X12914182Y-13704460D02*
X12923705Y-13694936D01*
X12923705Y-13694936D02*
X12923705Y-13713984D01*
X12923705Y-13590174D02*
X12933229Y-13599698D01*
X12933229Y-13599698D02*
X12923705Y-13609222D01*
X12923705Y-13609222D02*
X12914182Y-13599698D01*
X12914182Y-13599698D02*
X12923705Y-13590174D01*
X12923705Y-13590174D02*
X12923705Y-13609222D01*
D12*
X11261500Y-14027500D02*
X11291500Y-14057500D01*
X11291500Y-14027500D02*
X11261500Y-14057500D01*
D11*
X11590372Y-13933984D02*
X11609420Y-13933984D01*
X11609420Y-13933984D02*
X11628467Y-13943508D01*
X11628467Y-13943508D02*
X11637991Y-13953031D01*
X11637991Y-13953031D02*
X11647515Y-13972079D01*
X11647515Y-13972079D02*
X11657039Y-14010174D01*
X11657039Y-14010174D02*
X11657039Y-14057793D01*
X11657039Y-14057793D02*
X11647515Y-14095888D01*
X11647515Y-14095888D02*
X11637991Y-14114936D01*
X11637991Y-14114936D02*
X11628467Y-14124460D01*
X11628467Y-14124460D02*
X11609420Y-14133984D01*
X11609420Y-14133984D02*
X11590372Y-14133984D01*
X11590372Y-14133984D02*
X11571324Y-14124460D01*
X11571324Y-14124460D02*
X11561801Y-14114936D01*
X11561801Y-14114936D02*
X11552277Y-14095888D01*
X11552277Y-14095888D02*
X11542753Y-14057793D01*
X11542753Y-14057793D02*
X11542753Y-14010174D01*
X11542753Y-14010174D02*
X11552277Y-13972079D01*
X11552277Y-13972079D02*
X11561801Y-13953031D01*
X11561801Y-13953031D02*
X11571324Y-13943508D01*
X11571324Y-13943508D02*
X11590372Y-13933984D01*
X11742753Y-14114936D02*
X11752277Y-14124460D01*
X11752277Y-14124460D02*
X11742753Y-14133984D01*
X11742753Y-14133984D02*
X11733229Y-14124460D01*
X11733229Y-14124460D02*
X11742753Y-14114936D01*
X11742753Y-14114936D02*
X11742753Y-14133984D01*
X11818943Y-13933984D02*
X11942753Y-13933984D01*
X11942753Y-13933984D02*
X11876086Y-14010174D01*
X11876086Y-14010174D02*
X11904658Y-14010174D01*
X11904658Y-14010174D02*
X11923705Y-14019698D01*
X11923705Y-14019698D02*
X11933229Y-14029222D01*
X11933229Y-14029222D02*
X11942753Y-14048269D01*
X11942753Y-14048269D02*
X11942753Y-14095888D01*
X11942753Y-14095888D02*
X11933229Y-14114936D01*
X11933229Y-14114936D02*
X11923705Y-14124460D01*
X11923705Y-14124460D02*
X11904658Y-14133984D01*
X11904658Y-14133984D02*
X11847515Y-14133984D01*
X11847515Y-14133984D02*
X11828467Y-14124460D01*
X11828467Y-14124460D02*
X11818943Y-14114936D01*
X12066562Y-13933984D02*
X12085610Y-13933984D01*
X12085610Y-13933984D02*
X12104658Y-13943508D01*
X12104658Y-13943508D02*
X12114182Y-13953031D01*
X12114182Y-13953031D02*
X12123705Y-13972079D01*
X12123705Y-13972079D02*
X12133229Y-14010174D01*
X12133229Y-14010174D02*
X12133229Y-14057793D01*
X12133229Y-14057793D02*
X12123705Y-14095888D01*
X12123705Y-14095888D02*
X12114182Y-14114936D01*
X12114182Y-14114936D02*
X12104658Y-14124460D01*
X12104658Y-14124460D02*
X12085610Y-14133984D01*
X12085610Y-14133984D02*
X12066562Y-14133984D01*
X12066562Y-14133984D02*
X12047515Y-14124460D01*
X12047515Y-14124460D02*
X12037991Y-14114936D01*
X12037991Y-14114936D02*
X12028467Y-14095888D01*
X12028467Y-14095888D02*
X12018943Y-14057793D01*
X12018943Y-14057793D02*
X12018943Y-14010174D01*
X12018943Y-14010174D02*
X12028467Y-13972079D01*
X12028467Y-13972079D02*
X12037991Y-13953031D01*
X12037991Y-13953031D02*
X12047515Y-13943508D01*
X12047515Y-13943508D02*
X12066562Y-13933984D01*
X12257039Y-13933984D02*
X12276086Y-13933984D01*
X12276086Y-13933984D02*
X12295134Y-13943508D01*
X12295134Y-13943508D02*
X12304658Y-13953031D01*
X12304658Y-13953031D02*
X12314182Y-13972079D01*
X12314182Y-13972079D02*
X12323705Y-14010174D01*
X12323705Y-14010174D02*
X12323705Y-14057793D01*
X12323705Y-14057793D02*
X12314182Y-14095888D01*
X12314182Y-14095888D02*
X12304658Y-14114936D01*
X12304658Y-14114936D02*
X12295134Y-14124460D01*
X12295134Y-14124460D02*
X12276086Y-14133984D01*
X12276086Y-14133984D02*
X12257039Y-14133984D01*
X12257039Y-14133984D02*
X12237991Y-14124460D01*
X12237991Y-14124460D02*
X12228467Y-14114936D01*
X12228467Y-14114936D02*
X12218943Y-14095888D01*
X12218943Y-14095888D02*
X12209420Y-14057793D01*
X12209420Y-14057793D02*
X12209420Y-14010174D01*
X12209420Y-14010174D02*
X12218943Y-13972079D01*
X12218943Y-13972079D02*
X12228467Y-13953031D01*
X12228467Y-13953031D02*
X12237991Y-13943508D01*
X12237991Y-13943508D02*
X12257039Y-13933984D01*
X12409420Y-14133984D02*
X12409420Y-14000650D01*
X12409420Y-14019698D02*
X12418943Y-14010174D01*
X12418943Y-14010174D02*
X12437991Y-14000650D01*
X12437991Y-14000650D02*
X12466563Y-14000650D01*
X12466563Y-14000650D02*
X12485610Y-14010174D01*
X12485610Y-14010174D02*
X12495134Y-14029222D01*
X12495134Y-14029222D02*
X12495134Y-14133984D01*
X12495134Y-14029222D02*
X12504658Y-14010174D01*
X12504658Y-14010174D02*
X12523705Y-14000650D01*
X12523705Y-14000650D02*
X12552277Y-14000650D01*
X12552277Y-14000650D02*
X12571324Y-14010174D01*
X12571324Y-14010174D02*
X12580848Y-14029222D01*
X12580848Y-14029222D02*
X12580848Y-14133984D01*
X12676086Y-14133984D02*
X12676086Y-14000650D01*
X12676086Y-14019698D02*
X12685610Y-14010174D01*
X12685610Y-14010174D02*
X12704658Y-14000650D01*
X12704658Y-14000650D02*
X12733229Y-14000650D01*
X12733229Y-14000650D02*
X12752277Y-14010174D01*
X12752277Y-14010174D02*
X12761801Y-14029222D01*
X12761801Y-14029222D02*
X12761801Y-14133984D01*
X12761801Y-14029222D02*
X12771324Y-14010174D01*
X12771324Y-14010174D02*
X12790372Y-14000650D01*
X12790372Y-14000650D02*
X12818943Y-14000650D01*
X12818943Y-14000650D02*
X12837991Y-14010174D01*
X12837991Y-14010174D02*
X12847515Y-14029222D01*
X12847515Y-14029222D02*
X12847515Y-14133984D01*
X13237991Y-13924460D02*
X13066563Y-14181603D01*
X13495134Y-13933984D02*
X13514182Y-13933984D01*
X13514182Y-13933984D02*
X13533229Y-13943508D01*
X13533229Y-13943508D02*
X13542753Y-13953031D01*
X13542753Y-13953031D02*
X13552277Y-13972079D01*
X13552277Y-13972079D02*
X13561801Y-14010174D01*
X13561801Y-14010174D02*
X13561801Y-14057793D01*
X13561801Y-14057793D02*
X13552277Y-14095888D01*
X13552277Y-14095888D02*
X13542753Y-14114936D01*
X13542753Y-14114936D02*
X13533229Y-14124460D01*
X13533229Y-14124460D02*
X13514182Y-14133984D01*
X13514182Y-14133984D02*
X13495134Y-14133984D01*
X13495134Y-14133984D02*
X13476086Y-14124460D01*
X13476086Y-14124460D02*
X13466563Y-14114936D01*
X13466563Y-14114936D02*
X13457039Y-14095888D01*
X13457039Y-14095888D02*
X13447515Y-14057793D01*
X13447515Y-14057793D02*
X13447515Y-14010174D01*
X13447515Y-14010174D02*
X13457039Y-13972079D01*
X13457039Y-13972079D02*
X13466563Y-13953031D01*
X13466563Y-13953031D02*
X13476086Y-13943508D01*
X13476086Y-13943508D02*
X13495134Y-13933984D01*
X13647515Y-14114936D02*
X13657039Y-14124460D01*
X13657039Y-14124460D02*
X13647515Y-14133984D01*
X13647515Y-14133984D02*
X13637991Y-14124460D01*
X13637991Y-14124460D02*
X13647515Y-14114936D01*
X13647515Y-14114936D02*
X13647515Y-14133984D01*
X13780848Y-13933984D02*
X13799896Y-13933984D01*
X13799896Y-13933984D02*
X13818944Y-13943508D01*
X13818944Y-13943508D02*
X13828467Y-13953031D01*
X13828467Y-13953031D02*
X13837991Y-13972079D01*
X13837991Y-13972079D02*
X13847515Y-14010174D01*
X13847515Y-14010174D02*
X13847515Y-14057793D01*
X13847515Y-14057793D02*
X13837991Y-14095888D01*
X13837991Y-14095888D02*
X13828467Y-14114936D01*
X13828467Y-14114936D02*
X13818944Y-14124460D01*
X13818944Y-14124460D02*
X13799896Y-14133984D01*
X13799896Y-14133984D02*
X13780848Y-14133984D01*
X13780848Y-14133984D02*
X13761801Y-14124460D01*
X13761801Y-14124460D02*
X13752277Y-14114936D01*
X13752277Y-14114936D02*
X13742753Y-14095888D01*
X13742753Y-14095888D02*
X13733229Y-14057793D01*
X13733229Y-14057793D02*
X13733229Y-14010174D01*
X13733229Y-14010174D02*
X13742753Y-13972079D01*
X13742753Y-13972079D02*
X13752277Y-13953031D01*
X13752277Y-13953031D02*
X13761801Y-13943508D01*
X13761801Y-13943508D02*
X13780848Y-13933984D01*
X14037991Y-14133984D02*
X13923706Y-14133984D01*
X13980848Y-14133984D02*
X13980848Y-13933984D01*
X13980848Y-13933984D02*
X13961801Y-13962555D01*
X13961801Y-13962555D02*
X13942753Y-13981603D01*
X13942753Y-13981603D02*
X13923706Y-13991127D01*
X14228467Y-14133984D02*
X14114182Y-14133984D01*
X14171325Y-14133984D02*
X14171325Y-13933984D01*
X14171325Y-13933984D02*
X14152277Y-13962555D01*
X14152277Y-13962555D02*
X14133229Y-13981603D01*
X14133229Y-13981603D02*
X14114182Y-13991127D01*
X14342753Y-14019698D02*
X14323706Y-14010174D01*
X14323706Y-14010174D02*
X14314182Y-14000650D01*
X14314182Y-14000650D02*
X14304658Y-13981603D01*
X14304658Y-13981603D02*
X14304658Y-13972079D01*
X14304658Y-13972079D02*
X14314182Y-13953031D01*
X14314182Y-13953031D02*
X14323706Y-13943508D01*
X14323706Y-13943508D02*
X14342753Y-13933984D01*
X14342753Y-13933984D02*
X14380848Y-13933984D01*
X14380848Y-13933984D02*
X14399896Y-13943508D01*
X14399896Y-13943508D02*
X14409420Y-13953031D01*
X14409420Y-13953031D02*
X14418944Y-13972079D01*
X14418944Y-13972079D02*
X14418944Y-13981603D01*
X14418944Y-13981603D02*
X14409420Y-14000650D01*
X14409420Y-14000650D02*
X14399896Y-14010174D01*
X14399896Y-14010174D02*
X14380848Y-14019698D01*
X14380848Y-14019698D02*
X14342753Y-14019698D01*
X14342753Y-14019698D02*
X14323706Y-14029222D01*
X14323706Y-14029222D02*
X14314182Y-14038746D01*
X14314182Y-14038746D02*
X14304658Y-14057793D01*
X14304658Y-14057793D02*
X14304658Y-14095888D01*
X14304658Y-14095888D02*
X14314182Y-14114936D01*
X14314182Y-14114936D02*
X14323706Y-14124460D01*
X14323706Y-14124460D02*
X14342753Y-14133984D01*
X14342753Y-14133984D02*
X14380848Y-14133984D01*
X14380848Y-14133984D02*
X14399896Y-14124460D01*
X14399896Y-14124460D02*
X14409420Y-14114936D01*
X14409420Y-14114936D02*
X14418944Y-14095888D01*
X14418944Y-14095888D02*
X14418944Y-14057793D01*
X14418944Y-14057793D02*
X14409420Y-14038746D01*
X14409420Y-14038746D02*
X14399896Y-14029222D01*
X14399896Y-14029222D02*
X14380848Y-14019698D01*
X14495134Y-13933984D02*
X14495134Y-13972079D01*
X14571325Y-13933984D02*
X14571325Y-13972079D01*
X14866563Y-14210174D02*
X14857039Y-14200650D01*
X14857039Y-14200650D02*
X14837991Y-14172079D01*
X14837991Y-14172079D02*
X14828468Y-14153031D01*
X14828468Y-14153031D02*
X14818944Y-14124460D01*
X14818944Y-14124460D02*
X14809420Y-14076841D01*
X14809420Y-14076841D02*
X14809420Y-14038746D01*
X14809420Y-14038746D02*
X14818944Y-13991127D01*
X14818944Y-13991127D02*
X14828468Y-13962555D01*
X14828468Y-13962555D02*
X14837991Y-13943508D01*
X14837991Y-13943508D02*
X14857039Y-13914936D01*
X14857039Y-13914936D02*
X14866563Y-13905412D01*
X15047515Y-14133984D02*
X14933229Y-14133984D01*
X14990372Y-14133984D02*
X14990372Y-13933984D01*
X14990372Y-13933984D02*
X14971325Y-13962555D01*
X14971325Y-13962555D02*
X14952277Y-13981603D01*
X14952277Y-13981603D02*
X14933229Y-13991127D01*
X15237991Y-14133984D02*
X15123706Y-14133984D01*
X15180848Y-14133984D02*
X15180848Y-13933984D01*
X15180848Y-13933984D02*
X15161801Y-13962555D01*
X15161801Y-13962555D02*
X15142753Y-13981603D01*
X15142753Y-13981603D02*
X15123706Y-13991127D01*
X15304658Y-13933984D02*
X15428468Y-13933984D01*
X15428468Y-13933984D02*
X15361801Y-14010174D01*
X15361801Y-14010174D02*
X15390372Y-14010174D01*
X15390372Y-14010174D02*
X15409420Y-14019698D01*
X15409420Y-14019698D02*
X15418944Y-14029222D01*
X15418944Y-14029222D02*
X15428468Y-14048269D01*
X15428468Y-14048269D02*
X15428468Y-14095888D01*
X15428468Y-14095888D02*
X15418944Y-14114936D01*
X15418944Y-14114936D02*
X15409420Y-14124460D01*
X15409420Y-14124460D02*
X15390372Y-14133984D01*
X15390372Y-14133984D02*
X15333229Y-14133984D01*
X15333229Y-14133984D02*
X15314182Y-14124460D01*
X15314182Y-14124460D02*
X15304658Y-14114936D01*
X15666563Y-14133984D02*
X15666563Y-13933984D01*
X15752277Y-14133984D02*
X15752277Y-14029222D01*
X15752277Y-14029222D02*
X15742753Y-14010174D01*
X15742753Y-14010174D02*
X15723706Y-14000650D01*
X15723706Y-14000650D02*
X15695134Y-14000650D01*
X15695134Y-14000650D02*
X15676087Y-14010174D01*
X15676087Y-14010174D02*
X15666563Y-14019698D01*
X15876087Y-14133984D02*
X15857039Y-14124460D01*
X15857039Y-14124460D02*
X15847515Y-14114936D01*
X15847515Y-14114936D02*
X15837991Y-14095888D01*
X15837991Y-14095888D02*
X15837991Y-14038746D01*
X15837991Y-14038746D02*
X15847515Y-14019698D01*
X15847515Y-14019698D02*
X15857039Y-14010174D01*
X15857039Y-14010174D02*
X15876087Y-14000650D01*
X15876087Y-14000650D02*
X15904658Y-14000650D01*
X15904658Y-14000650D02*
X15923706Y-14010174D01*
X15923706Y-14010174D02*
X15933230Y-14019698D01*
X15933230Y-14019698D02*
X15942753Y-14038746D01*
X15942753Y-14038746D02*
X15942753Y-14095888D01*
X15942753Y-14095888D02*
X15933230Y-14114936D01*
X15933230Y-14114936D02*
X15923706Y-14124460D01*
X15923706Y-14124460D02*
X15904658Y-14133984D01*
X15904658Y-14133984D02*
X15876087Y-14133984D01*
X16057039Y-14133984D02*
X16037991Y-14124460D01*
X16037991Y-14124460D02*
X16028468Y-14105412D01*
X16028468Y-14105412D02*
X16028468Y-13933984D01*
X16209420Y-14124460D02*
X16190372Y-14133984D01*
X16190372Y-14133984D02*
X16152277Y-14133984D01*
X16152277Y-14133984D02*
X16133230Y-14124460D01*
X16133230Y-14124460D02*
X16123706Y-14105412D01*
X16123706Y-14105412D02*
X16123706Y-14029222D01*
X16123706Y-14029222D02*
X16133230Y-14010174D01*
X16133230Y-14010174D02*
X16152277Y-14000650D01*
X16152277Y-14000650D02*
X16190372Y-14000650D01*
X16190372Y-14000650D02*
X16209420Y-14010174D01*
X16209420Y-14010174D02*
X16218944Y-14029222D01*
X16218944Y-14029222D02*
X16218944Y-14048269D01*
X16218944Y-14048269D02*
X16123706Y-14067317D01*
X16295134Y-14124460D02*
X16314182Y-14133984D01*
X16314182Y-14133984D02*
X16352277Y-14133984D01*
X16352277Y-14133984D02*
X16371325Y-14124460D01*
X16371325Y-14124460D02*
X16380849Y-14105412D01*
X16380849Y-14105412D02*
X16380849Y-14095888D01*
X16380849Y-14095888D02*
X16371325Y-14076841D01*
X16371325Y-14076841D02*
X16352277Y-14067317D01*
X16352277Y-14067317D02*
X16323706Y-14067317D01*
X16323706Y-14067317D02*
X16304658Y-14057793D01*
X16304658Y-14057793D02*
X16295134Y-14038746D01*
X16295134Y-14038746D02*
X16295134Y-14029222D01*
X16295134Y-14029222D02*
X16304658Y-14010174D01*
X16304658Y-14010174D02*
X16323706Y-14000650D01*
X16323706Y-14000650D02*
X16352277Y-14000650D01*
X16352277Y-14000650D02*
X16371325Y-14010174D01*
X16447515Y-14210174D02*
X16457039Y-14200650D01*
X16457039Y-14200650D02*
X16476087Y-14172079D01*
X16476087Y-14172079D02*
X16485611Y-14153031D01*
X16485611Y-14153031D02*
X16495134Y-14124460D01*
X16495134Y-14124460D02*
X16504658Y-14076841D01*
X16504658Y-14076841D02*
X16504658Y-14038746D01*
X16504658Y-14038746D02*
X16495134Y-13991127D01*
X16495134Y-13991127D02*
X16485611Y-13962555D01*
X16485611Y-13962555D02*
X16476087Y-13943508D01*
X16476087Y-13943508D02*
X16457039Y-13914936D01*
X16457039Y-13914936D02*
X16447515Y-13905412D01*
D12*
X11291500Y-14306500D02*
G75*
G02*
X11191500Y-14306500I-50000J0D01*
G01*
X11191500Y-14306500D02*
G75*
G02*
X11291500Y-14306500I50000J0D01*
G01*
D11*
X11657039Y-14397984D02*
X11542753Y-14397984D01*
X11599896Y-14397984D02*
X11599896Y-14197984D01*
X11599896Y-14197984D02*
X11580848Y-14226555D01*
X11580848Y-14226555D02*
X11561801Y-14245603D01*
X11561801Y-14245603D02*
X11542753Y-14255127D01*
X11742753Y-14378936D02*
X11752277Y-14388460D01*
X11752277Y-14388460D02*
X11742753Y-14397984D01*
X11742753Y-14397984D02*
X11733229Y-14388460D01*
X11733229Y-14388460D02*
X11742753Y-14378936D01*
X11742753Y-14378936D02*
X11742753Y-14397984D01*
X11876086Y-14197984D02*
X11895134Y-14197984D01*
X11895134Y-14197984D02*
X11914182Y-14207508D01*
X11914182Y-14207508D02*
X11923705Y-14217031D01*
X11923705Y-14217031D02*
X11933229Y-14236079D01*
X11933229Y-14236079D02*
X11942753Y-14274174D01*
X11942753Y-14274174D02*
X11942753Y-14321793D01*
X11942753Y-14321793D02*
X11933229Y-14359888D01*
X11933229Y-14359888D02*
X11923705Y-14378936D01*
X11923705Y-14378936D02*
X11914182Y-14388460D01*
X11914182Y-14388460D02*
X11895134Y-14397984D01*
X11895134Y-14397984D02*
X11876086Y-14397984D01*
X11876086Y-14397984D02*
X11857039Y-14388460D01*
X11857039Y-14388460D02*
X11847515Y-14378936D01*
X11847515Y-14378936D02*
X11837991Y-14359888D01*
X11837991Y-14359888D02*
X11828467Y-14321793D01*
X11828467Y-14321793D02*
X11828467Y-14274174D01*
X11828467Y-14274174D02*
X11837991Y-14236079D01*
X11837991Y-14236079D02*
X11847515Y-14217031D01*
X11847515Y-14217031D02*
X11857039Y-14207508D01*
X11857039Y-14207508D02*
X11876086Y-14197984D01*
X12066562Y-14197984D02*
X12085610Y-14197984D01*
X12085610Y-14197984D02*
X12104658Y-14207508D01*
X12104658Y-14207508D02*
X12114182Y-14217031D01*
X12114182Y-14217031D02*
X12123705Y-14236079D01*
X12123705Y-14236079D02*
X12133229Y-14274174D01*
X12133229Y-14274174D02*
X12133229Y-14321793D01*
X12133229Y-14321793D02*
X12123705Y-14359888D01*
X12123705Y-14359888D02*
X12114182Y-14378936D01*
X12114182Y-14378936D02*
X12104658Y-14388460D01*
X12104658Y-14388460D02*
X12085610Y-14397984D01*
X12085610Y-14397984D02*
X12066562Y-14397984D01*
X12066562Y-14397984D02*
X12047515Y-14388460D01*
X12047515Y-14388460D02*
X12037991Y-14378936D01*
X12037991Y-14378936D02*
X12028467Y-14359888D01*
X12028467Y-14359888D02*
X12018943Y-14321793D01*
X12018943Y-14321793D02*
X12018943Y-14274174D01*
X12018943Y-14274174D02*
X12028467Y-14236079D01*
X12028467Y-14236079D02*
X12037991Y-14217031D01*
X12037991Y-14217031D02*
X12047515Y-14207508D01*
X12047515Y-14207508D02*
X12066562Y-14197984D01*
X12257039Y-14197984D02*
X12276086Y-14197984D01*
X12276086Y-14197984D02*
X12295134Y-14207508D01*
X12295134Y-14207508D02*
X12304658Y-14217031D01*
X12304658Y-14217031D02*
X12314182Y-14236079D01*
X12314182Y-14236079D02*
X12323705Y-14274174D01*
X12323705Y-14274174D02*
X12323705Y-14321793D01*
X12323705Y-14321793D02*
X12314182Y-14359888D01*
X12314182Y-14359888D02*
X12304658Y-14378936D01*
X12304658Y-14378936D02*
X12295134Y-14388460D01*
X12295134Y-14388460D02*
X12276086Y-14397984D01*
X12276086Y-14397984D02*
X12257039Y-14397984D01*
X12257039Y-14397984D02*
X12237991Y-14388460D01*
X12237991Y-14388460D02*
X12228467Y-14378936D01*
X12228467Y-14378936D02*
X12218943Y-14359888D01*
X12218943Y-14359888D02*
X12209420Y-14321793D01*
X12209420Y-14321793D02*
X12209420Y-14274174D01*
X12209420Y-14274174D02*
X12218943Y-14236079D01*
X12218943Y-14236079D02*
X12228467Y-14217031D01*
X12228467Y-14217031D02*
X12237991Y-14207508D01*
X12237991Y-14207508D02*
X12257039Y-14197984D01*
X12409420Y-14397984D02*
X12409420Y-14264650D01*
X12409420Y-14283698D02*
X12418943Y-14274174D01*
X12418943Y-14274174D02*
X12437991Y-14264650D01*
X12437991Y-14264650D02*
X12466563Y-14264650D01*
X12466563Y-14264650D02*
X12485610Y-14274174D01*
X12485610Y-14274174D02*
X12495134Y-14293222D01*
X12495134Y-14293222D02*
X12495134Y-14397984D01*
X12495134Y-14293222D02*
X12504658Y-14274174D01*
X12504658Y-14274174D02*
X12523705Y-14264650D01*
X12523705Y-14264650D02*
X12552277Y-14264650D01*
X12552277Y-14264650D02*
X12571324Y-14274174D01*
X12571324Y-14274174D02*
X12580848Y-14293222D01*
X12580848Y-14293222D02*
X12580848Y-14397984D01*
X12676086Y-14397984D02*
X12676086Y-14264650D01*
X12676086Y-14283698D02*
X12685610Y-14274174D01*
X12685610Y-14274174D02*
X12704658Y-14264650D01*
X12704658Y-14264650D02*
X12733229Y-14264650D01*
X12733229Y-14264650D02*
X12752277Y-14274174D01*
X12752277Y-14274174D02*
X12761801Y-14293222D01*
X12761801Y-14293222D02*
X12761801Y-14397984D01*
X12761801Y-14293222D02*
X12771324Y-14274174D01*
X12771324Y-14274174D02*
X12790372Y-14264650D01*
X12790372Y-14264650D02*
X12818943Y-14264650D01*
X12818943Y-14264650D02*
X12837991Y-14274174D01*
X12837991Y-14274174D02*
X12847515Y-14293222D01*
X12847515Y-14293222D02*
X12847515Y-14397984D01*
X13237991Y-14188460D02*
X13066563Y-14445603D01*
X13495134Y-14197984D02*
X13514182Y-14197984D01*
X13514182Y-14197984D02*
X13533229Y-14207508D01*
X13533229Y-14207508D02*
X13542753Y-14217031D01*
X13542753Y-14217031D02*
X13552277Y-14236079D01*
X13552277Y-14236079D02*
X13561801Y-14274174D01*
X13561801Y-14274174D02*
X13561801Y-14321793D01*
X13561801Y-14321793D02*
X13552277Y-14359888D01*
X13552277Y-14359888D02*
X13542753Y-14378936D01*
X13542753Y-14378936D02*
X13533229Y-14388460D01*
X13533229Y-14388460D02*
X13514182Y-14397984D01*
X13514182Y-14397984D02*
X13495134Y-14397984D01*
X13495134Y-14397984D02*
X13476086Y-14388460D01*
X13476086Y-14388460D02*
X13466563Y-14378936D01*
X13466563Y-14378936D02*
X13457039Y-14359888D01*
X13457039Y-14359888D02*
X13447515Y-14321793D01*
X13447515Y-14321793D02*
X13447515Y-14274174D01*
X13447515Y-14274174D02*
X13457039Y-14236079D01*
X13457039Y-14236079D02*
X13466563Y-14217031D01*
X13466563Y-14217031D02*
X13476086Y-14207508D01*
X13476086Y-14207508D02*
X13495134Y-14197984D01*
X13647515Y-14378936D02*
X13657039Y-14388460D01*
X13657039Y-14388460D02*
X13647515Y-14397984D01*
X13647515Y-14397984D02*
X13637991Y-14388460D01*
X13637991Y-14388460D02*
X13647515Y-14378936D01*
X13647515Y-14378936D02*
X13647515Y-14397984D01*
X13780848Y-14197984D02*
X13799896Y-14197984D01*
X13799896Y-14197984D02*
X13818944Y-14207508D01*
X13818944Y-14207508D02*
X13828467Y-14217031D01*
X13828467Y-14217031D02*
X13837991Y-14236079D01*
X13837991Y-14236079D02*
X13847515Y-14274174D01*
X13847515Y-14274174D02*
X13847515Y-14321793D01*
X13847515Y-14321793D02*
X13837991Y-14359888D01*
X13837991Y-14359888D02*
X13828467Y-14378936D01*
X13828467Y-14378936D02*
X13818944Y-14388460D01*
X13818944Y-14388460D02*
X13799896Y-14397984D01*
X13799896Y-14397984D02*
X13780848Y-14397984D01*
X13780848Y-14397984D02*
X13761801Y-14388460D01*
X13761801Y-14388460D02*
X13752277Y-14378936D01*
X13752277Y-14378936D02*
X13742753Y-14359888D01*
X13742753Y-14359888D02*
X13733229Y-14321793D01*
X13733229Y-14321793D02*
X13733229Y-14274174D01*
X13733229Y-14274174D02*
X13742753Y-14236079D01*
X13742753Y-14236079D02*
X13752277Y-14217031D01*
X13752277Y-14217031D02*
X13761801Y-14207508D01*
X13761801Y-14207508D02*
X13780848Y-14197984D01*
X13914182Y-14197984D02*
X14037991Y-14197984D01*
X14037991Y-14197984D02*
X13971325Y-14274174D01*
X13971325Y-14274174D02*
X13999896Y-14274174D01*
X13999896Y-14274174D02*
X14018944Y-14283698D01*
X14018944Y-14283698D02*
X14028467Y-14293222D01*
X14028467Y-14293222D02*
X14037991Y-14312269D01*
X14037991Y-14312269D02*
X14037991Y-14359888D01*
X14037991Y-14359888D02*
X14028467Y-14378936D01*
X14028467Y-14378936D02*
X14018944Y-14388460D01*
X14018944Y-14388460D02*
X13999896Y-14397984D01*
X13999896Y-14397984D02*
X13942753Y-14397984D01*
X13942753Y-14397984D02*
X13923706Y-14388460D01*
X13923706Y-14388460D02*
X13914182Y-14378936D01*
X14133229Y-14397984D02*
X14171325Y-14397984D01*
X14171325Y-14397984D02*
X14190372Y-14388460D01*
X14190372Y-14388460D02*
X14199896Y-14378936D01*
X14199896Y-14378936D02*
X14218944Y-14350365D01*
X14218944Y-14350365D02*
X14228467Y-14312269D01*
X14228467Y-14312269D02*
X14228467Y-14236079D01*
X14228467Y-14236079D02*
X14218944Y-14217031D01*
X14218944Y-14217031D02*
X14209420Y-14207508D01*
X14209420Y-14207508D02*
X14190372Y-14197984D01*
X14190372Y-14197984D02*
X14152277Y-14197984D01*
X14152277Y-14197984D02*
X14133229Y-14207508D01*
X14133229Y-14207508D02*
X14123706Y-14217031D01*
X14123706Y-14217031D02*
X14114182Y-14236079D01*
X14114182Y-14236079D02*
X14114182Y-14283698D01*
X14114182Y-14283698D02*
X14123706Y-14302746D01*
X14123706Y-14302746D02*
X14133229Y-14312269D01*
X14133229Y-14312269D02*
X14152277Y-14321793D01*
X14152277Y-14321793D02*
X14190372Y-14321793D01*
X14190372Y-14321793D02*
X14209420Y-14312269D01*
X14209420Y-14312269D02*
X14218944Y-14302746D01*
X14218944Y-14302746D02*
X14228467Y-14283698D01*
X14399896Y-14264650D02*
X14399896Y-14397984D01*
X14352277Y-14188460D02*
X14304658Y-14331317D01*
X14304658Y-14331317D02*
X14428467Y-14331317D01*
X14495134Y-14197984D02*
X14495134Y-14236079D01*
X14571325Y-14197984D02*
X14571325Y-14236079D01*
X14866563Y-14474174D02*
X14857039Y-14464650D01*
X14857039Y-14464650D02*
X14837991Y-14436079D01*
X14837991Y-14436079D02*
X14828468Y-14417031D01*
X14828468Y-14417031D02*
X14818944Y-14388460D01*
X14818944Y-14388460D02*
X14809420Y-14340841D01*
X14809420Y-14340841D02*
X14809420Y-14302746D01*
X14809420Y-14302746D02*
X14818944Y-14255127D01*
X14818944Y-14255127D02*
X14828468Y-14226555D01*
X14828468Y-14226555D02*
X14837991Y-14207508D01*
X14837991Y-14207508D02*
X14857039Y-14178936D01*
X14857039Y-14178936D02*
X14866563Y-14169412D01*
X15047515Y-14397984D02*
X14933229Y-14397984D01*
X14990372Y-14397984D02*
X14990372Y-14197984D01*
X14990372Y-14197984D02*
X14971325Y-14226555D01*
X14971325Y-14226555D02*
X14952277Y-14245603D01*
X14952277Y-14245603D02*
X14933229Y-14255127D01*
X15114182Y-14197984D02*
X15237991Y-14197984D01*
X15237991Y-14197984D02*
X15171325Y-14274174D01*
X15171325Y-14274174D02*
X15199896Y-14274174D01*
X15199896Y-14274174D02*
X15218944Y-14283698D01*
X15218944Y-14283698D02*
X15228468Y-14293222D01*
X15228468Y-14293222D02*
X15237991Y-14312269D01*
X15237991Y-14312269D02*
X15237991Y-14359888D01*
X15237991Y-14359888D02*
X15228468Y-14378936D01*
X15228468Y-14378936D02*
X15218944Y-14388460D01*
X15218944Y-14388460D02*
X15199896Y-14397984D01*
X15199896Y-14397984D02*
X15142753Y-14397984D01*
X15142753Y-14397984D02*
X15123706Y-14388460D01*
X15123706Y-14388460D02*
X15114182Y-14378936D01*
X15333229Y-14397984D02*
X15371325Y-14397984D01*
X15371325Y-14397984D02*
X15390372Y-14388460D01*
X15390372Y-14388460D02*
X15399896Y-14378936D01*
X15399896Y-14378936D02*
X15418944Y-14350365D01*
X15418944Y-14350365D02*
X15428468Y-14312269D01*
X15428468Y-14312269D02*
X15428468Y-14236079D01*
X15428468Y-14236079D02*
X15418944Y-14217031D01*
X15418944Y-14217031D02*
X15409420Y-14207508D01*
X15409420Y-14207508D02*
X15390372Y-14197984D01*
X15390372Y-14197984D02*
X15352277Y-14197984D01*
X15352277Y-14197984D02*
X15333229Y-14207508D01*
X15333229Y-14207508D02*
X15323706Y-14217031D01*
X15323706Y-14217031D02*
X15314182Y-14236079D01*
X15314182Y-14236079D02*
X15314182Y-14283698D01*
X15314182Y-14283698D02*
X15323706Y-14302746D01*
X15323706Y-14302746D02*
X15333229Y-14312269D01*
X15333229Y-14312269D02*
X15352277Y-14321793D01*
X15352277Y-14321793D02*
X15390372Y-14321793D01*
X15390372Y-14321793D02*
X15409420Y-14312269D01*
X15409420Y-14312269D02*
X15418944Y-14302746D01*
X15418944Y-14302746D02*
X15428468Y-14283698D01*
X15666563Y-14397984D02*
X15666563Y-14197984D01*
X15752277Y-14397984D02*
X15752277Y-14293222D01*
X15752277Y-14293222D02*
X15742753Y-14274174D01*
X15742753Y-14274174D02*
X15723706Y-14264650D01*
X15723706Y-14264650D02*
X15695134Y-14264650D01*
X15695134Y-14264650D02*
X15676087Y-14274174D01*
X15676087Y-14274174D02*
X15666563Y-14283698D01*
X15876087Y-14397984D02*
X15857039Y-14388460D01*
X15857039Y-14388460D02*
X15847515Y-14378936D01*
X15847515Y-14378936D02*
X15837991Y-14359888D01*
X15837991Y-14359888D02*
X15837991Y-14302746D01*
X15837991Y-14302746D02*
X15847515Y-14283698D01*
X15847515Y-14283698D02*
X15857039Y-14274174D01*
X15857039Y-14274174D02*
X15876087Y-14264650D01*
X15876087Y-14264650D02*
X15904658Y-14264650D01*
X15904658Y-14264650D02*
X15923706Y-14274174D01*
X15923706Y-14274174D02*
X15933230Y-14283698D01*
X15933230Y-14283698D02*
X15942753Y-14302746D01*
X15942753Y-14302746D02*
X15942753Y-14359888D01*
X15942753Y-14359888D02*
X15933230Y-14378936D01*
X15933230Y-14378936D02*
X15923706Y-14388460D01*
X15923706Y-14388460D02*
X15904658Y-14397984D01*
X15904658Y-14397984D02*
X15876087Y-14397984D01*
X16057039Y-14397984D02*
X16037991Y-14388460D01*
X16037991Y-14388460D02*
X16028468Y-14369412D01*
X16028468Y-14369412D02*
X16028468Y-14197984D01*
X16209420Y-14388460D02*
X16190372Y-14397984D01*
X16190372Y-14397984D02*
X16152277Y-14397984D01*
X16152277Y-14397984D02*
X16133230Y-14388460D01*
X16133230Y-14388460D02*
X16123706Y-14369412D01*
X16123706Y-14369412D02*
X16123706Y-14293222D01*
X16123706Y-14293222D02*
X16133230Y-14274174D01*
X16133230Y-14274174D02*
X16152277Y-14264650D01*
X16152277Y-14264650D02*
X16190372Y-14264650D01*
X16190372Y-14264650D02*
X16209420Y-14274174D01*
X16209420Y-14274174D02*
X16218944Y-14293222D01*
X16218944Y-14293222D02*
X16218944Y-14312269D01*
X16218944Y-14312269D02*
X16123706Y-14331317D01*
X16295134Y-14388460D02*
X16314182Y-14397984D01*
X16314182Y-14397984D02*
X16352277Y-14397984D01*
X16352277Y-14397984D02*
X16371325Y-14388460D01*
X16371325Y-14388460D02*
X16380849Y-14369412D01*
X16380849Y-14369412D02*
X16380849Y-14359888D01*
X16380849Y-14359888D02*
X16371325Y-14340841D01*
X16371325Y-14340841D02*
X16352277Y-14331317D01*
X16352277Y-14331317D02*
X16323706Y-14331317D01*
X16323706Y-14331317D02*
X16304658Y-14321793D01*
X16304658Y-14321793D02*
X16295134Y-14302746D01*
X16295134Y-14302746D02*
X16295134Y-14293222D01*
X16295134Y-14293222D02*
X16304658Y-14274174D01*
X16304658Y-14274174D02*
X16323706Y-14264650D01*
X16323706Y-14264650D02*
X16352277Y-14264650D01*
X16352277Y-14264650D02*
X16371325Y-14274174D01*
X16447515Y-14474174D02*
X16457039Y-14464650D01*
X16457039Y-14464650D02*
X16476087Y-14436079D01*
X16476087Y-14436079D02*
X16485611Y-14417031D01*
X16485611Y-14417031D02*
X16495134Y-14388460D01*
X16495134Y-14388460D02*
X16504658Y-14340841D01*
X16504658Y-14340841D02*
X16504658Y-14302746D01*
X16504658Y-14302746D02*
X16495134Y-14255127D01*
X16495134Y-14255127D02*
X16485611Y-14226555D01*
X16485611Y-14226555D02*
X16476087Y-14207508D01*
X16476087Y-14207508D02*
X16457039Y-14178936D01*
X16457039Y-14178936D02*
X16447515Y-14169412D01*
X11191500Y-14470500D02*
X11191500Y-14670500D01*
X11091500Y-14570500D02*
X11291500Y-14570500D01*
X11542753Y-14481031D02*
X11552277Y-14471508D01*
X11552277Y-14471508D02*
X11571324Y-14461984D01*
X11571324Y-14461984D02*
X11618943Y-14461984D01*
X11618943Y-14461984D02*
X11637991Y-14471508D01*
X11637991Y-14471508D02*
X11647515Y-14481031D01*
X11647515Y-14481031D02*
X11657039Y-14500079D01*
X11657039Y-14500079D02*
X11657039Y-14519127D01*
X11657039Y-14519127D02*
X11647515Y-14547698D01*
X11647515Y-14547698D02*
X11533229Y-14661984D01*
X11533229Y-14661984D02*
X11657039Y-14661984D01*
X11742753Y-14642936D02*
X11752277Y-14652460D01*
X11752277Y-14652460D02*
X11742753Y-14661984D01*
X11742753Y-14661984D02*
X11733229Y-14652460D01*
X11733229Y-14652460D02*
X11742753Y-14642936D01*
X11742753Y-14642936D02*
X11742753Y-14661984D01*
X11818943Y-14461984D02*
X11952277Y-14461984D01*
X11952277Y-14461984D02*
X11866562Y-14661984D01*
X12066562Y-14461984D02*
X12085610Y-14461984D01*
X12085610Y-14461984D02*
X12104658Y-14471508D01*
X12104658Y-14471508D02*
X12114182Y-14481031D01*
X12114182Y-14481031D02*
X12123705Y-14500079D01*
X12123705Y-14500079D02*
X12133229Y-14538174D01*
X12133229Y-14538174D02*
X12133229Y-14585793D01*
X12133229Y-14585793D02*
X12123705Y-14623888D01*
X12123705Y-14623888D02*
X12114182Y-14642936D01*
X12114182Y-14642936D02*
X12104658Y-14652460D01*
X12104658Y-14652460D02*
X12085610Y-14661984D01*
X12085610Y-14661984D02*
X12066562Y-14661984D01*
X12066562Y-14661984D02*
X12047515Y-14652460D01*
X12047515Y-14652460D02*
X12037991Y-14642936D01*
X12037991Y-14642936D02*
X12028467Y-14623888D01*
X12028467Y-14623888D02*
X12018943Y-14585793D01*
X12018943Y-14585793D02*
X12018943Y-14538174D01*
X12018943Y-14538174D02*
X12028467Y-14500079D01*
X12028467Y-14500079D02*
X12037991Y-14481031D01*
X12037991Y-14481031D02*
X12047515Y-14471508D01*
X12047515Y-14471508D02*
X12066562Y-14461984D01*
X12257039Y-14461984D02*
X12276086Y-14461984D01*
X12276086Y-14461984D02*
X12295134Y-14471508D01*
X12295134Y-14471508D02*
X12304658Y-14481031D01*
X12304658Y-14481031D02*
X12314182Y-14500079D01*
X12314182Y-14500079D02*
X12323705Y-14538174D01*
X12323705Y-14538174D02*
X12323705Y-14585793D01*
X12323705Y-14585793D02*
X12314182Y-14623888D01*
X12314182Y-14623888D02*
X12304658Y-14642936D01*
X12304658Y-14642936D02*
X12295134Y-14652460D01*
X12295134Y-14652460D02*
X12276086Y-14661984D01*
X12276086Y-14661984D02*
X12257039Y-14661984D01*
X12257039Y-14661984D02*
X12237991Y-14652460D01*
X12237991Y-14652460D02*
X12228467Y-14642936D01*
X12228467Y-14642936D02*
X12218943Y-14623888D01*
X12218943Y-14623888D02*
X12209420Y-14585793D01*
X12209420Y-14585793D02*
X12209420Y-14538174D01*
X12209420Y-14538174D02*
X12218943Y-14500079D01*
X12218943Y-14500079D02*
X12228467Y-14481031D01*
X12228467Y-14481031D02*
X12237991Y-14471508D01*
X12237991Y-14471508D02*
X12257039Y-14461984D01*
X12409420Y-14661984D02*
X12409420Y-14528650D01*
X12409420Y-14547698D02*
X12418943Y-14538174D01*
X12418943Y-14538174D02*
X12437991Y-14528650D01*
X12437991Y-14528650D02*
X12466563Y-14528650D01*
X12466563Y-14528650D02*
X12485610Y-14538174D01*
X12485610Y-14538174D02*
X12495134Y-14557222D01*
X12495134Y-14557222D02*
X12495134Y-14661984D01*
X12495134Y-14557222D02*
X12504658Y-14538174D01*
X12504658Y-14538174D02*
X12523705Y-14528650D01*
X12523705Y-14528650D02*
X12552277Y-14528650D01*
X12552277Y-14528650D02*
X12571324Y-14538174D01*
X12571324Y-14538174D02*
X12580848Y-14557222D01*
X12580848Y-14557222D02*
X12580848Y-14661984D01*
X12676086Y-14661984D02*
X12676086Y-14528650D01*
X12676086Y-14547698D02*
X12685610Y-14538174D01*
X12685610Y-14538174D02*
X12704658Y-14528650D01*
X12704658Y-14528650D02*
X12733229Y-14528650D01*
X12733229Y-14528650D02*
X12752277Y-14538174D01*
X12752277Y-14538174D02*
X12761801Y-14557222D01*
X12761801Y-14557222D02*
X12761801Y-14661984D01*
X12761801Y-14557222D02*
X12771324Y-14538174D01*
X12771324Y-14538174D02*
X12790372Y-14528650D01*
X12790372Y-14528650D02*
X12818943Y-14528650D01*
X12818943Y-14528650D02*
X12837991Y-14538174D01*
X12837991Y-14538174D02*
X12847515Y-14557222D01*
X12847515Y-14557222D02*
X12847515Y-14661984D01*
X13237991Y-14452460D02*
X13066563Y-14709603D01*
X13495134Y-14461984D02*
X13514182Y-14461984D01*
X13514182Y-14461984D02*
X13533229Y-14471508D01*
X13533229Y-14471508D02*
X13542753Y-14481031D01*
X13542753Y-14481031D02*
X13552277Y-14500079D01*
X13552277Y-14500079D02*
X13561801Y-14538174D01*
X13561801Y-14538174D02*
X13561801Y-14585793D01*
X13561801Y-14585793D02*
X13552277Y-14623888D01*
X13552277Y-14623888D02*
X13542753Y-14642936D01*
X13542753Y-14642936D02*
X13533229Y-14652460D01*
X13533229Y-14652460D02*
X13514182Y-14661984D01*
X13514182Y-14661984D02*
X13495134Y-14661984D01*
X13495134Y-14661984D02*
X13476086Y-14652460D01*
X13476086Y-14652460D02*
X13466563Y-14642936D01*
X13466563Y-14642936D02*
X13457039Y-14623888D01*
X13457039Y-14623888D02*
X13447515Y-14585793D01*
X13447515Y-14585793D02*
X13447515Y-14538174D01*
X13447515Y-14538174D02*
X13457039Y-14500079D01*
X13457039Y-14500079D02*
X13466563Y-14481031D01*
X13466563Y-14481031D02*
X13476086Y-14471508D01*
X13476086Y-14471508D02*
X13495134Y-14461984D01*
X13647515Y-14642936D02*
X13657039Y-14652460D01*
X13657039Y-14652460D02*
X13647515Y-14661984D01*
X13647515Y-14661984D02*
X13637991Y-14652460D01*
X13637991Y-14652460D02*
X13647515Y-14642936D01*
X13647515Y-14642936D02*
X13647515Y-14661984D01*
X13847515Y-14661984D02*
X13733229Y-14661984D01*
X13790372Y-14661984D02*
X13790372Y-14461984D01*
X13790372Y-14461984D02*
X13771325Y-14490555D01*
X13771325Y-14490555D02*
X13752277Y-14509603D01*
X13752277Y-14509603D02*
X13733229Y-14519127D01*
X13971325Y-14461984D02*
X13990372Y-14461984D01*
X13990372Y-14461984D02*
X14009420Y-14471508D01*
X14009420Y-14471508D02*
X14018944Y-14481031D01*
X14018944Y-14481031D02*
X14028467Y-14500079D01*
X14028467Y-14500079D02*
X14037991Y-14538174D01*
X14037991Y-14538174D02*
X14037991Y-14585793D01*
X14037991Y-14585793D02*
X14028467Y-14623888D01*
X14028467Y-14623888D02*
X14018944Y-14642936D01*
X14018944Y-14642936D02*
X14009420Y-14652460D01*
X14009420Y-14652460D02*
X13990372Y-14661984D01*
X13990372Y-14661984D02*
X13971325Y-14661984D01*
X13971325Y-14661984D02*
X13952277Y-14652460D01*
X13952277Y-14652460D02*
X13942753Y-14642936D01*
X13942753Y-14642936D02*
X13933229Y-14623888D01*
X13933229Y-14623888D02*
X13923706Y-14585793D01*
X13923706Y-14585793D02*
X13923706Y-14538174D01*
X13923706Y-14538174D02*
X13933229Y-14500079D01*
X13933229Y-14500079D02*
X13942753Y-14481031D01*
X13942753Y-14481031D02*
X13952277Y-14471508D01*
X13952277Y-14471508D02*
X13971325Y-14461984D01*
X14209420Y-14461984D02*
X14171325Y-14461984D01*
X14171325Y-14461984D02*
X14152277Y-14471508D01*
X14152277Y-14471508D02*
X14142753Y-14481031D01*
X14142753Y-14481031D02*
X14123706Y-14509603D01*
X14123706Y-14509603D02*
X14114182Y-14547698D01*
X14114182Y-14547698D02*
X14114182Y-14623888D01*
X14114182Y-14623888D02*
X14123706Y-14642936D01*
X14123706Y-14642936D02*
X14133229Y-14652460D01*
X14133229Y-14652460D02*
X14152277Y-14661984D01*
X14152277Y-14661984D02*
X14190372Y-14661984D01*
X14190372Y-14661984D02*
X14209420Y-14652460D01*
X14209420Y-14652460D02*
X14218944Y-14642936D01*
X14218944Y-14642936D02*
X14228467Y-14623888D01*
X14228467Y-14623888D02*
X14228467Y-14576269D01*
X14228467Y-14576269D02*
X14218944Y-14557222D01*
X14218944Y-14557222D02*
X14209420Y-14547698D01*
X14209420Y-14547698D02*
X14190372Y-14538174D01*
X14190372Y-14538174D02*
X14152277Y-14538174D01*
X14152277Y-14538174D02*
X14133229Y-14547698D01*
X14133229Y-14547698D02*
X14123706Y-14557222D01*
X14123706Y-14557222D02*
X14114182Y-14576269D01*
X14295134Y-14461984D02*
X14418944Y-14461984D01*
X14418944Y-14461984D02*
X14352277Y-14538174D01*
X14352277Y-14538174D02*
X14380848Y-14538174D01*
X14380848Y-14538174D02*
X14399896Y-14547698D01*
X14399896Y-14547698D02*
X14409420Y-14557222D01*
X14409420Y-14557222D02*
X14418944Y-14576269D01*
X14418944Y-14576269D02*
X14418944Y-14623888D01*
X14418944Y-14623888D02*
X14409420Y-14642936D01*
X14409420Y-14642936D02*
X14399896Y-14652460D01*
X14399896Y-14652460D02*
X14380848Y-14661984D01*
X14380848Y-14661984D02*
X14323706Y-14661984D01*
X14323706Y-14661984D02*
X14304658Y-14652460D01*
X14304658Y-14652460D02*
X14295134Y-14642936D01*
X14495134Y-14461984D02*
X14495134Y-14500079D01*
X14571325Y-14461984D02*
X14571325Y-14500079D01*
X14866563Y-14738174D02*
X14857039Y-14728650D01*
X14857039Y-14728650D02*
X14837991Y-14700079D01*
X14837991Y-14700079D02*
X14828468Y-14681031D01*
X14828468Y-14681031D02*
X14818944Y-14652460D01*
X14818944Y-14652460D02*
X14809420Y-14604841D01*
X14809420Y-14604841D02*
X14809420Y-14566746D01*
X14809420Y-14566746D02*
X14818944Y-14519127D01*
X14818944Y-14519127D02*
X14828468Y-14490555D01*
X14828468Y-14490555D02*
X14837991Y-14471508D01*
X14837991Y-14471508D02*
X14857039Y-14442936D01*
X14857039Y-14442936D02*
X14866563Y-14433412D01*
X15028468Y-14528650D02*
X15028468Y-14661984D01*
X14980848Y-14452460D02*
X14933229Y-14595317D01*
X14933229Y-14595317D02*
X15057039Y-14595317D01*
X15285610Y-14661984D02*
X15285610Y-14461984D01*
X15371325Y-14661984D02*
X15371325Y-14557222D01*
X15371325Y-14557222D02*
X15361801Y-14538174D01*
X15361801Y-14538174D02*
X15342753Y-14528650D01*
X15342753Y-14528650D02*
X15314182Y-14528650D01*
X15314182Y-14528650D02*
X15295134Y-14538174D01*
X15295134Y-14538174D02*
X15285610Y-14547698D01*
X15495134Y-14661984D02*
X15476087Y-14652460D01*
X15476087Y-14652460D02*
X15466563Y-14642936D01*
X15466563Y-14642936D02*
X15457039Y-14623888D01*
X15457039Y-14623888D02*
X15457039Y-14566746D01*
X15457039Y-14566746D02*
X15466563Y-14547698D01*
X15466563Y-14547698D02*
X15476087Y-14538174D01*
X15476087Y-14538174D02*
X15495134Y-14528650D01*
X15495134Y-14528650D02*
X15523706Y-14528650D01*
X15523706Y-14528650D02*
X15542753Y-14538174D01*
X15542753Y-14538174D02*
X15552277Y-14547698D01*
X15552277Y-14547698D02*
X15561801Y-14566746D01*
X15561801Y-14566746D02*
X15561801Y-14623888D01*
X15561801Y-14623888D02*
X15552277Y-14642936D01*
X15552277Y-14642936D02*
X15542753Y-14652460D01*
X15542753Y-14652460D02*
X15523706Y-14661984D01*
X15523706Y-14661984D02*
X15495134Y-14661984D01*
X15676087Y-14661984D02*
X15657039Y-14652460D01*
X15657039Y-14652460D02*
X15647515Y-14633412D01*
X15647515Y-14633412D02*
X15647515Y-14461984D01*
X15828468Y-14652460D02*
X15809420Y-14661984D01*
X15809420Y-14661984D02*
X15771325Y-14661984D01*
X15771325Y-14661984D02*
X15752277Y-14652460D01*
X15752277Y-14652460D02*
X15742753Y-14633412D01*
X15742753Y-14633412D02*
X15742753Y-14557222D01*
X15742753Y-14557222D02*
X15752277Y-14538174D01*
X15752277Y-14538174D02*
X15771325Y-14528650D01*
X15771325Y-14528650D02*
X15809420Y-14528650D01*
X15809420Y-14528650D02*
X15828468Y-14538174D01*
X15828468Y-14538174D02*
X15837991Y-14557222D01*
X15837991Y-14557222D02*
X15837991Y-14576269D01*
X15837991Y-14576269D02*
X15742753Y-14595317D01*
X15914182Y-14652460D02*
X15933230Y-14661984D01*
X15933230Y-14661984D02*
X15971325Y-14661984D01*
X15971325Y-14661984D02*
X15990372Y-14652460D01*
X15990372Y-14652460D02*
X15999896Y-14633412D01*
X15999896Y-14633412D02*
X15999896Y-14623888D01*
X15999896Y-14623888D02*
X15990372Y-14604841D01*
X15990372Y-14604841D02*
X15971325Y-14595317D01*
X15971325Y-14595317D02*
X15942753Y-14595317D01*
X15942753Y-14595317D02*
X15923706Y-14585793D01*
X15923706Y-14585793D02*
X15914182Y-14566746D01*
X15914182Y-14566746D02*
X15914182Y-14557222D01*
X15914182Y-14557222D02*
X15923706Y-14538174D01*
X15923706Y-14538174D02*
X15942753Y-14528650D01*
X15942753Y-14528650D02*
X15971325Y-14528650D01*
X15971325Y-14528650D02*
X15990372Y-14538174D01*
X16066563Y-14738174D02*
X16076087Y-14728650D01*
X16076087Y-14728650D02*
X16095134Y-14700079D01*
X16095134Y-14700079D02*
X16104658Y-14681031D01*
X16104658Y-14681031D02*
X16114182Y-14652460D01*
X16114182Y-14652460D02*
X16123706Y-14604841D01*
X16123706Y-14604841D02*
X16123706Y-14566746D01*
X16123706Y-14566746D02*
X16114182Y-14519127D01*
X16114182Y-14519127D02*
X16104658Y-14490555D01*
X16104658Y-14490555D02*
X16095134Y-14471508D01*
X16095134Y-14471508D02*
X16076087Y-14442936D01*
X16076087Y-14442936D02*
X16066563Y-14433412D01*
M02*
