G04 #@! TF.GenerationSoftware,KiCad,Pcbnew,9.0.1-9.0.1-0~ubuntu24.04.1*
G04 #@! TF.CreationDate,2025-04-10T02:26:27-04:00*
G04 #@! TF.ProjectId,EEG SHIELD,45454720-5348-4494-954c-442e6b696361,B*
G04 #@! TF.SameCoordinates,Original*
G04 #@! TF.FileFunction,Paste,Bot*
G04 #@! TF.FilePolarity,Positive*
%FSLAX46Y46*%
G04 Gerber Fmt 4.6, Leading zero omitted, Abs format (unit mm)*
G04 Created by KiCad (PCBNEW 9.0.1-9.0.1-0~ubuntu24.04.1) date 2025-04-10 02:26:27*
%MOMM*%
%LPD*%
G01*
G04 APERTURE LIST*
G04 Aperture macros list*
%AMRoundRect*
0 Rectangle with rounded corners*
0 $1 Rounding radius*
0 $2 $3 $4 $5 $6 $7 $8 $9 X,Y pos of 4 corners*
0 Add a 4 corners polygon primitive as box body*
4,1,4,$2,$3,$4,$5,$6,$7,$8,$9,$2,$3,0*
0 Add four circle primitives for the rounded corners*
1,1,$1+$1,$2,$3*
1,1,$1+$1,$4,$5*
1,1,$1+$1,$6,$7*
1,1,$1+$1,$8,$9*
0 Add four rect primitives between the rounded corners*
20,1,$1+$1,$2,$3,$4,$5,0*
20,1,$1+$1,$4,$5,$6,$7,0*
20,1,$1+$1,$6,$7,$8,$9,0*
20,1,$1+$1,$8,$9,$2,$3,0*%
G04 Aperture macros list end*
%ADD10RoundRect,0.237500X0.300000X0.237500X-0.300000X0.237500X-0.300000X-0.237500X0.300000X-0.237500X0*%
%ADD11R,0.558800X1.473200*%
%ADD12RoundRect,0.250000X-0.337500X-0.475000X0.337500X-0.475000X0.337500X0.475000X-0.337500X0.475000X0*%
%ADD13RoundRect,0.250000X0.275000X0.350000X-0.275000X0.350000X-0.275000X-0.350000X0.275000X-0.350000X0*%
%ADD14RoundRect,0.237500X-0.300000X-0.237500X0.300000X-0.237500X0.300000X0.237500X-0.300000X0.237500X0*%
%ADD15RoundRect,0.237500X0.250000X0.237500X-0.250000X0.237500X-0.250000X-0.237500X0.250000X-0.237500X0*%
%ADD16RoundRect,0.250000X-0.475000X0.337500X-0.475000X-0.337500X0.475000X-0.337500X0.475000X0.337500X0*%
%ADD17RoundRect,0.250000X0.337500X0.475000X-0.337500X0.475000X-0.337500X-0.475000X0.337500X-0.475000X0*%
%ADD18RoundRect,0.237500X-0.237500X0.300000X-0.237500X-0.300000X0.237500X-0.300000X0.237500X0.300000X0*%
%ADD19R,1.100000X0.650001*%
%ADD20RoundRect,0.237500X0.237500X-0.300000X0.237500X0.300000X-0.237500X0.300000X-0.237500X-0.300000X0*%
%ADD21RoundRect,0.237500X-0.250000X-0.237500X0.250000X-0.237500X0.250000X0.237500X-0.250000X0.237500X0*%
%ADD22RoundRect,0.237500X0.237500X-0.250000X0.237500X0.250000X-0.237500X0.250000X-0.237500X-0.250000X0*%
%ADD23RoundRect,0.250000X-0.350000X0.275000X-0.350000X-0.275000X0.350000X-0.275000X0.350000X0.275000X0*%
G04 APERTURE END LIST*
D10*
X181975000Y-97600000D03*
X180250000Y-97600000D03*
D11*
X188122498Y-99922400D03*
X189072499Y-99922400D03*
X190022500Y-99922400D03*
X190022500Y-102310000D03*
X188122498Y-102310000D03*
D12*
X176485000Y-96560000D03*
X178560000Y-96560000D03*
D13*
X186392500Y-103320000D03*
X184092500Y-103320000D03*
D14*
X133492500Y-94380000D03*
X135217500Y-94380000D03*
D15*
X132582500Y-90670000D03*
X130757500Y-90670000D03*
D16*
X178412500Y-92492500D03*
X178412500Y-94567500D03*
D17*
X186220000Y-97820000D03*
X184145000Y-97820000D03*
D14*
X189712500Y-98040000D03*
X191437500Y-98040000D03*
D18*
X179932500Y-102887502D03*
X179932500Y-104612502D03*
X182472500Y-102887502D03*
X182472500Y-104612502D03*
D15*
X196050000Y-119670000D03*
X194225000Y-119670000D03*
D12*
X184162500Y-105230000D03*
X186237500Y-105230000D03*
D19*
X182402500Y-99270001D03*
X182402500Y-100220002D03*
X182402500Y-101170000D03*
X180002500Y-101170000D03*
X180002500Y-99270001D03*
D20*
X184262500Y-95857003D03*
X184262500Y-94132003D03*
D15*
X174462500Y-102660000D03*
X172637500Y-102660000D03*
D21*
X146355000Y-99940000D03*
X148180000Y-99940000D03*
D22*
X184270000Y-92542500D03*
X184270000Y-90717500D03*
D10*
X178345000Y-99130000D03*
X176620000Y-99130000D03*
D14*
X132987500Y-100330000D03*
X134712500Y-100330000D03*
D19*
X182662500Y-94030001D03*
X182662500Y-94980002D03*
X182662500Y-95930000D03*
X180262500Y-95930000D03*
X180262500Y-94030001D03*
D10*
X196000000Y-121200000D03*
X194275000Y-121200000D03*
D23*
X176512500Y-92430000D03*
X176512500Y-94730000D03*
X188002500Y-95690000D03*
X188002500Y-97990000D03*
D13*
X178352500Y-102810000D03*
X176052500Y-102810000D03*
D21*
X146360000Y-98400000D03*
X148185000Y-98400000D03*
D20*
X191742500Y-101412500D03*
X191742500Y-99687500D03*
D14*
X136860000Y-95930000D03*
X138585000Y-95930000D03*
X133492500Y-95920000D03*
X135217500Y-95920000D03*
X180250000Y-92380000D03*
X181975000Y-92380000D03*
D17*
X178292500Y-100910000D03*
X176217500Y-100910000D03*
D15*
X188277500Y-119020000D03*
X186452500Y-119020000D03*
X174820000Y-92380000D03*
X172995000Y-92380000D03*
D18*
X173000000Y-95967500D03*
X173000000Y-97692500D03*
D14*
X132975000Y-101880000D03*
X134700000Y-101880000D03*
D21*
X146357500Y-93800000D03*
X148182500Y-93800000D03*
D10*
X186382500Y-101660000D03*
X184657500Y-101660000D03*
X188230000Y-120550000D03*
X186505000Y-120550000D03*
D21*
X146360000Y-96860000D03*
X148185000Y-96860000D03*
X146357500Y-95330000D03*
X148182500Y-95330000D03*
D15*
X174462500Y-104190000D03*
X172637500Y-104190000D03*
D12*
X176215000Y-104710000D03*
X178290000Y-104710000D03*
D14*
X136860000Y-94380000D03*
X138585000Y-94380000D03*
D12*
X189772500Y-96260000D03*
X191847500Y-96260000D03*
D17*
X186327500Y-99880000D03*
X184252500Y-99880000D03*
M02*
