%TF.GenerationSoftware,KiCad,Pcbnew,9.0.1-9.0.1-0~ubuntu24.04.1*%
%TF.CreationDate,2025-04-10T02:26:30-04:00*%
%TF.ProjectId,EEG SHIELD,45454720-5348-4494-954c-442e6b696361,B*%
%TF.SameCoordinates,Original*%
%TF.FileFunction,Drillmap*%
%TF.FilePolarity,Positive*%
%FSLAX45Y45*%
G04 Gerber Fmt 4.5, Leading zero omitted, Abs format (unit mm)*
G04 Created by KiCad (PCBNEW 9.0.1-9.0.1-0~ubuntu24.04.1) date 2025-04-10 02:26:30*
%MOMM*%
%LPD*%
G01*
G04 APERTURE LIST*
%ADD10C,0.050000*%
%ADD11C,0.200000*%
G04 APERTURE END LIST*
D10*
X19494000Y-7800000D02*
X11594000Y-7800000D01*
X11294000Y-8100000D02*
G75*
G02*
X11594000Y-7800000I300000J0D01*
G01*
X11594000Y-13400000D02*
G75*
G02*
X11294000Y-13100000I0J300000D01*
G01*
X19794000Y-13100000D02*
G75*
G02*
X19494000Y-13400000I-300000J0D01*
G01*
X19794000Y-13100000D02*
X19794000Y-8100000D01*
X11594000Y-13400000D02*
X19494000Y-13400000D01*
X11294000Y-8100000D02*
X11294000Y-13100000D01*
X19494000Y-7800000D02*
G75*
G02*
X19794000Y-8100000I0J-300000D01*
G01*
D11*
X11552277Y-13713984D02*
X11552277Y-13513984D01*
X11552277Y-13513984D02*
X11599896Y-13513984D01*
X11599896Y-13513984D02*
X11628467Y-13523508D01*
X11628467Y-13523508D02*
X11647515Y-13542555D01*
X11647515Y-13542555D02*
X11657039Y-13561603D01*
X11657039Y-13561603D02*
X11666562Y-13599698D01*
X11666562Y-13599698D02*
X11666562Y-13628269D01*
X11666562Y-13628269D02*
X11657039Y-13666365D01*
X11657039Y-13666365D02*
X11647515Y-13685412D01*
X11647515Y-13685412D02*
X11628467Y-13704460D01*
X11628467Y-13704460D02*
X11599896Y-13713984D01*
X11599896Y-13713984D02*
X11552277Y-13713984D01*
X11752277Y-13713984D02*
X11752277Y-13580650D01*
X11752277Y-13618746D02*
X11761801Y-13599698D01*
X11761801Y-13599698D02*
X11771324Y-13590174D01*
X11771324Y-13590174D02*
X11790372Y-13580650D01*
X11790372Y-13580650D02*
X11809420Y-13580650D01*
X11876086Y-13713984D02*
X11876086Y-13580650D01*
X11876086Y-13513984D02*
X11866562Y-13523508D01*
X11866562Y-13523508D02*
X11876086Y-13533031D01*
X11876086Y-13533031D02*
X11885610Y-13523508D01*
X11885610Y-13523508D02*
X11876086Y-13513984D01*
X11876086Y-13513984D02*
X11876086Y-13533031D01*
X11999896Y-13713984D02*
X11980848Y-13704460D01*
X11980848Y-13704460D02*
X11971324Y-13685412D01*
X11971324Y-13685412D02*
X11971324Y-13513984D01*
X12104658Y-13713984D02*
X12085610Y-13704460D01*
X12085610Y-13704460D02*
X12076086Y-13685412D01*
X12076086Y-13685412D02*
X12076086Y-13513984D01*
X12333229Y-13713984D02*
X12333229Y-13513984D01*
X12333229Y-13513984D02*
X12399896Y-13656841D01*
X12399896Y-13656841D02*
X12466562Y-13513984D01*
X12466562Y-13513984D02*
X12466562Y-13713984D01*
X12647515Y-13713984D02*
X12647515Y-13609222D01*
X12647515Y-13609222D02*
X12637991Y-13590174D01*
X12637991Y-13590174D02*
X12618943Y-13580650D01*
X12618943Y-13580650D02*
X12580848Y-13580650D01*
X12580848Y-13580650D02*
X12561801Y-13590174D01*
X12647515Y-13704460D02*
X12628467Y-13713984D01*
X12628467Y-13713984D02*
X12580848Y-13713984D01*
X12580848Y-13713984D02*
X12561801Y-13704460D01*
X12561801Y-13704460D02*
X12552277Y-13685412D01*
X12552277Y-13685412D02*
X12552277Y-13666365D01*
X12552277Y-13666365D02*
X12561801Y-13647317D01*
X12561801Y-13647317D02*
X12580848Y-13637793D01*
X12580848Y-13637793D02*
X12628467Y-13637793D01*
X12628467Y-13637793D02*
X12647515Y-13628269D01*
X12742753Y-13580650D02*
X12742753Y-13780650D01*
X12742753Y-13590174D02*
X12761801Y-13580650D01*
X12761801Y-13580650D02*
X12799896Y-13580650D01*
X12799896Y-13580650D02*
X12818943Y-13590174D01*
X12818943Y-13590174D02*
X12828467Y-13599698D01*
X12828467Y-13599698D02*
X12837991Y-13618746D01*
X12837991Y-13618746D02*
X12837991Y-13675888D01*
X12837991Y-13675888D02*
X12828467Y-13694936D01*
X12828467Y-13694936D02*
X12818943Y-13704460D01*
X12818943Y-13704460D02*
X12799896Y-13713984D01*
X12799896Y-13713984D02*
X12761801Y-13713984D01*
X12761801Y-13713984D02*
X12742753Y-13704460D01*
X12923705Y-13694936D02*
X12933229Y-13704460D01*
X12933229Y-13704460D02*
X12923705Y-13713984D01*
X12923705Y-13713984D02*
X12914182Y-13704460D01*
X12914182Y-13704460D02*
X12923705Y-13694936D01*
X12923705Y-13694936D02*
X12923705Y-13713984D01*
X12923705Y-13590174D02*
X12933229Y-13599698D01*
X12933229Y-13599698D02*
X12923705Y-13609222D01*
X12923705Y-13609222D02*
X12914182Y-13599698D01*
X12914182Y-13599698D02*
X12923705Y-13590174D01*
X12923705Y-13590174D02*
X12923705Y-13609222D01*
M02*
